<?xml version="1.0" encoding="UTF-8"?>
<!DOCTYPE svg PUBLIC "-//W3C//DTD SVG 1.1//EN" "http://www.w3.org/Graphics/SVG/1.1/DTD/svg11.dtd">
<!-- Creator: CorelDRAW -->
<svg xmlns="http://www.w3.org/2000/svg" xml:space="preserve" width="500px" height="500px" version="1.1" style="shape-rendering:geometricPrecision; text-rendering:geometricPrecision; image-rendering:optimizeQuality; fill-rule:evenodd; clip-rule:evenodd"
viewBox="0 0 1000 1000"
 xmlns:xlink="http://www.w3.org/1999/xlink"
 xmlns:xodm="http://www.corel.com/coreldraw/odm/2003">
 <defs>
  <style type="text/css">
   <![CDATA[
    .fil3 {fill:none}
    .fil0 {fill:#FEFEFE}
    .fil6 {fill:#2B2A29}
    .fil4 {fill:#008DD2}
    .fil7 {fill:#2B2A29;fill-rule:nonzero}
    .fil2 {fill:#FFED00;fill-rule:nonzero}
    .fil8 {fill:url(#id3)}
    .fil5 {fill:url(#id4)}
    .fil1 {fill:url(#id5)}
   ]]>
  </style>
    <clipPath id="id0">
     <path d="M500 150c193.3,0 350,156.7 350,350 0,193.3 -156.7,349.99 -350,349.99 -193.3,0 -350,-156.69 -350,-349.99 0,-193.3 156.7,-350 350,-350z"/>
    </clipPath>
    <clipPath id="id1">
     <path d="M362.63 602.36c-21.91,-183.4 204.68,-122.99 56.04,26.77 -20.48,-9.78 -35.56,-16.99 -56.04,-26.77z"/>
    </clipPath>
    <clipPath id="id2">
     <path d="M634.45 602.36c21.91,-183.4 -204.67,-122.99 -56.03,26.77 20.47,-9.78 35.56,-16.99 56.03,-26.77z"/>
    </clipPath>
  <linearGradient id="id3" gradientUnits="userSpaceOnUse" x1="581.43" y1="595.69" x2="571.2" y2="576.24">
   <stop offset="0" style="stop-opacity:1; stop-color:#EBECEC"/>
   <stop offset="1" style="stop-opacity:1; stop-color:#FEFEFE"/>
  </linearGradient>
  <linearGradient id="id4" gradientUnits="userSpaceOnUse" xlink:href="#id3" x1="394.78" y1="604.22" x2="410.82" y2="579.99">
  </linearGradient>
  <radialGradient id="id5" gradientUnits="userSpaceOnUse" gradientTransform="matrix(1.41421 -0 -0 1.41422 -207 -207)" cx="500" cy="499.99" r="350" fx="500" fy="499.99">
   <stop offset="0" style="stop-opacity:1; stop-color:#FFED00"/>
   <stop offset="1" style="stop-opacity:1; stop-color:#FECC00"/>
  </radialGradient>
 </defs>
 <g id="Livello_x0020_1">
  <metadata id="CorelCorpID_0Corel-Layer"/>
  <rect class="fil0" width="1000" height="1000"/>
  <g id="_2010053599584">
   <path class="fil1" d="M500 150c193.3,0 350,156.7 350,350 0,193.3 -156.7,349.99 -350,349.99 -193.3,0 -350,-156.69 -350,-349.99 0,-193.3 156.7,-350 350,-350z"/>
   <g style="clip-path:url(#id0)">
    <g>
     <g>
      <path id="_1" class="fil2" d="M800.78 500l-12.35 0 0 0 -0.38 -14.85 -1.11 -14.64 -1.84 -14.44 -2.53 -14.21 -3.22 -13.94 -3.89 -13.69 -4.53 -13.4 -5.17 -13.09 -5.77 -12.78 -6.37 -12.43 -6.95 -12.08 -7.5 -11.71 -8.04 -11.31 -8.57 -10.9 -9.06 -10.46 -9.55 -10.02 -10.02 -9.55 -10.47 -9.07 -10.89 -8.56 -11.31 -8.03 -11.71 -7.51 -12.08 -6.94 -12.43 -6.38 -12.77 -5.77 -13.1 -5.16 -13.4 -4.53 -13.68 -3.89 -13.95 -3.23 -14.21 -2.53 -14.43 -1.83 -14.65 -1.12 -14.85 -0.37 0 -12.36 15.47 0.4 15.28 1.16 15.05 1.91 14.81 2.65 14.56 3.36 14.27 4.04 13.98 4.73 13.66 5.39 13.32 6.03 12.97 6.64 12.6 7.24 12.2 7.83 11.8 8.38 11.35 8.93 10.92 9.45 10.45 9.96 9.95 10.44 9.45 10.92 8.93 11.35 8.39 11.8 7.82 12.2 7.25 12.6 6.64 12.97 6.02 13.33 5.39 13.65 4.73 13.98 4.05 14.28 3.36 14.55 2.64 14.81 1.92 15.06 1.16 15.27 0.39 15.47 0 0zm0 0c0,3.41 -2.77,6.18 -6.18,6.18 -3.41,0 -6.17,-2.77 -6.17,-6.18l12.35 0zm-300.78 300.77l0 -12.35 0 0 14.85 -0.38 14.65 -1.11 14.43 -1.83 14.21 -2.54 13.95 -3.22 13.68 -3.89 13.4 -4.53 13.1 -5.16 12.77 -5.78 12.43 -6.37 12.09 -6.94 11.7 -7.5 11.31 -8.04 10.89 -8.57 10.47 -9.07 10.02 -9.55 9.55 -10.01 9.06 -10.47 8.57 -10.9 8.04 -11.31 7.5 -11.7 6.95 -12.08 6.37 -12.43 5.77 -12.78 5.17 -13.09 4.53 -13.4 3.89 -13.68 3.22 -13.95 2.53 -14.21 1.84 -14.44 1.11 -14.64 0.38 -14.85 12.35 0 -0.39 15.47 -1.16 15.27 -1.92 15.06 -2.64 14.81 -3.36 14.56 -4.05 14.27 -4.73 13.98 -5.39 13.66 -6.02 13.32 -6.64 12.97 -7.25 12.6 -7.82 12.2 -8.39 11.79 -8.93 11.36 -9.45 10.92 -9.95 10.44 -10.45 9.96 -10.92 9.45 -11.35 8.92 -11.8 8.4 -12.2 7.81 -12.6 7.25 -12.97 6.64 -13.32 6.03 -13.66 5.38 -13.98 4.73 -14.27 4.05 -14.56 3.36 -14.81 2.65 -15.05 1.91 -15.28 1.16 -15.47 0.39 0 0zm0 0c-3.41,0 -6.17,-2.76 -6.17,-6.17 0,-3.41 2.76,-6.18 6.17,-6.18l0 12.35zm-300.77 -300.77l12.35 0 0 0 0.38 14.85 1.11 14.64 1.83 14.44 2.54 14.21 3.22 13.95 3.89 13.68 4.53 13.4 5.16 13.09 5.78 12.78 6.37 12.43 6.94 12.08 7.5 11.7 8.04 11.31 8.57 10.9 9.07 10.47 9.55 10.01 10.02 9.55 10.46 9.07 10.9 8.57 11.31 8.04 11.7 7.5 12.08 6.94 12.43 6.37 12.78 5.78 13.1 5.16 13.39 4.53 13.69 3.89 13.95 3.22 14.2 2.54 14.44 1.83 14.64 1.11 14.85 0.38 0 12.35 -15.47 -0.39 -15.27 -1.16 -15.05 -1.91 -14.81 -2.65 -14.56 -3.36 -14.28 -4.05 -13.97 -4.73 -13.66 -5.38 -13.33 -6.03 -12.97 -6.64 -12.59 -7.25 -12.2 -7.81 -11.81 -8.4 -11.35 -8.92 -10.91 -9.45 -10.45 -9.96 -9.95 -10.44 -9.46 -10.92 -8.93 -11.36 -8.38 -11.79 -7.83 -12.2 -7.24 -12.6 -6.64 -12.97 -6.03 -13.32 -5.38 -13.66 -4.73 -13.98 -4.05 -14.27 -3.36 -14.56 -2.65 -14.81 -1.91 -15.06 -1.16 -15.27 -0.39 -15.47 0 0zm0 0c0,-3.41 2.76,-6.17 6.17,-6.17 3.41,0 6.18,2.76 6.18,6.17l-12.35 0zm300.77 -300.78l0 12.36 0 0 -14.85 0.37 -14.64 1.12 -14.44 1.83 -14.2 2.53 -13.95 3.23 -13.69 3.89 -13.39 4.53 -13.1 5.16 -12.78 5.77 -12.43 6.38 -12.08 6.94 -11.7 7.51 -11.31 8.03 -10.9 8.56 -10.46 9.07 -10.02 9.55 -9.55 10.02 -9.07 10.46 -8.57 10.9 -8.04 11.31 -7.5 11.71 -6.94 12.08 -6.37 12.43 -5.78 12.78 -5.16 13.09 -4.53 13.4 -3.89 13.69 -3.22 13.94 -2.54 14.21 -1.83 14.44 -1.11 14.64 -0.38 14.85 -12.35 0 0.39 -15.47 1.16 -15.27 1.91 -15.06 2.65 -14.81 3.36 -14.55 4.05 -14.28 4.73 -13.98 5.38 -13.65 6.03 -13.33 6.64 -12.97 7.24 -12.6 7.83 -12.2 8.38 -11.8 8.93 -11.35 9.46 -10.92 9.95 -10.44 10.45 -9.96 10.91 -9.45 11.35 -8.93 11.81 -8.38 12.19 -7.83 12.6 -7.24 12.97 -6.64 13.33 -6.03 13.66 -5.39 13.97 -4.73 14.28 -4.04 14.56 -3.36 14.81 -2.65 15.05 -1.91 15.27 -1.16 15.47 -0.4 0 0zm0 0c3.41,0 6.18,2.77 6.18,6.18 0,3.41 -2.77,6.18 -6.18,6.18l0 -12.36z"/>
     </g>
     <path class="fil0" d="M505.15 387.83c139.22,0 249.06,113.99 253.13,253.12 1.53,52.74 -46.81,122.62 -31.34,173.25 42.31,138.45 31.81,-5.49 31.36,370.72 -0.05,42.15 -58.45,7.63 -136.45,-29.69 -38.03,-18.2 -74.51,29.69 -116.7,29.69 -120.48,0 -40.11,-62.2 -277.84,0 6.76,-231.46 130.19,-154.2 69.71,-377.72l-44.98 -166.25c-36.35,-134.38 113.9,-253.12 253.11,-253.12z"/>
    </g>
   </g>
   <path class="fil3" d="M500 150c193.3,0 350,156.7 350,350 0,193.3 -156.7,349.99 -350,349.99 -193.3,0 -350,-156.69 -350,-349.99 0,-193.3 156.7,-350 350,-350z"/>
   <path class="fil4" d="M603.09 462.9c-14.16,-17.96 -36.34,-27.54 -69.09,-26.9 39.85,-18.18 44.87,-13.73 69.09,26.9z"/>
   <path class="fil5" d="M362.63 602.36c-21.91,-183.4 204.68,-122.99 56.04,26.77 -20.48,-9.78 -35.56,-16.99 -56.04,-26.77z"/>
   <g style="clip-path:url(#id1)">
    <g>
     <ellipse class="fil4" cx="422.08" cy="524.88" rx="44.7" ry="44.19"/>
     <ellipse class="fil6" cx="424.13" cy="501.51" rx="44.7" ry="44.19"/>
     <ellipse class="fil0" cx="404.68" cy="522.1" rx="19.11" ry="18.89"/>
    </g>
   </g>
   <g>
    <path class="fil7" d="M417.61 631.34l2.11 -4.42 -2.79 0.48 12.75 -13.66 10.66 -13.09 8.69 -12.48 6.83 -11.84 5.1 -11.17 3.49 -10.48 2 -9.73 0.64 -8.98 -0.6 -8.21 -1.7 -7.41 -2.7 -6.61 -3.58 -5.81 -4.35 -4.98 -5.03 -4.13 -5.61 -3.28 -6.07 -2.39 -6.43 -1.47 -6.69 -0.52 -6.84 0.46 -6.88 1.48 -6.8 2.51 -6.63 3.59 -6.35 4.7 -5.95 5.84 -5.45 7.02 -4.84 8.23 -4.1 9.5 -3.26 10.79 -2.3 12.13 -1.2 13.49 0.01 14.86 1.33 16.31 -4.87 0.58 -1.36 -16.68 -0.01 -15.29 1.25 -13.94 2.39 -12.6 3.41 -11.32 4.34 -10.04 5.15 -8.77 5.84 -7.52 6.43 -6.31 6.9 -5.11 7.24 -3.92 7.46 -2.75 7.56 -1.63 7.55 -0.51 7.4 0.58 7.15 1.63 6.76 2.66 6.27 3.67 5.64 4.65 4.89 5.58 4 6.5 3 7.35 1.88 8.17 0.65 8.92 -0.69 9.66 -2.12 10.34 -3.67 11 -5.3 11.61 -7.05 12.23 -8.91 12.8 -10.88 13.36 -12.96 13.88 -2.8 0.49zm2.8 -0.49l-1.23 1.24 -1.57 -0.75 2.8 -0.49zm-60.21 -28.2l4.87 -0.58 -1.38 -1.92 3.78 1.8 3.66 1.75 3.58 1.71 3.49 1.67 3.43 1.64 3.39 1.62 3.35 1.59 3.34 1.6 3.33 1.6 3.35 1.59 3.39 1.62 3.43 1.64 3.49 1.67 3.58 1.71 3.66 1.75 3.78 1.81 -2.11 4.42 -3.78 -1.81 -3.66 -1.75 -3.58 -1.71 -3.49 -1.67 -3.43 -1.64 -3.39 -1.61 -3.35 -1.6 -3.33 -1.6 -3.34 -1.59 -3.35 -1.6 -3.39 -1.62 -3.43 -1.64 -3.49 -1.67 -3.58 -1.71 -3.66 -1.75 -3.78 -1.8 -1.38 -1.92zm1.38 1.92l-1.22 -0.59 -0.16 -1.33 1.38 1.92z"/>
   </g>
   <path class="fil4" d="M391.03 463.59c17.72,-14.94 41.11,-23.5 69.09,-26.91 -44.54,-12.71 -47.9,-10.19 -69.09,26.91z"/>
   <path class="fil8" d="M634.45 602.36c21.91,-183.4 -204.67,-122.99 -56.03,26.77 20.47,-9.78 35.56,-16.99 56.03,-26.77z"/>
   <g style="clip-path:url(#id2)">
    <g>
     <ellipse class="fil4" cx="572.96" cy="524.88" rx="44.7" ry="44.19"/>
     <ellipse class="fil6" cx="575.01" cy="501.51" rx="44.7" ry="44.19"/>
     <ellipse class="fil0" cx="555.56" cy="522.1" rx="19.11" ry="18.89"/>
    </g>
   </g>
   <g>
    <path class="fil7" d="M579.48 631.34l-2.8 -0.49 -12.96 -13.88 -10.88 -13.36 -8.91 -12.8 -7.05 -12.23 -5.3 -11.61 -3.67 -11 -2.12 -10.34 -0.69 -9.66 0.65 -8.92 1.88 -8.17 3 -7.35 4 -6.5 4.89 -5.58 5.64 -4.65 6.26 -3.67 6.76 -2.66 7.16 -1.63 7.4 -0.58 7.55 0.51 7.56 1.63 7.46 2.75 7.24 3.92 6.89 5.11 6.44 6.31 5.84 7.52 5.15 8.77 4.34 10.04 3.41 11.32 2.39 12.6 1.25 13.94 -0.01 15.29 -1.36 16.68 -4.87 -0.58 1.33 -16.31 0.01 -14.86 -1.2 -13.49 -2.3 -12.13 -3.26 -10.79 -4.1 -9.5 -4.84 -8.23 -5.46 -7.02 -5.95 -5.84 -6.34 -4.7 -6.63 -3.59 -6.8 -2.51 -6.88 -1.48 -6.84 -0.46 -6.69 0.52 -6.43 1.47 -6.07 2.39 -5.61 3.28 -5.03 4.13 -4.35 4.98 -3.58 5.81 -2.7 6.61 -1.7 7.41 -0.6 8.21 0.64 8.98 2 9.73 3.49 10.48 5.1 11.17 6.83 11.84 8.69 12.48 10.66 13.09 12.75 13.66 -2.79 -0.48 2.11 4.42zm0 0l-1.57 0.75 -1.23 -1.24 2.8 0.49zm57.41 -28.69l-1.38 1.92 -3.78 1.8 -3.66 1.75 -3.58 1.71 -3.49 1.67 -3.43 1.64 -3.39 1.62 -3.35 1.6 -3.34 1.59 -3.33 1.6 -3.36 1.6 -3.38 1.61 -3.43 1.64 -3.49 1.67 -3.58 1.71 -3.66 1.75 -3.78 1.81 -2.11 -4.42 3.78 -1.81 3.66 -1.75 3.58 -1.71 3.49 -1.67 3.43 -1.64 3.38 -1.62 3.36 -1.59 3.33 -1.6 3.34 -1.6 3.35 -1.59 3.38 -1.62 3.44 -1.64 3.49 -1.67 3.57 -1.71 3.67 -1.75 3.78 -1.8 -1.38 1.92 4.87 0.58zm0 0l-0.16 1.33 -1.22 0.59 1.38 -1.92z"/>
   </g>
   <path class="fil0" d="M553.17 635.5c43.43,-57.26 123.01,-99.26 111.58,-44.32 -11.43,54.95 -111.58,44.32 -111.58,44.32z"/>
   <g>
    <polygon class="fil7" points="551.22,634.02 555.43,628.64 559.85,623.37 564.42,618.21 569.14,613.2 573.97,608.34 578.91,603.65 583.91,599.13 588.97,594.81 594.05,590.7 599.14,586.82 604.2,583.17 609.24,579.78 614.2,576.66 619.09,573.81 623.87,571.26 628.52,569.04 633.04,567.13 637.38,565.57 641.55,564.37 645.53,563.55 649.3,563.13 652.86,563.15 656.18,563.63 659.24,564.65 661.97,566.22 664.29,568.39 666.1,571.1 667.37,574.28 668.1,577.93 668.31,582.04 667.99,586.62 667.15,591.68 662.36,590.68 663.13,586.01 663.41,581.96 663.24,578.51 662.67,575.65 661.76,573.35 660.55,571.55 659.06,570.16 657.26,569.12 655.08,568.4 652.52,568.03 649.58,568.01 646.32,568.38 642.74,569.12 638.9,570.23 634.83,571.69 630.54,573.5 626.09,575.64 621.48,578.09 616.74,580.85 611.92,583.88 607.01,587.19 602.06,590.75 597.08,594.56 592.1,598.58 587.14,602.81 582.24,607.24 577.4,611.84 572.66,616.61 568.04,621.52 563.56,626.57 559.25,631.72 555.12,636.98 "/>
   </g>
   <path class="fil0" d="M443.92 631.86c-43.43,-46.52 -123.02,-68.85 -111.58,-16.72 11.43,52.12 111.58,16.72 111.58,16.72z"/>
   <g>
    <polygon class="fil7" points="445.71,630.18 442.13,633.53 438.02,629.31 433.73,625.24 429.27,621.32 424.67,617.57 419.95,613.99 415.14,610.6 410.25,607.4 405.32,604.41 400.36,601.62 395.41,599.07 390.48,596.74 385.59,594.65 380.79,592.82 376.08,591.24 371.5,589.93 367.07,588.91 362.81,588.17 358.76,587.71 354.94,587.56 351.38,587.7 348.11,588.14 345.15,588.89 342.52,589.92 340.24,591.24 338.29,592.84 336.67,594.74 335.39,596.99 334.43,599.62 333.85,602.68 333.68,606.19 333.96,610.16 334.73,614.61 329.94,615.66 329.1,610.77 328.78,606.26 328.98,602.12 329.7,598.34 330.94,594.94 332.66,591.93 334.85,589.35 337.45,587.2 340.4,585.49 343.66,584.22 347.19,583.33 350.96,582.82 354.95,582.66 359.14,582.82 363.51,583.32 368.05,584.11 372.73,585.2 377.53,586.57 382.44,588.2 387.43,590.11 392.49,592.27 397.58,594.68 402.68,597.31 407.79,600.18 412.86,603.26 417.89,606.55 422.84,610.03 427.7,613.72 432.44,617.58 437.03,621.62 441.46,625.82 "/>
   </g>
   <g>
    <path class="fil7" d="M340.68 670.09c-0.41,1.29 -1.8,2 -3.09,1.59 -1.28,-0.42 -1.99,-1.8 -1.58,-3.09l4.67 1.5zm30.7 -29.87l0.44 4.89 -2.19 0.26 -2.09 0.37 -2 0.48 -1.9 0.58 -1.8 0.67 -1.72 0.73 -1.63 0.83 -1.56 0.88 -1.46 0.94 -1.39 0.99 -1.31 1.03 -1.23 1.06 -1.16 1.1 -1.08 1.12 -1.02 1.13 -0.95 1.13 -0.87 1.12 -0.8 1.12 -0.75 1.09 -0.67 1.06 -0.61 1.02 -0.55 0.98 -0.49 0.92 -0.42 0.85 -0.38 0.79 -0.31 0.7 -0.27 0.62 -0.2 0.51 -0.16 0.41 -0.1 0.29 -0.07 0.18 0 0.02 -4.67 -1.5 0.04 -0.12 0.08 -0.23 0.13 -0.36 0.19 -0.49 0.24 -0.59 0.3 -0.7 0.35 -0.8 0.42 -0.87 0.48 -0.96 0.55 -1.03 0.6 -1.08 0.68 -1.14 0.75 -1.17 0.83 -1.21 0.89 -1.25 0.98 -1.26 1.06 -1.26 1.14 -1.27 1.22 -1.25 1.31 -1.24 1.41 -1.22 1.48 -1.17 1.58 -1.14 1.68 -1.07 1.78 -1.01 1.87 -0.94 1.97 -0.84 2.07 -0.77 2.17 -0.66 2.27 -0.54 2.38 -0.43 2.47 -0.3zm0 0c1.35,-0.11 2.54,0.88 2.66,2.23 0.12,1.34 -0.87,2.54 -2.22,2.66l-0.44 -4.89z"/>
   </g>
   <g>
    <path class="fil7" d="M352.66 666.59c-0.44,-1.63 0.24,-3.41 1.51,-3.98 1.28,-0.56 2.68,0.3 3.12,1.93l-4.63 2.05zm302.59 -23.39l4.19 3.24 -5.08 9.2 -6.15 8.52 -7.11 7.83 -8 7.17 -8.8 6.53 -9.53 5.91 -10.19 5.31 -10.77 4.72 -11.28 4.15 -11.71 3.6 -12.07 3.05 -12.36 2.51 -12.58 1.99 -12.71 1.47 -12.77 0.97 -12.77 0.48 -12.69 -0.01 -12.52 -0.48 -12.3 -0.95 -11.98 -1.4 -11.61 -1.84 -11.16 -2.28 -10.62 -2.71 -10.03 -3.13 -9.36 -3.56 -8.61 -3.96 -7.81 -4.36 -6.92 -4.79 -5.97 -5.22 -4.94 -5.69 -3.82 -6.19 -2.56 -6.69 4.63 -2.05 2.07 5.4 3.24 5.24 4.4 5.04 5.5 4.81 6.52 4.52 7.47 4.17 8.32 3.84 9.12 3.45 9.81 3.07 10.43 2.66 10.98 2.24 11.44 1.82 11.83 1.38 12.15 0.93 12.37 0.48 12.55 0.01 12.62 -0.48 12.62 -0.96 12.56 -1.45 12.41 -1.96 12.19 -2.48 11.88 -3 11.51 -3.53 11.06 -4.07 10.52 -4.61 9.91 -5.17 9.23 -5.72 8.46 -6.28 7.63 -6.84 6.72 -7.39 5.74 -7.95 4.7 -8.51zm0 0c0.7,-1.48 2.21,-1.94 3.37,-1.05 1.15,0.88 1.52,2.82 0.82,4.29l-4.19 -3.24z"/>
   </g>
   <g>
    <path class="fil7" d="M678.27 654.84l4.51 -1.91c0.52,1.25 -0.06,2.69 -1.3,3.21 -1.25,0.53 -2.69,-0.05 -3.21,-1.3zm-33.27 -26.97l2.49 0.08 2.4 0.2 2.31 0.34 2.22 0.46 2.14 0.57 2.04 0.68 1.94 0.76 1.86 0.84 1.77 0.92 1.68 0.98 1.59 1.04 1.5 1.08 1.42 1.12 1.33 1.15 1.24 1.15 1.17 1.16 1.09 1.17 1.01 1.15 0.92 1.13 0.86 1.11 0.78 1.07 0.71 1.03 0.63 0.97 0.56 0.9 0.5 0.85 0.42 0.75 0.36 0.67 0.3 0.58 0.22 0.46 0.16 0.34 0.1 0.23 0.06 0.12 -4.51 1.91 -0.01 -0.01 -0.07 -0.16 -0.14 -0.3 -0.2 -0.4 -0.25 -0.5 -0.31 -0.58 -0.38 -0.67 -0.44 -0.75 -0.5 -0.81 -0.57 -0.88 -0.64 -0.91 -0.7 -0.97 -0.77 -0.99 -0.83 -1.02 -0.91 -1.04 -0.97 -1.04 -1.04 -1.04 -1.11 -1.03 -1.18 -1.02 -1.25 -0.98 -1.33 -0.96 -1.4 -0.9 -1.47 -0.87 -1.54 -0.8 -1.63 -0.74 -1.69 -0.66 -1.78 -0.59 -1.86 -0.5 -1.95 -0.4 -2.03 -0.3 -2.12 -0.18 -2.2 -0.07 0 -4.9zm0 0l0 4.9c-1.35,0 -2.45,-1.1 -2.45,-2.45 0,-1.35 1.1,-2.45 2.45,-2.45z"/>
   </g>
  </g>
 </g>
</svg>
