<?xml version="1.0" encoding="UTF-8"?>
<!DOCTYPE svg PUBLIC "-//W3C//DTD SVG 1.1//EN" "http://www.w3.org/Graphics/SVG/1.1/DTD/svg11.dtd">
<!-- Creator: CorelDRAW -->
<svg xmlns="http://www.w3.org/2000/svg" xml:space="preserve" width="500px" height="500px" version="1.1" style="shape-rendering:geometricPrecision; text-rendering:geometricPrecision; image-rendering:optimizeQuality; fill-rule:evenodd; clip-rule:evenodd"
viewBox="0 0 137.16 137.16"
 xmlns:xlink="http://www.w3.org/1999/xlink"
 xmlns:xodm="http://www.corel.com/coreldraw/odm/2003">
 <defs>
  <style type="text/css">
   <![CDATA[
    .fil0 {fill:none}
    .fil5 {fill:#FEFEFE}
    .fil7 {fill:#2B2A29}
    .fil3 {fill:black}
    .fil1 {fill:#941E22}
    .fil6 {fill:#C1272D}
    .fil2 {fill:#CACACA}
    .fil4 {fill:#ECECEC}
   ]]>
  </style>
 </defs>
 <g id="Livello_x0020_1">
  <metadata id="CorelCorpID_0Corel-Layer"/>
  <rect class="fil0" width="137.16" height="137.16"/>
  <g id="_2092589744128">
   <path class="fil1" d="M75.73 60.58c0.78,0.62 1.64,1.1 2.32,1.73 0.61,0.57 1.32,2.15 2.34,2.15 10.71,0 21.42,0 32.13,0 -0.02,-1.07 -0.02,-3.33 -0.63,-4.2 -0.8,0.76 -3.2,0.35 -4.42,0.35 -10.08,0 -22.14,0.24 -31.74,-0.03z"/>
   <path class="fil1" d="M60.9 60.35c-1.83,0.7 -30.43,0.26 -34.98,0.26l-0.1 -0.82c-0.71,0.85 -0.68,3.36 -0.7,4.67l31.85 0c2.64,-3.77 3.01,-2.66 3.93,-4.11z"/>
   <path class="fil2" d="M106.37 90.23c-0.43,-0.33 0.01,0.08 -0.24,-0.56 -0.02,-0.05 -0.05,-0.14 -0.06,-0.18l-0.25 -0.58c-1,1.02 -6.21,3.74 -8.02,4.64 -16.45,8.2 -34.4,10.07 -51.97,3.64 -2.15,-0.79 -14.53,-6.11 -16.25,-8.22l-0.27 -0.39c-0.03,-0.12 -0.09,-0.14 -0.14,-0.21 2.02,5.35 9.58,12.38 14.53,15.46 17.52,10.9 40.45,8.96 55.8,-5.11 2.08,-1.9 5.83,-5.97 6.87,-8.49z"/>
   <path class="fil3" d="M106.37 90.23c-1.04,2.52 -4.79,6.59 -6.87,8.49 -15.35,14.07 -38.28,16.01 -55.8,5.11 -4.95,-3.08 -12.51,-10.11 -14.53,-15.46 -2.11,-1.82 -4.42,-11.62 -4.52,-15.79l30.42 0c0.67,6.05 6.49,10.9 13.38,10.84 6.82,-0.06 12.4,-4.8 13.2,-10.84l30.38 0c-0.14,3.52 -0.87,6.89 -1.91,9.94 -0.57,1.66 -2.76,7.02 -3.75,7.71zm-29.1 -13.06c-1.48,2.23 -5.39,4.3 -9.36,4.16 -2.04,-0.07 -3.77,-0.65 -5.31,-1.44 -1.69,-0.87 -2.61,-1.89 -3.43,-3.2 -1.75,-0.86 -3.34,-6.73 -0.35,-11.22 6.1,-9.16 22.13,-4.38 20.61,6.83 -0.23,1.7 -1.18,4.12 -2.16,4.87zm-16.37 -16.82c-0.92,1.45 -1.29,0.34 -3.93,4.11l-31.85 0c0.02,-1.31 -0.01,-3.82 0.7,-4.67 -0.38,-5.6 5.86,-15.01 9.56,-19.36 1.53,-1.78 3.12,-2.9 5,-4.55 1.47,-1.28 3.95,-2.77 5.91,-3.9 11.56,-6.66 26.88,-7.29 39.28,-2.68 5.4,2.01 8.26,4.28 12.15,6.97 2.8,1.94 6.95,6.67 9.02,10.09 1.57,2.59 5.51,10.27 5.15,13.9 0.61,0.87 0.61,3.13 0.63,4.2 -10.71,0 -21.42,0 -32.13,0 -1.02,0 -1.73,-1.58 -2.34,-2.15 -0.68,-0.63 -1.54,-1.11 -2.32,-1.73 -2.41,-1.2 -4.04,-2.01 -7.28,-2.04 -3.9,-0.03 -5.48,1.59 -7.55,1.81zm-38.37 4.13l0 2.39 5.57 0 0 3.18 -6.11 0c0,8.46 2.05,15.57 6.53,22.41 0.41,0.63 0.63,0.98 1.06,1.59 0.52,0.75 0.74,0.9 1.29,1.63 2.41,3.21 5.14,5.72 8.34,8.12 18.94,14.23 46.43,12.36 63.68,-4.88 1.08,-1.08 1.65,-1.8 2.65,-2.92l3.41 -4.82c0.44,-0.72 0.59,-1.18 1,-1.93 0.43,-0.8 0.6,-0.92 0.94,-1.71 2.69,-6.3 3.75,-10.05 3.75,-17.49l-3.72 0 0 -3.18 4.25 0c0,-9.62 -3,-18.17 -8.46,-24.99 -2.77,-3.47 -3.43,-4.08 -6.61,-6.93 -2.79,-2.5 -8.35,-5.77 -11.7,-7.14 -8.29,-3.4 -12.07,-3.95 -21.54,-3.95 -6.22,0 -12.91,1.94 -17.41,3.83 -2.36,0.99 -4.94,2.36 -6.96,3.66 -3.02,1.94 -3.58,2.66 -6.05,4.57 -5.23,4.05 -10.45,12.8 -12.42,19.44 -0.7,2.36 -1.49,6.25 -1.49,9.12z"/>
   <path class="fil3" d="M67.54 65.49c7.6,-1.54 9.45,9.18 2.36,10.52 -7.57,1.44 -10.23,-8.92 -2.36,-10.52zm-2.24 10.89c2.51,1.24 4.32,0.81 6.79,0.04 1.57,-1.47 1.42,-0.46 2.66,-2.72 2.46,-4.48 -1.07,-9.36 -6.05,-9.4 -3.32,-0.04 -5.96,2.14 -6.73,4.58 -1.04,3.26 0.48,5.88 3.33,7.5z"/>
   <path class="fil4" d="M29.17 88.37c0.05,0.07 0.11,0.09 0.14,0.21l0.27 0.39c1.72,2.11 14.1,7.43 16.25,8.22 17.57,6.43 35.52,4.56 51.97,-3.64 1.81,-0.9 7.02,-3.62 8.02,-4.64l0.25 0.58c0.01,0.04 0.04,0.13 0.06,0.18 0.25,0.64 -0.19,0.23 0.24,0.56 0.99,-0.69 3.18,-6.05 3.75,-7.71 1.04,-3.05 1.77,-6.42 1.91,-9.94l-30.38 0c-0.8,6.04 -6.38,10.78 -13.2,10.84 -6.89,0.06 -12.71,-4.79 -13.38,-10.84l-30.42 0c0.1,4.17 2.41,13.97 4.52,15.79z"/>
   <path class="fil4" d="M59.17 76.69c0.07,0.05 0.15,0.06 0.18,0.17 0.01,0.05 0.76,1.79 2.51,1.05 0.61,-0.26 1.22,-0.52 1.7,-0.62 1.51,-0.29 1.52,0.22 1.74,-0.91 -2.85,-1.62 -4.37,-4.24 -3.33,-7.5 0.77,-2.44 3.41,-4.62 6.73,-4.58 4.98,0.04 8.51,4.92 6.05,9.4 -1.24,2.26 -1.09,1.25 -2.66,2.72 0.11,0.99 1.32,0.74 2.53,1.14 1.14,0.37 1.38,0.75 2.34,-0.07 0.05,-0.04 0.12,-0.12 0.16,-0.16 0.04,-0.04 0.1,-0.11 0.15,-0.16 0.98,-0.75 1.93,-3.17 2.16,-4.87 1.52,-11.21 -14.51,-15.99 -20.61,-6.83 -2.99,4.49 -1.4,10.36 0.35,11.22z"/>
   <path class="fil5" d="M67.54 65.49c-7.87,1.6 -5.21,11.96 2.36,10.52 7.09,-1.34 5.24,-12.06 -2.36,-10.52z"/>
   <path class="fil4" d="M59.17 76.69c0.82,1.31 1.74,2.33 3.43,3.2 1.54,0.79 3.27,1.37 5.31,1.44 3.97,0.14 7.88,-1.93 9.36,-4.16 -0.05,0.05 -0.11,0.12 -0.15,0.16 -0.04,0.04 -0.11,0.12 -0.16,0.16 -0.96,0.82 -1.2,0.44 -2.34,0.07 -1.21,-0.4 -2.42,-0.15 -2.53,-1.14 -2.47,0.77 -4.28,1.2 -6.79,-0.04 -0.22,1.13 -0.23,0.62 -1.74,0.91 -0.48,0.1 -1.09,0.36 -1.7,0.62 -1.75,0.74 -2.5,-1 -2.51,-1.05 -0.03,-0.11 -0.11,-0.12 -0.18,-0.17z"/>
   <path class="fil6" d="M25.82 59.79l0.1 0.82c4.55,0 33.15,0.44 34.98,-0.26 2.07,-0.22 3.65,-1.84 7.55,-1.81 3.24,0.03 4.87,0.84 7.28,2.04 9.6,0.27 21.66,0.03 31.74,0.03 1.22,0 3.62,0.41 4.42,-0.35 0.36,-3.63 -3.58,-11.31 -5.15,-13.9 -2.07,-3.42 -6.22,-8.15 -9.02,-10.09 -3.89,-2.69 -6.75,-4.96 -12.15,-6.97 -12.4,-4.61 -27.72,-3.98 -39.28,2.68 -1.96,1.13 -4.44,2.62 -5.91,3.9 -1.88,1.65 -3.47,2.77 -5,4.55 -3.7,4.35 -9.94,13.76 -9.56,19.36z"/>
   <path class="fil7" d="M67.67 66.18c-6.83,1.39 -4.52,10.39 2.05,9.14 6.17,-1.17 4.55,-10.48 -2.05,-9.14z"/>
  </g>
 </g>
</svg>
