<?xml version="1.0" encoding="UTF-8"?>
<!DOCTYPE svg PUBLIC "-//W3C//DTD SVG 1.1//EN" "http://www.w3.org/Graphics/SVG/1.1/DTD/svg11.dtd">
<!-- Creator: CorelDRAW -->
<svg xmlns="http://www.w3.org/2000/svg" xml:space="preserve" width="500px" height="500px" version="1.1" style="shape-rendering:geometricPrecision; text-rendering:geometricPrecision; image-rendering:optimizeQuality; fill-rule:evenodd; clip-rule:evenodd"
viewBox="0 0 396.14 396.14"
 xmlns:xlink="http://www.w3.org/1999/xlink"
 xmlns:xodm="http://www.corel.com/coreldraw/odm/2003">
 <defs>
  <style type="text/css">
   <![CDATA[
    .fil2 {fill:none}
    .fil0 {fill:#B83020}
    .fil1 {fill:#EAC3BE}
   ]]>
  </style>
 </defs>
 <g id="Livello_x0020_1">
  <metadata id="CorelCorpID_0Corel-Layer"/>
  <g id="_2810813141920">
   <path class="fil0" d="M227.51 181.02c-2.18,1.02 -54.69,0.56 -64.39,0.56 -6.86,0 -15.02,0.39 -21.71,-0.05l-0.04 -42.13c6.37,-0.49 14.64,-0.06 21.2,-0.06 9.22,0 61.96,-0.33 63.54,0.34 2.94,1.29 3.47,-0.69 11.59,5.34 2.03,1.5 4.19,4.67 5.22,6.93 3.23,7.02 2.03,16.29 -3.09,21.8 -1.12,1.21 -1.09,1.37 -2.45,2.43 -5.98,4.66 -7.57,3.78 -9.87,4.84zm-18.52 73.15l0.17 0.5 0.31 0.5 0.3 0.5 0.3 0.5 0.3 0.49 0.09 0.36 6.96 12.99c0.44,0.77 0.69,1.33 1.1,2.13 0.48,0.93 0.85,1.39 1.29,2.22 4.51,8.38 10.17,18.05 14.3,26.14l2.39 4.36c0.46,0.87 0.77,1.24 1.2,2.03l10.73 19.74 88.33 0 -2.75 -5.33c-0.46,-0.89 -0.9,-1.8 -1.37,-2.67 -0.52,-0.97 -1,-1.65 -1.57,-2.76 -0.51,-0.99 -0.86,-1.67 -1.37,-2.66l-34.49 -64.19c-0.53,-1.03 -0.99,-1.73 -1.56,-2.75 -1.05,-1.88 -1.85,-3.69 -2.84,-5.51 4.48,-2.92 6.01,-3.72 10.37,-7.28 5.96,-4.87 12.43,-12.13 16.76,-18.43 2.54,-3.69 4.41,-7.18 6.53,-11.27 1.6,-3.08 4.03,-9.09 5.02,-12.47 6.07,-20.74 6.02,-40.82 0.67,-61.76 -0.58,-2.27 -1.3,-4.55 -2.1,-6.77 -2.42,-6.72 -6.24,-14.41 -10.6,-20.13 -2.84,-3.71 -6.9,-8.77 -10.5,-11.69l-10.27 -7.65c-5.75,-3.72 -11.23,-6.39 -17.96,-8.73 -1.97,-0.69 -12.34,-4.03 -14.34,-3.52l-3.23 -0.56 -4.41 -0.51c-7.57,-0.65 -17.06,-0.18 -24.83,-0.18 -8.17,0 -16.33,0 -24.5,0 -49.06,0 -98.9,-0.4 -147.78,0l0.01 256.56 81.65 -0.04 0.07 -72.29 67.62 0.13z"/>
   <path class="fil1" d="M208.99 254.17c-0.23,0.55 -0.38,0.43 0.17,0.5 -0.18,0.78 -0.16,0.29 0.31,0.5 -0.23,0.82 -0.21,0.33 0.3,0.5 -0.27,0.85 -0.25,0.37 0.3,0.5 -0.31,0.88 -0.3,0.41 0.3,0.49 -0.23,0.43 -0.37,0.36 0.09,0.36l-0.09 -0.36 -0.3 -0.49 -0.3 -0.5 -0.3 -0.5 -0.31 -0.5 -0.17 -0.5 -67.62 -0.13 -0.07 72.29 -81.65 0.04 -0.01 -256.56c48.88,-0.4 98.72,0 147.78,0 8.17,0 16.33,0 24.5,0 7.77,0 17.26,-0.47 24.83,0.18l4.41 0.51 3.23 0.56c-0.71,-0.73 0.3,0 -0.61,-0.36 -0.06,-0.03 -0.91,-0.24 -0.91,-0.25 -0.94,-0.15 -0.78,-0.18 -1.71,0.05 -0.06,-0.05 -0.17,-0.19 -0.22,-0.12 -0.04,0.06 -0.16,-0.09 -0.22,-0.12l-1.67 -0.36c-1.02,-0.13 -1.34,-0.18 -2.3,0.09 -0.67,-0.6 -0.19,-0.49 -2.82,-0.45 -14.87,0.21 -31.31,0 -46.23,0 -49.44,0 -98.88,0 -148.33,0l0 257.09 82.28 0 0 -72.27c4.49,0 64.63,0.38 67.34,-0.19z"/>
  </g>
  <rect class="fil2" width="396.14" height="396.14"/>
 </g>
</svg>
