<?xml version="1.0" encoding="UTF-8"?>
<!DOCTYPE svg PUBLIC "-//W3C//DTD SVG 1.1//EN" "http://www.w3.org/Graphics/SVG/1.1/DTD/svg11.dtd">
<!-- Creator: CorelDRAW -->
<svg xmlns="http://www.w3.org/2000/svg" xml:space="preserve" width="500px" height="500px" version="1.1" style="shape-rendering:geometricPrecision; text-rendering:geometricPrecision; image-rendering:optimizeQuality; fill-rule:evenodd; clip-rule:evenodd"
viewBox="0 0 577.05 577.05"
 xmlns:xlink="http://www.w3.org/1999/xlink"
 xmlns:xodm="http://www.corel.com/coreldraw/odm/2003">
 <defs>
  <style type="text/css">
   <![CDATA[
    .fil1 {fill:#FEFEFE}
    .fil0 {fill:#B83020}
   ]]>
  </style>
 </defs>
 <g id="Livello_x0020_1">
  <metadata id="CorelCorpID_0Corel-Layer"/>
  <rect class="fil0" width="577.05" height="577.05"/>
  <g id="_2092566565680">
   <path class="fil1" d="M330.13 263.66c-3.08,1.49 -77.29,0.82 -90.99,0.82 -9.69,0 -21.22,0.56 -30.68,-0.07l-0.06 -61.44c9,-0.71 20.69,-0.08 29.96,-0.08 13.03,0 87.55,-0.49 89.78,0.5 4.16,1.87 4.91,-1.01 16.38,7.77 2.87,2.2 5.92,6.82 7.39,10.12 4.56,10.23 2.87,23.74 -4.38,31.78 -1.58,1.76 -1.53,2 -3.45,3.55 -8.46,6.79 -10.7,5.5 -13.95,7.05zm-26.18 106.67l0.25 0.72 0.43 0.73 0.43 0.73 0.42 0.73 0.43 0.72 0.13 0.53 9.83 18.93c0.63,1.12 0.97,1.94 1.55,3.11 0.68,1.36 1.2,2.02 1.83,3.23 6.36,12.23 14.37,26.32 20.21,38.12l3.37 6.35c0.65,1.29 1.1,1.82 1.7,2.98l15.16 28.78 124.83 0 -3.89 -7.78c-0.65,-1.29 -1.28,-2.62 -1.94,-3.89 -0.74,-1.42 -1.41,-2.4 -2.21,-4.02 -0.72,-1.45 -1.22,-2.43 -1.95,-3.89l-48.73 -93.59c-0.75,-1.5 -1.41,-2.52 -2.21,-4.01 -1.48,-2.74 -2.61,-5.39 -4.02,-8.04 6.35,-4.25 8.5,-5.42 14.67,-10.62 8.42,-7.09 17.56,-17.68 23.68,-26.86 3.59,-5.39 6.22,-10.47 9.23,-16.44 2.25,-4.49 5.69,-13.26 7.09,-18.18 8.58,-30.25 8.5,-59.52 0.94,-90.06 -0.82,-3.31 -1.83,-6.64 -2.96,-9.87 -3.42,-9.8 -8.82,-21.01 -14.99,-29.35 -4,-5.41 -9.74,-12.79 -14.83,-17.05l-14.51 -11.16c-8.12,-5.42 -15.86,-9.31 -25.38,-12.73 -2.79,-1 -17.43,-5.87 -20.27,-5.13l-4.56 -0.81 -6.23 -0.75c-10.7,-0.95 -24.1,-0.27 -35.09,-0.27 -11.54,0 -23.08,0 -34.61,0 -69.33,0 -139.77,-0.56 -208.84,0.01l0.01 374.11 115.38 -0.06 0.1 -105.42 95.55 0.2z"/>
   <path class="fil1" d="M303.95 370.33c-0.32,0.8 -0.53,0.63 0.25,0.72 -0.25,1.15 -0.23,0.43 0.43,0.73 -0.32,1.19 -0.29,0.49 0.43,0.73 -0.38,1.24 -0.36,0.54 0.42,0.73 -0.43,1.29 -0.42,0.6 0.43,0.72 -0.33,0.63 -0.52,0.53 0.13,0.53l-0.13 -0.53 -0.43 -0.72 -0.42 -0.73 -0.43 -0.73 -0.43 -0.73 -0.25 -0.72 -95.55 -0.2 -0.1 105.42 -115.38 0.06 -0.01 -374.11c69.07,-0.57 139.51,-0.01 208.84,-0.01 11.53,0 23.07,0 34.61,0 10.99,0 24.39,-0.68 35.09,0.27l6.23 0.75 4.56 0.81c-1,-1.06 0.42,0 -0.85,-0.52 -0.1,-0.04 -1.29,-0.36 -1.3,-0.36 -1.33,-0.22 -1.1,-0.27 -2.41,0.07 -0.09,-0.08 -0.25,-0.27 -0.31,-0.18 -0.06,0.1 -0.23,-0.13 -0.31,-0.16l-2.37 -0.53c-1.43,-0.2 -1.88,-0.27 -3.24,0.12 -0.95,-0.87 -0.27,-0.71 -3.98,-0.65 -21.02,0.31 -44.25,0 -65.34,0 -69.86,0 -139.73,0 -209.6,0l0 374.88 116.27 0 0 -105.39c6.34,0 91.33,0.56 95.15,-0.27z"/>
  </g>
 </g>
</svg>
