<?xml version="1.0" encoding="UTF-8"?>
<!DOCTYPE svg PUBLIC "-//W3C//DTD SVG 1.1//EN" "http://www.w3.org/Graphics/SVG/1.1/DTD/svg11.dtd">
<!-- Creator: CorelDRAW -->
<svg xmlns="http://www.w3.org/2000/svg" xml:space="preserve" width="500px" height="500px" version="1.1" style="shape-rendering:geometricPrecision; text-rendering:geometricPrecision; image-rendering:optimizeQuality; fill-rule:evenodd; clip-rule:evenodd"
viewBox="0 0 200 200"
 xmlns:xlink="http://www.w3.org/1999/xlink"
 xmlns:xodm="http://www.corel.com/coreldraw/odm/2003">
 <defs>
  <style type="text/css">
   <![CDATA[
    .fil0 {fill:#FEFEFE}
    .fil1 {fill:#2B2A29}
    .fil5 {fill:#E31E24}
    .fil2 {fill:#2B2A29;fill-rule:nonzero}
    .fil3 {fill:url(#id0)}
    .fil4 {fill:url(#id1)}
   ]]>
  </style>
  <linearGradient id="id0" gradientUnits="userSpaceOnUse" x1="79.17" y1="83.09" x2="83.19" y2="68.11">
   <stop offset="0" style="stop-opacity:1; stop-color:#D9DADA"/>
   <stop offset="1" style="stop-opacity:1; stop-color:#FEFEFE"/>
  </linearGradient>
  <linearGradient id="id1" gradientUnits="userSpaceOnUse" xlink:href="#id0" x1="118.21" y1="84.24" x2="136.25" y2="92.74">
  </linearGradient>
 </defs>
 <g id="Livello_x0020_1">
  <metadata id="CorelCorpID_0Corel-Layer"/>
  <rect class="fil0" width="200" height="200"/>
  <g id="idiota">
   <g>
    <path class="fil1" d="M40.3 68.59c27.06,54.8 65.66,57.06 104.57,57.9 -53.28,59.99 -139.99,38.69 -104.57,-57.9z"/>
    <path id="_1" class="fil2" d="M145.47 127.03l-1.21 -1.08 0.59 1.35 -3.65 -0.09 -3.65 -0.1 -3.64 -0.13 -3.64 -0.16 -3.63 -0.22 -3.62 -0.26 -3.61 -0.34 -3.59 -0.4 -3.58 -0.49 -3.56 -0.59 -3.54 -0.69 -3.51 -0.8 -3.5 -0.92 -3.46 -1.05 -3.44 -1.2 -3.4 -1.34 -3.37 -1.51 -3.34 -1.67 -3.29 -1.85 -3.26 -2.05 -3.21 -2.24 -3.16 -2.44 -3.12 -2.66 -3.07 -2.89 -3.01 -3.12 -2.96 -3.36 -2.9 -3.62 -2.84 -3.87 -2.78 -4.15 -2.71 -4.42 -2.65 -4.72 -2.59 -5.01 1.45 -0.71 2.56 4.96 2.62 4.66 2.69 4.37 2.74 4.09 2.8 3.82 2.85 3.56 2.91 3.3 2.96 3.07 3.01 2.83 3.06 2.61 3.1 2.4 3.15 2.19 3.18 2 3.23 1.82 3.27 1.64 3.3 1.48 3.35 1.32 3.37 1.17 3.41 1.04 3.43 0.9 3.47 0.79 3.49 0.68 3.51 0.57 3.54 0.49 3.56 0.4 3.58 0.33 3.59 0.27 3.61 0.21 3.62 0.16 3.63 0.13 3.63 0.11 3.65 0.08 0.58 1.35zm-0.58 -1.35l1.75 0.04 -1.17 1.31 -0.58 -1.35zm-103.87 -57.45l-1.45 0.71 1.49 -0.08 -2.95 8.8 -2.27 8.34 -1.61 7.9 -0.99 7.44 -0.38 7 0.18 6.54 0.72 6.09 1.22 5.64 1.71 5.18 2.15 4.73 2.58 4.29 2.96 3.83 3.33 3.39 3.67 2.94 3.98 2.49 4.27 2.05 4.53 1.6 4.76 1.14 4.97 0.7 5.14 0.24 5.29 -0.22 5.42 -0.67 5.51 -1.14 5.57 -1.59 5.6 -2.07 5.62 -2.53 5.59 -2.99 5.54 -3.46 5.47 -3.94 5.35 -4.4 5.22 -4.88 5.05 -5.35 1.21 1.08 -5.12 5.42 -5.29 4.95 -5.44 4.47 -5.54 3.99 -5.64 3.52 -5.68 3.05 -5.72 2.57 -5.72 2.1 -5.69 1.64 -5.63 1.16 -5.54 0.69 -5.43 0.22 -5.29 -0.25 -5.12 -0.71 -4.92 -1.19 -4.69 -1.66 -4.43 -2.12 -4.14 -2.59 -3.81 -3.06 -3.47 -3.53 -3.08 -3.98 -2.67 -4.45 -2.23 -4.89 -1.76 -5.35 -1.26 -5.79 -0.74 -6.24 -0.18 -6.69 0.39 -7.12 1 -7.56 1.63 -8.01 2.3 -8.44 2.98 -8.87 1.48 -0.08zm-1.48 0.08l0.65 -1.78 0.83 1.7 -1.48 0.08z"/>
   </g>
   <g>
    <path class="fil3" d="M86.6 40c13.57,0 23.49,11.21 22.17,25.04 -1.33,13.83 -13.39,25.05 -26.96,25.05 -13.56,0 -23.48,-11.22 -22.16,-25.05 1.32,-13.83 13.39,-25.04 26.95,-25.04z"/>
    <path id="_1_61" class="fil2" d="M109.57 65.12l-1.61 -0.15 0 0 0.09 -1.25 0.02 -1.23 -0.03 -1.22 -0.09 -1.19 -0.16 -1.17 -0.21 -1.15 -0.26 -1.12 -0.32 -1.1 -0.37 -1.07 -0.43 -1.04 -0.47 -1.01 -0.52 -0.98 -0.57 -0.95 -0.62 -0.91 -0.66 -0.87 -0.7 -0.84 -0.74 -0.8 -0.79 -0.75 -0.82 -0.72 -0.87 -0.67 -0.89 -0.63 -0.94 -0.58 -0.97 -0.53 -1 -0.48 -1.03 -0.44 -1.06 -0.38 -1.1 -0.32 -1.11 -0.27 -1.15 -0.21 -1.17 -0.16 -1.2 -0.09 -1.22 -0.03 0 -1.62 1.31 0.03 1.28 0.1 1.25 0.17 1.23 0.23 1.21 0.29 1.17 0.35 1.14 0.4 1.12 0.47 1.08 0.52 1.04 0.57 1.01 0.63 0.97 0.68 0.93 0.72 0.88 0.77 0.85 0.82 0.8 0.86 0.76 0.9 0.71 0.94 0.66 0.98 0.62 1.02 0.56 1.06 0.51 1.08 0.45 1.12 0.4 1.15 0.34 1.18 0.29 1.2 0.22 1.23 0.17 1.25 0.1 1.28 0.03 1.29 -0.02 1.31 -0.1 1.33 0 0zm-27.76 25.78l0 -1.62 0 0 1.23 -0.04 1.21 -0.09 1.21 -0.15 1.19 -0.22 1.17 -0.27 1.16 -0.32 1.15 -0.39 1.12 -0.43 1.1 -0.49 1.08 -0.53 1.05 -0.59 1.03 -0.63 1 -0.68 0.97 -0.72 0.94 -0.77 0.91 -0.8 0.87 -0.85 0.84 -0.88 0.79 -0.92 0.76 -0.95 0.71 -0.99 0.68 -1.02 0.62 -1.05 0.58 -1.08 0.54 -1.1 0.48 -1.13 0.43 -1.15 0.38 -1.18 0.32 -1.2 0.27 -1.21 0.21 -1.23 0.15 -1.25 1.61 0.15 -0.16 1.33 -0.22 1.31 -0.28 1.29 -0.35 1.27 -0.4 1.25 -0.46 1.22 -0.51 1.2 -0.56 1.17 -0.62 1.14 -0.66 1.11 -0.71 1.08 -0.76 1.04 -0.8 1.01 -0.85 0.98 -0.88 0.93 -0.92 0.89 -0.96 0.86 -0.99 0.81 -1.03 0.76 -1.06 0.72 -1.09 0.67 -1.11 0.62 -1.15 0.57 -1.17 0.52 -1.19 0.46 -1.22 0.4 -1.23 0.35 -1.26 0.29 -1.27 0.23 -1.28 0.16 -1.3 0.1 -1.31 0.04 0 0zm-22.97 -25.93l1.61 0.15 0 0 -0.08 1.25 -0.03 1.23 0.04 1.21 0.09 1.2 0.15 1.17 0.21 1.14 0.27 1.13 0.32 1.09 0.37 1.08 0.42 1.04 0.48 1.01 0.52 0.98 0.57 0.94 0.61 0.91 0.66 0.88 0.7 0.83 0.75 0.8 0.79 0.76 0.82 0.72 0.86 0.67 0.9 0.62 0.93 0.58 0.97 0.54 1 0.48 1.04 0.43 1.06 0.38 1.09 0.33 1.12 0.26 1.15 0.22 1.17 0.15 1.19 0.09 1.22 0.04 0 1.62 -1.3 -0.04 -1.28 -0.1 -1.26 -0.16 -1.23 -0.23 -1.2 -0.29 -1.17 -0.35 -1.15 -0.41 -1.11 -0.46 -1.08 -0.52 -1.04 -0.58 -1.01 -0.62 -0.97 -0.68 -0.93 -0.72 -0.89 -0.78 -0.84 -0.81 -0.81 -0.86 -0.76 -0.9 -0.71 -0.95 -0.66 -0.98 -0.61 -1.02 -0.56 -1.05 -0.51 -1.09 -0.46 -1.11 -0.39 -1.15 -0.35 -1.18 -0.28 -1.2 -0.23 -1.23 -0.16 -1.25 -0.1 -1.28 -0.04 -1.29 0.03 -1.32 0.09 -1.32 0 0zm27.76 -25.78l0 1.62 0 0 -1.22 0.03 -1.22 0.09 -1.2 0.16 -1.19 0.21 -1.18 0.27 -1.16 0.33 -1.14 0.38 -1.12 0.44 -1.11 0.48 -1.08 0.54 -1.05 0.59 -1.03 0.63 -1 0.67 -0.97 0.73 -0.94 0.76 -0.9 0.81 -0.87 0.84 -0.84 0.89 -0.8 0.92 -0.75 0.95 -0.72 0.99 -0.67 1.02 -0.63 1.05 -0.58 1.07 -0.53 1.11 -0.48 1.13 -0.43 1.15 -0.38 1.18 -0.33 1.19 -0.26 1.22 -0.22 1.23 -0.15 1.25 -1.61 -0.15 0.16 -1.33 0.23 -1.31 0.28 -1.29 0.34 -1.27 0.41 -1.25 0.45 -1.23 0.52 -1.19 0.56 -1.17 0.62 -1.14 0.66 -1.11 0.71 -1.08 0.76 -1.05 0.8 -1.01 0.84 -0.97 0.88 -0.93 0.92 -0.9 0.96 -0.85 1 -0.81 1.02 -0.76 1.06 -0.72 1.09 -0.67 1.12 -0.62 1.15 -0.57 1.17 -0.52 1.19 -0.46 1.21 -0.41 1.24 -0.35 1.25 -0.28 1.27 -0.23 1.29 -0.17 1.29 -0.1 1.31 -0.03 0 0z"/>
   </g>
   <g>
    <path class="fil4" d="M142 64.06c15.56,0 27.14,11.85 25.87,26.48 -1.28,14.62 -14.92,26.47 -30.47,26.47 -15.56,0 -27.14,-11.85 -25.86,-26.47 1.27,-14.63 14.91,-26.48 30.46,-26.48z"/>
    <path id="_1_62" class="fil2" d="M168.68 90.61l-1.62 -0.14 0 0 0.08 -1.32 0 -1.3 -0.06 -1.28 -0.13 -1.26 -0.19 -1.24 -0.27 -1.21 -0.32 -1.19 -0.39 -1.16 -0.44 -1.13 -0.51 -1.11 -0.56 -1.07 -0.61 -1.03 -0.68 -1.01 -0.72 -0.96 -0.77 -0.93 -0.83 -0.89 -0.87 -0.85 -0.92 -0.8 -0.96 -0.76 -1.01 -0.72 -1.05 -0.66 -1.09 -0.62 -1.12 -0.57 -1.17 -0.51 -1.2 -0.46 -1.23 -0.4 -1.27 -0.35 -1.29 -0.29 -1.33 -0.22 -1.36 -0.16 -1.38 -0.11 -1.41 -0.03 0.01 -1.62 1.48 0.04 1.46 0.1 1.44 0.18 1.4 0.24 1.38 0.3 1.34 0.37 1.31 0.42 1.28 0.49 1.24 0.55 1.2 0.6 1.16 0.66 1.11 0.71 1.08 0.76 1.03 0.82 0.98 0.86 0.93 0.9 0.88 0.95 0.83 0.99 0.77 1.04 0.72 1.07 0.66 1.11 0.61 1.15 0.54 1.18 0.47 1.22 0.42 1.24 0.35 1.27 0.28 1.3 0.21 1.33 0.13 1.34 0.07 1.37 -0.01 1.39 -0.08 1.4 0 0.01zm-31.28 27.21l0 -1.62 0 0 1.41 -0.03 1.4 -0.1 1.39 -0.17 1.37 -0.22 1.35 -0.29 1.33 -0.35 1.31 -0.4 1.29 -0.46 1.26 -0.52 1.23 -0.57 1.21 -0.62 1.17 -0.67 1.14 -0.72 1.1 -0.77 1.07 -0.81 1.02 -0.85 0.99 -0.9 0.94 -0.93 0.9 -0.98 0.85 -1.01 0.81 -1.04 0.75 -1.08 0.7 -1.11 0.65 -1.14 0.59 -1.17 0.53 -1.19 0.48 -1.22 0.41 -1.24 0.35 -1.27 0.29 -1.28 0.22 -1.3 0.15 -1.32 1.62 0.14 -0.16 1.4 -0.24 1.39 -0.3 1.36 -0.37 1.35 -0.44 1.31 -0.5 1.3 -0.57 1.27 -0.63 1.23 -0.68 1.21 -0.74 1.17 -0.8 1.14 -0.85 1.1 -0.9 1.07 -0.94 1.03 -1 0.98 -1.04 0.95 -1.08 0.89 -1.12 0.86 -1.16 0.8 -1.2 0.76 -1.24 0.71 -1.26 0.65 -1.3 0.6 -1.33 0.55 -1.35 0.48 -1.38 0.43 -1.4 0.37 -1.43 0.3 -1.44 0.24 -1.46 0.17 -1.48 0.1 -1.49 0.04 0 0zm-26.68 -27.35l1.63 0.13 0 0 -0.08 1.32 -0.01 1.31 0.06 1.28 0.13 1.25 0.2 1.24 0.26 1.22 0.32 1.18 0.39 1.17 0.44 1.13 0.51 1.1 0.56 1.07 0.62 1.04 0.67 1 0.72 0.96 0.78 0.93 0.82 0.89 0.87 0.85 0.92 0.8 0.96 0.76 1.01 0.72 1.05 0.66 1.09 0.62 1.12 0.57 1.17 0.51 1.2 0.46 1.23 0.4 1.27 0.35 1.3 0.29 1.32 0.22 1.36 0.17 1.38 0.1 1.41 0.03 0 1.62 -1.49 -0.04 -1.46 -0.1 -1.44 -0.17 -1.4 -0.24 -1.38 -0.31 -1.34 -0.36 -1.31 -0.43 -1.28 -0.49 -1.24 -0.55 -1.2 -0.6 -1.15 -0.66 -1.12 -0.71 -1.08 -0.76 -1.03 -0.81 -0.98 -0.86 -0.93 -0.91 -0.88 -0.95 -0.83 -0.99 -0.77 -1.04 -0.72 -1.07 -0.66 -1.11 -0.6 -1.15 -0.54 -1.18 -0.48 -1.21 -0.42 -1.25 -0.35 -1.27 -0.27 -1.3 -0.21 -1.32 -0.14 -1.35 -0.07 -1.37 0.01 -1.39 0.08 -1.4 0 0zm31.29 -27.22l-0.01 1.62 0 0 -1.41 0.03 -1.4 0.11 -1.39 0.16 -1.37 0.23 -1.35 0.28 -1.33 0.35 -1.31 0.41 -1.29 0.46 -1.26 0.51 -1.23 0.57 -1.2 0.63 -1.18 0.67 -1.13 0.72 -1.11 0.76 -1.06 0.81 -1.03 0.86 -0.99 0.89 -0.94 0.94 -0.9 0.97 -0.85 1.01 -0.81 1.04 -0.75 1.08 -0.7 1.11 -0.65 1.14 -0.59 1.17 -0.53 1.19 -0.48 1.22 -0.41 1.25 -0.35 1.26 -0.28 1.28 -0.22 1.3 -0.15 1.32 -1.63 -0.13 0.16 -1.41 0.24 -1.38 0.3 -1.37 0.37 -1.34 0.44 -1.32 0.5 -1.3 0.57 -1.26 0.63 -1.24 0.68 -1.21 0.74 -1.17 0.8 -1.14 0.85 -1.1 0.9 -1.07 0.95 -1.03 0.99 -0.98 1.04 -0.94 1.08 -0.9 1.12 -0.86 1.16 -0.8 1.2 -0.76 1.24 -0.7 1.26 -0.66 1.3 -0.6 1.33 -0.54 1.35 -0.49 1.38 -0.43 1.41 -0.36 1.42 -0.31 1.44 -0.23 1.47 -0.18 1.47 -0.1 1.5 -0.04 0 0z"/>
   </g>
   <ellipse class="fil1" transform="matrix(0.365474 -0 -0.0307758 0.323876 98.9873 68.8539)" rx="13.47" ry="18.79"/>
   <ellipse class="fil1" transform="matrix(0.332339 -0 -0.09118 0.323876 123.592 82.4527)" rx="13.47" ry="18.79"/>
   <g>
    <path class="fil5" d="M32.15 105.25c-1.47,28.98 11.98,46.6 31.39,52.52 1.15,-4.16 1.78,-8.64 1.78,-13.32 0,-21.74 -13.62,-39.36 -30.42,-39.36 -0.93,0 -1.85,0.05 -2.75,0.16z"/>
    <path id="_1_63" class="fil2" d="M62.76 157.55l1.56 0.43 -1.02 0.56 -1.83 -0.6 -1.8 -0.67 -1.75 -0.74 -1.72 -0.8 -1.68 -0.88 -1.63 -0.95 -1.59 -1.02 -1.54 -1.09 -1.49 -1.16 -1.44 -1.22 -1.39 -1.3 -1.34 -1.36 -1.28 -1.44 -1.22 -1.5 -1.16 -1.58 -1.1 -1.64 -1.05 -1.7 -0.97 -1.78 -0.91 -1.85 -0.84 -1.91 -0.77 -1.98 -0.7 -2.04 -0.63 -2.12 -0.55 -2.18 -0.48 -2.25 -0.4 -2.31 -0.32 -2.38 -0.25 -2.44 -0.16 -2.51 -0.07 -2.58 0 -2.65 0.1 -2.7 1.62 0.08 -0.1 2.66 0 2.59 0.07 2.52 0.16 2.46 0.23 2.38 0.32 2.33 0.39 2.25 0.46 2.18 0.54 2.12 0.61 2.05 0.68 1.99 0.75 1.91 0.81 1.85 0.88 1.78 0.94 1.72 1 1.64 1.06 1.58 1.12 1.51 1.17 1.45 1.24 1.38 1.28 1.31 1.33 1.25 1.39 1.18 1.43 1.11 1.48 1.05 1.53 0.98 1.58 0.91 1.61 0.84 1.65 0.78 1.7 0.72 1.74 0.64 1.77 0.58 -1.02 0.56zm1.56 0.43l-0.22 0.8 -0.8 -0.24 1.02 -0.56zm0.19 -13.53l1.62 0 0 0 0 0.45 0 0.44 -0.01 0.44 -0.02 0.44 -0.01 0.44 -0.02 0.44 -0.03 0.44 -0.02 0.43 -0.04 0.44 -0.03 0.43 -0.04 0.43 -0.04 0.43 -0.05 0.43 -0.04 0.43 -0.06 0.43 -0.05 0.42 -0.06 0.42 -0.06 0.43 -0.07 0.42 -0.07 0.41 -0.07 0.42 -0.08 0.42 -0.08 0.41 -0.08 0.41 -0.09 0.41 -0.09 0.41 -0.09 0.41 -0.1 0.4 -0.09 0.4 -0.11 0.41 -0.1 0.39 -0.11 0.4 -1.56 -0.43 0.11 -0.38 0.1 -0.39 0.1 -0.39 0.09 -0.39 0.09 -0.39 0.09 -0.39 0.09 -0.4 0.08 -0.39 0.08 -0.4 0.08 -0.4 0.07 -0.4 0.07 -0.41 0.07 -0.4 0.07 -0.41 0.06 -0.41 0.05 -0.41 0.06 -0.41 0.05 -0.41 0.05 -0.41 0.04 -0.42 0.04 -0.42 0.04 -0.41 0.03 -0.42 0.03 -0.43 0.03 -0.42 0.02 -0.42 0.02 -0.43 0.02 -0.42 0.01 -0.43 0.01 -0.43 0 -0.43 0 -0.43 0 0zm-29.61 -38.55l0 -1.62 0 0 1.61 0.05 1.6 0.16 1.58 0.26 1.54 0.36 1.53 0.45 1.49 0.55 1.45 0.64 1.43 0.72 1.39 0.81 1.35 0.9 1.3 0.97 1.27 1.05 1.22 1.13 1.18 1.19 1.13 1.27 1.08 1.33 1.03 1.4 0.98 1.46 0.92 1.52 0.87 1.57 0.8 1.63 0.75 1.68 0.68 1.72 0.62 1.78 0.56 1.82 0.48 1.86 0.42 1.9 0.35 1.93 0.27 1.97 0.19 2 0.12 2.03 0.04 2.06 -1.62 0 -0.03 -1.99 -0.12 -1.97 -0.19 -1.94 -0.26 -1.91 -0.34 -1.87 -0.4 -1.83 -0.47 -1.8 -0.54 -1.76 -0.59 -1.71 -0.66 -1.67 -0.72 -1.62 -0.78 -1.56 -0.83 -1.51 -0.89 -1.46 -0.93 -1.4 -0.99 -1.34 -1.03 -1.27 -1.08 -1.21 -1.12 -1.14 -1.16 -1.07 -1.21 -1 -1.23 -0.92 -1.28 -0.84 -1.31 -0.77 -1.34 -0.68 -1.37 -0.6 -1.39 -0.51 -1.43 -0.43 -1.45 -0.33 -1.47 -0.25 -1.49 -0.14 -1.51 -0.05 0 0zm-1.94 -0.61l-1.62 -0.08 0.72 -0.77 0.17 -0.02 0.18 -0.02 0.17 -0.01 0.18 -0.02 0.18 -0.01 0.17 -0.02 0.18 -0.01 0.18 -0.01 0.18 -0.01 0.17 -0.01 0.18 -0.01 0.18 0 0.18 -0.01 0.18 0 0.18 0 0.18 0 0 1.62 -0.17 0 -0.17 0 -0.17 0 -0.16 0.01 -0.17 0 -0.17 0.01 -0.16 0.01 -0.17 0.01 -0.17 0.01 -0.16 0.01 -0.17 0.01 -0.16 0.01 -0.17 0.02 -0.16 0.01 -0.16 0.02 -0.17 0.02 0.72 -0.76zm-1.62 -0.08l0.03 -0.69 0.69 -0.08 -0.72 0.77z"/>
   </g>
  </g>
 </g>
</svg>
