<?xml version="1.0" encoding="UTF-8"?>
<!DOCTYPE svg PUBLIC "-//W3C//DTD SVG 1.1//EN" "http://www.w3.org/Graphics/SVG/1.1/DTD/svg11.dtd">
<!-- Creator: CorelDRAW -->
<svg xmlns="http://www.w3.org/2000/svg" xml:space="preserve" width="1500px" height="1087px" version="1.1" style="shape-rendering:geometricPrecision; text-rendering:geometricPrecision; image-rendering:optimizeQuality; fill-rule:evenodd; clip-rule:evenodd"
viewBox="0 0 1500 1086.55"
 xmlns:xlink="http://www.w3.org/1999/xlink"
 xmlns:xodm="http://www.corel.com/coreldraw/odm/2003">
 <defs>
  <style type="text/css">
   <![CDATA[
    .fil4 {fill:#2B2A29}
    .fil7 {fill:#E31E24}
    .fil1 {fill:#008DD2}
    .fil0 {fill:#FEFEFE;fill-rule:nonzero}
    .fil2 {fill:#2B2A29;fill-rule:nonzero}
    .fil3 {fill:url(#id0)}
    .fil5 {fill:url(#id1)}
    .fil15 {fill:url(#id2)}
    .fil6 {fill:url(#id3)}
    .fil14 {fill:url(#id4)}
    .fil13 {fill:url(#id5);fill-rule:nonzero}
    .fil9 {fill:url(#id6);fill-rule:nonzero}
    .fil18 {fill:url(#id7);fill-rule:nonzero}
    .fil12 {fill:url(#id8);fill-rule:nonzero}
    .fil16 {fill:url(#id9);fill-rule:nonzero}
    .fil10 {fill:url(#id10);fill-rule:nonzero}
    .fil8 {fill:url(#id11);fill-rule:nonzero}
    .fil17 {fill:url(#id12);fill-rule:nonzero}
    .fil11 {fill:url(#id13);fill-rule:nonzero}
   ]]>
  </style>
  <linearGradient id="id0" gradientUnits="userSpaceOnUse" x1="622.59" y1="272.76" x2="538.13" y2="489.19">
   <stop offset="0" style="stop-opacity:1; stop-color:#0096DB"/>
   <stop offset="1" style="stop-opacity:1; stop-color:#0075AC"/>
  </linearGradient>
  <linearGradient id="id1" gradientUnits="userSpaceOnUse" x1="627.38" y1="183.55" x2="633.54" y2="160.56">
   <stop offset="0" style="stop-opacity:1; stop-color:#D9DADA"/>
   <stop offset="1" style="stop-opacity:1; stop-color:#FEFEFE"/>
  </linearGradient>
  <linearGradient id="id2" gradientUnits="userSpaceOnUse" x1="1104.43" y1="850.71" x2="953.98" y2="280.14">
   <stop offset="0" style="stop-opacity:1; stop-color:#434242"/>
   <stop offset="1" style="stop-opacity:1; stop-color:#727271"/>
  </linearGradient>
  <linearGradient id="id3" gradientUnits="userSpaceOnUse" xlink:href="#id1" x1="687.31" y1="185.32" x2="715" y2="198.37">
  </linearGradient>
  <linearGradient id="id4" gradientUnits="userSpaceOnUse" xlink:href="#id0" x1="1217.33" y1="926.71" x2="1208.5" y2="979.21">
  </linearGradient>
  <linearGradient id="id5" gradientUnits="userSpaceOnUse" xlink:href="#id2" x1="988.85" y1="838.22" x2="891.56" y2="627.16">
  </linearGradient>
  <linearGradient id="id6" gradientUnits="userSpaceOnUse" xlink:href="#id2" x1="486.14" y1="1067.43" x2="355.41" y2="782.49">
  </linearGradient>
  <linearGradient id="id7" gradientUnits="userSpaceOnUse" xlink:href="#id2" x1="1323.48" y1="340.23" x2="1192.73" y2="55.31">
  </linearGradient>
  <linearGradient id="id8" gradientUnits="userSpaceOnUse" xlink:href="#id2" x1="887.74" y1="885.1" x2="790.45" y2="674.04">
  </linearGradient>
  <linearGradient id="id9" gradientUnits="userSpaceOnUse" xlink:href="#id2" x1="1323.48" y1="340.23" x2="1192.73" y2="55.31">
  </linearGradient>
  <linearGradient id="id10" gradientUnits="userSpaceOnUse" xlink:href="#id2" x1="580.14" y1="1023.84" x2="449.35" y2="738.94">
  </linearGradient>
  <linearGradient id="id11" gradientUnits="userSpaceOnUse" xlink:href="#id0" x1="246.56" y1="367.16" x2="133.62" y2="511.69">
  </linearGradient>
  <linearGradient id="id12" gradientUnits="userSpaceOnUse" xlink:href="#id2" x1="1323.48" y1="340.23" x2="1192.73" y2="55.31">
  </linearGradient>
  <linearGradient id="id13" gradientUnits="userSpaceOnUse" xlink:href="#id2" x1="675.62" y1="979.57" x2="544.74" y2="694.7">
  </linearGradient>
 </defs>
 <g id="Livello_x0020_1">
  <metadata id="CorelCorpID_0Corel-Layer"/>
  <path class="fil0" d="M721.26 43.59c7.03,1.19 13.77,2.75 20.23,4.66 41.57,12.27 68.4,37.76 83.06,71.95 13.13,30.61 15.23,67.22 8.65,106.28 -1.76,10.42 -4.15,21.08 -7.11,31.9 0.37,6.62 0.45,13.38 0.24,20.22 13.75,-22.87 33.94,-42.43 62.47,-56.29 1.77,-1 3.6,-1.85 5.48,-2.55 47.93,-21.43 92.16,-19.18 131.36,-0.5 -0.6,-1.08 -1.19,-2.23 -1.76,-3.48 -6.74,-14.5 -4.82,-27.75 2.29,-39.42 4.93,-8.05 12.04,-13.64 19.19,-16.95l40.44 -18.75c4.29,-1.99 8.66,-3.27 13.07,-3.81 3.54,-3.21 7.45,-5.71 11.36,-7.53l40.45 -18.75c1.31,-0.61 2.61,-1.15 3.9,-1.63 -6.12,-6.03 -11.34,-13.27 -14.95,-21.05 -6.16,-13.29 -8.1,-28.57 -5.76,-41.78 3.16,-17.83 13.3,-33.21 30.73,-41.29l0.1 -0.05c17.48,-8.06 36.11,-5.44 51.89,4.33 11.1,6.88 21.11,17.92 27.05,30.74l0.02 0.04c3.55,7.68 5.68,16.19 6.36,24.58l1.19 -0.58c0.72,-0.33 1.45,-0.64 2.18,-0.93l75.37 -34.95 -0.03 -0.06c12.68,-5.9 24.38,-5.4 35.74,-0.2 10.72,4.91 16.93,12.22 21.02,21.06 0.3,0.66 0.9,1.92 1.91,4.82 0.9,2.58 1.79,5.76 2.31,9.27l22.75 110.48c15.5,-3.91 28.54,1.68 39.18,12.94 1.63,1.73 3.07,3.57 4.33,5.49 1.9,2.67 3.44,5.39 4.64,7.96l35.36 76.27c4.47,9.63 6.06,22.9 0.37,35.76 -3.97,8.98 -10.93,17.09 -22.1,22.27l-84.13 39.01 0.03 0.06c-3.18,1.48 -6.23,2.57 -9.17,3.31 -2.42,1.72 -5.03,3.2 -7.85,4.5l-55.6 25.79c-1.55,0.72 -3.18,1.37 -4.86,1.93 -1.58,0.95 -3.19,1.8 -4.84,2.56l-39.18 18.17c-4.92,2.29 -10.07,3.59 -15,4.05 -4.8,4.1 -10.41,7.73 -17.02,10.8 -23.68,10.98 -45.64,11.41 -66.3,1.49l-1.36 -0.67c1.9,11.38 3.29,23.15 4.15,35.51 3.38,48.98 -1.91,106.05 -16.97,183.4l-0.03 0.15 0.03 0c-0.95,4.85 -1.53,9.89 -1.21,14.75 0.27,4.19 1.28,8.63 3.41,13.24l63 135.87c3.06,6.6 4.92,13.2 5.46,19.8 9.19,1.6 17.98,4.98 26.29,9.76 19.99,11.49 35.55,31.48 45.36,52.62 9.58,20.67 14.69,45.43 10.35,68.02 -4.51,23.49 -17.77,43.77 -43.59,55.74 -26.14,12.12 -49.99,9.23 -70.63,-2.39 -20.33,-11.44 -35.6,-31.66 -45.22,-52.42 -9.77,-21.06 -15.37,-45.62 -11.21,-68.45 1.15,-6.31 2.93,-12.38 5.41,-18.11 -5.3,-3.82 -9.96,-8.57 -13.75,-13.94l-0.05 0.04 -94.29 -131.6c-0.48,-0.66 -0.92,-1.33 -1.35,-2.01 -10.28,-14.2 -18.34,-28.78 -23.08,-44.55 -5.62,-18.67 -6.48,-38.06 -0.91,-58.95 14.05,-53.49 16.23,-96.52 11.3,-133.69 -4.89,-36.89 -17.15,-69.38 -31.86,-101.1l-0.01 -0.03c-8.97,-19.32 -21.58,-36.89 -35.13,-47.63 -6.81,-5.4 -12.51,-8.54 -15.1,-7.34l-0.02 0.01c-8.56,3.98 -13.73,16.55 -16.77,31.78 -7.12,35.81 -0.79,79.97 3.85,100.22 0.21,0.92 0.38,1.84 0.53,2.76 1.48,8.03 1.65,17.56 -0.63,26.41 -3.08,12.02 -9.72,22.65 -21.32,29.71 -2.98,1.94 -6.15,3.45 -9.44,4.52 -14.9,5.44 -29.55,3.27 -42.87,-5.61 -1.73,-1.15 -3.34,-2.41 -4.82,-3.76 -6.56,-5.59 -12.13,-13.02 -16.27,-21.93l-0.01 -0.03c-14.82,-31.97 -29.36,-82.06 -30.13,-131.96 -8.79,18.65 -19.81,35.79 -32.92,50.1 0.59,10.57 2.22,21.28 4.86,31.95 3.95,15.97 10.16,31.74 18.53,46.74 9.63,17.31 5.14,38.65 -9.69,50.75l0.06 0.08c-36.34,29.74 -94.53,58.44 -151.02,71.37 -46.29,10.6 -92.93,10.94 -129.65,-6.03l-18.41 0c-4.35,0 -9.01,-0.66 -13.65,-2.19 -5.33,1.42 -11.09,2.19 -17.3,2.19 -18.73,0 -34.32,-4.73 -47.09,-19.12 -14.49,14.15 -31.83,19.12 -50.43,19.12 -12.33,0 -24.12,-2.21 -34.89,-7.88l-2.07 1.34 0.03 0.05c-7.43,4.63 -14.9,6.49 -23.05,6.49l-51.08 0c-1.42,0 -2.87,-0.07 -4.34,-0.22 -1.53,0.15 -3.05,0.22 -4.56,0.22l-35.99 0c-4.45,0 -8.81,-0.73 -12.87,-1.98 -5.11,1.28 -10.59,1.98 -16.54,1.98 -10.45,0 -20.93,-1.21 -30.73,-6.22 -6.34,3.9 -13.88,6.22 -22.52,6.22l-72.91 0c-12.48,0 -22.72,-4.97 -30.4,-12.6l-0.94 -0.97c-7.92,-8.39 -11.86,-19.19 -11.86,-29.63 0,-17.42 6.74,-24.4 13.67,-31.07 0.67,-0.75 1.36,-1.46 2.07,-2.15l-0.02 -0.01 5.64 -5.45 0 -265.35 -5.64 -5.45c-0.79,-0.76 -1.55,-1.55 -2.26,-2.36 -6.86,-6.61 -13.46,-13.6 -13.46,-30.87 0,-10.92 4.2,-22.16 12.64,-30.6 7.63,-7.63 17.91,-12.6 30.56,-12.6l72.91 0c12.65,0 22.93,4.97 30.56,12.6 8.42,8.42 12.64,19.66 12.64,30.6 0,17.06 -6.47,24.12 -13.25,30.67 -1.11,1.27 -2.28,2.46 -3.51,3.56l-4.6 4.45 0 58.53c5.79,-3.18 11.75,-5.08 17.69,-6.14l0 -2.04 -1.76 -1.79c-1.81,-1.82 -3.43,-3.73 -4.81,-5.68 -5.17,-7.23 -8.13,-16.07 -8.13,-24.75 0,-18.06 8.66,-29.94 23.19,-37.21l0.06 -0.03 -0.06 -0.12c6.57,-3.28 13.33,-4.6 19.93,-4.6l36.76 0c8.6,0 16.27,2.2 23.01,6.59 7.32,-4.2 15.72,-6.59 24.98,-6.59 18.19,0 33.18,9.46 43.01,23.93 7.01,10.31 11.34,23.77 11.34,36.99 0,7.57 -1.49,15.35 -4.12,22.57 11,-5.9 23.06,-8.42 35.68,-8.42 12.29,0 24.03,2.35 34.76,7.85 2,-1.41 4.18,-2.72 6.55,-3.92 0.57,-4.38 0.7,-9.24 0.7,-13.05 0,-10.76 3.93,-21.09 11.13,-29.2l0.08 -0.09 -0.08 -0.07c8.02,-9.03 19.06,-14.54 32.38,-14.54l7.18 0c4.9,-20.12 10.82,-39.94 17.85,-59.01 -2.99,-2.37 -6.29,-4.49 -9.76,-5.91 -6.72,-2.76 -14.78,-4.89 -22.07,-6.81 -28.91,-7.61 -51.7,-13.62 -62.62,-47.24 -3.93,-12.11 -4.3,-24.47 -1.58,-36.62 3.99,-17.83 14.67,-34.35 30.12,-47.76 13,-11.28 29.77,-20.75 48.71,-26.9 25.65,-8.33 56.11,-10.91 87.28,-3.93 14.27,3.2 27.13,8.86 38.36,15.51 2.85,1.69 5.61,3.44 8.27,5.24 15.51,-8.99 32.29,-15.91 50.41,-20.39 26.96,-6.65 56.53,-7.86 88.87,-2.41zm-263.48 727.2c10.45,-4.85 20.7,-6.96 30.64,-6.87l0.11 -0.17 -0.07 -0.05c4.76,-7.29 10.92,-12.19 18.61,-15.77l40.45 -18.75c4.29,-1.99 8.68,-3.27 13.11,-3.8 3.87,-3.27 8.31,-6.13 13.43,-8.51 14.14,-6.56 28.3,-6.52 41.45,-2.23 8.53,-16.01 21.75,-27.07 37.76,-34.49 20.74,-9.62 43.04,-11.77 66.46,-1.57 5.87,-21.47 19.7,-38.39 37.59,-46.69 7.9,-3.65 15.71,-5.7 23.57,-6.35 3.36,-4.32 8.4,-8.45 16.33,-12.14l-0.03 -0.06c11.05,-5.15 22.12,-5.21 31.99,-1.31 7.17,-12.07 17.32,-21.49 29.25,-27.02 7.9,-3.66 15.71,-5.7 23.57,-6.36 3.38,-4.34 8.46,-8.49 16.46,-12.2 16.9,-7.84 33.71,-3.82 46.29,8.04 4.11,3.88 8.19,9.36 10.86,15.13l36.73 79.2c3.5,7.56 4.99,16.75 3.6,25.66 -0.63,4.09 -1.75,8.03 -3.41,11.72 8.09,6.66 15.79,13.8 22.91,21.38 13.47,14.33 24.82,30.23 32.78,47.39l0.03 0.07c10.67,23.05 10.86,46.15 4.38,65.64 -7.06,21.2 -22.14,38.06 -40.85,46.74 -8.37,3.88 -16.48,5.98 -24.47,6.64 -3.25,4.21 -7.88,8.35 -15.84,12.05l0.03 0.06c-10.96,5.1 -21.15,5.58 -30.4,2.26 -7.86,11.33 -18.39,20.29 -30.42,25.87l-0.06 0.03c-8.33,3.85 -16.39,5.94 -24.34,6.61 -3.25,4.2 -7.92,8.34 -16.05,12.12l-0.12 0.05c-13.34,6.12 -25.57,5.41 -36.3,-0.67 -8.37,16.71 -21.88,27.65 -38.15,35.19 -19.83,9.2 -41.01,11.91 -63.96,1.79 0.36,8.21 -2.08,16.09 -7.16,23.9 -4.87,7.47 -11.01,12.41 -18.62,15.93l-56.45 26.17c-7.63,3.55 -15.27,5.06 -23.85,3.99l-0.15 -0.02c-6.37,7.52 -14.66,13.96 -25.29,18.89 -33.17,15.38 -64.62,9.63 -95.93,-19.89 -21.58,-20.35 -43.19,-54.19 -65.9,-103.18 -18.51,-39.91 -27.57,-74.59 -27.64,-102.59 -0.08,-39.42 15.87,-67.37 47.07,-81.83z"/>
  <g id="_2725277549088">
   <g id="idioti">
    <g>
     <path class="fil1" d="M514.99 213.29c0,0 -15.7,-28.01 -44.34,-39.78 -28.63,-11.78 -55.47,-10.27 -61.64,-29.27 -11.54,-35.53 50.82,-78.35 117.48,-63.42 36.95,8.27 66.38,45.49 66.38,45.49l-77.88 86.98z"/>
     <path id="_1" class="fil2" d="M469.12 177.25l3.07 -7.48 0 0 2.79 1.21 2.71 1.31 2.62 1.38 2.54 1.46 2.45 1.52 2.37 1.57 2.28 1.62 2.19 1.66 2.11 1.69 2.02 1.71 1.94 1.72 1.85 1.73 1.76 1.72 1.67 1.71 1.59 1.69 1.5 1.66 1.42 1.63 1.32 1.58 1.24 1.53 1.15 1.47 1.06 1.4 0.98 1.33 0.88 1.23 0.79 1.15 0.71 1.04 0.61 0.94 0.53 0.82 0.43 0.69 0.34 0.56 0.24 0.42 0.16 0.27 0.07 0.13 -7.05 3.95 -0.02 -0.04 -0.11 -0.2 -0.22 -0.35 -0.29 -0.49 -0.39 -0.62 -0.47 -0.75 -0.56 -0.85 -0.65 -0.96 -0.73 -1.05 -0.82 -1.15 -0.91 -1.23 -0.98 -1.3 -1.07 -1.37 -1.15 -1.43 -1.24 -1.47 -1.32 -1.51 -1.39 -1.55 -1.48 -1.57 -1.55 -1.59 -1.64 -1.6 -1.71 -1.59 -1.78 -1.59 -1.86 -1.58 -1.94 -1.55 -2.01 -1.52 -2.08 -1.48 -2.16 -1.43 -2.22 -1.38 -2.3 -1.32 -2.36 -1.24 -2.43 -1.18 -2.5 -1.08 0 0zm-63.96 -31.76l7.69 -2.49 0 0 0.53 1.4 0.6 1.3 0.7 1.2 0.78 1.11 0.88 1.05 0.97 0.99 1.07 0.94 1.18 0.89 1.28 0.85 1.38 0.81 1.49 0.77 1.59 0.74 1.7 0.71 1.78 0.68 1.88 0.65 1.96 0.64 2.04 0.62 2.12 0.61 2.19 0.61 2.26 0.61 2.33 0.61 2.38 0.63 2.44 0.65 2.49 0.67 2.54 0.71 2.59 0.74 2.62 0.78 2.66 0.83 2.69 0.9 2.72 0.95 2.74 1.02 2.76 1.1 -3.07 7.48 -2.6 -1.04 -2.59 -0.96 -2.57 -0.91 -2.56 -0.84 -2.55 -0.8 -2.53 -0.76 -2.5 -0.72 -2.48 -0.68 -2.45 -0.66 -2.41 -0.64 -2.39 -0.63 -2.34 -0.62 -2.31 -0.62 -2.26 -0.63 -2.22 -0.64 -2.17 -0.66 -2.12 -0.69 -2.06 -0.72 -2.01 -0.77 -1.96 -0.82 -1.89 -0.87 -1.83 -0.95 -1.76 -1.03 -1.68 -1.12 -1.61 -1.22 -1.51 -1.32 -1.41 -1.44 -1.3 -1.56 -1.18 -1.68 -1.05 -1.8 -0.9 -1.93 -0.76 -2.03 0 0zm122.22 -68.62l-1.77 7.89 0 0 -6.04 -1.19 -5.99 -0.88 -5.95 -0.57 -5.89 -0.28 -5.82 0 -5.73 0.27 -5.63 0.53 -5.51 0.78 -5.4 1.01 -5.25 1.24 -5.11 1.44 -4.94 1.65 -4.77 1.83 -4.57 2.01 -4.37 2.17 -4.16 2.32 -3.92 2.45 -3.69 2.58 -3.42 2.68 -3.16 2.78 -2.87 2.85 -2.59 2.92 -2.28 2.97 -1.96 3 -1.64 3.02 -1.32 3.01 -0.98 3.01 -0.65 2.98 -0.31 2.96 0.04 2.92 0.38 2.9 0.74 2.88 -7.69 2.49 -0.99 -3.82 -0.51 -3.87 -0.04 -3.88 0.4 -3.86 0.83 -3.82 1.23 -3.76 1.61 -3.7 1.97 -3.62 2.31 -3.52 2.63 -3.43 2.94 -3.33 3.23 -3.21 3.52 -3.09 3.78 -2.96 4.03 -2.82 4.27 -2.67 4.5 -2.51 4.72 -2.34 4.92 -2.16 5.11 -1.97 5.29 -1.76 5.46 -1.55 5.61 -1.31 5.76 -1.08 5.88 -0.83 6.01 -0.57 6.1 -0.29 6.2 0 6.28 0.3 6.34 0.61 6.39 0.93 6.44 1.27 0 0zm68.5 52.14l-6.03 -5.39 -0.15 5.2 -0.06 -0.07 -0.24 -0.29 -0.39 -0.48 -0.56 -0.67 -0.71 -0.83 -0.86 -0.98 -1.01 -1.13 -1.15 -1.26 -1.29 -1.38 -1.42 -1.49 -1.55 -1.59 -1.68 -1.66 -1.8 -1.74 -1.92 -1.8 -2.03 -1.84 -2.13 -1.88 -2.25 -1.9 -2.34 -1.92 -2.44 -1.91 -2.53 -1.89 -2.61 -1.87 -2.7 -1.83 -2.77 -1.79 -2.85 -1.72 -2.91 -1.64 -2.98 -1.56 -3.03 -1.47 -3.09 -1.35 -3.14 -1.24 -3.17 -1.1 -3.22 -0.97 -3.26 -0.81 1.77 -7.89 3.63 0.91 3.56 1.07 3.5 1.21 3.44 1.36 3.36 1.47 3.29 1.59 3.21 1.68 3.12 1.77 3.04 1.83 2.96 1.9 2.86 1.95 2.77 1.98 2.67 2 2.57 2.01 2.46 2.01 2.36 2 2.24 1.97 2.13 1.93 2 1.88 1.88 1.82 1.76 1.75 1.63 1.66 1.49 1.56 1.35 1.45 1.21 1.32 1.07 1.2 0.91 1.05 0.76 0.88 0.6 0.72 0.44 0.53 0.27 0.34 0.12 0.14 -0.16 5.2zm0.16 -5.2l2.11 2.67 -2.27 2.53 0.16 -5.2zm-84.06 86.78l77.87 -86.97 6.03 5.39 -77.88 86.98 -6.54 -0.72 0.52 -4.68zm6.02 5.4l-3.77 4.21 -2.77 -4.93 6.54 0.72z"/>
    </g>
    <g>
     <path class="fil3" d="M475.28 528.1c-26.23,-141.83 14.73,-486.71 239.17,-448.85 108.68,18.32 97.27,141.39 34.74,255.45 -31.41,57.3 -27.63,130.76 7.33,193.4 -76,62.19 -261.8,119.62 -281.24,0z"/>
     <path id="_1_0" class="fil2" d="M715.13 75.26l-1.35 7.97 0 0 -20.11 -2.4 -19.03 -0.3 -17.97 1.68 -16.96 3.54 -15.98 5.31 -15.04 6.97 -14.14 8.53 -13.25 10.01 -12.4 11.38 -11.56 12.66 -10.74 13.84 -9.93 14.91 -9.14 15.89 -8.37 16.74 -7.61 17.5 -6.87 18.15 -6.15 18.69 -5.45 19.11 -4.76 19.44 -4.1 19.65 -3.45 19.76 -2.83 19.75 -2.23 19.64 -1.65 19.42 -1.09 19.08 -0.55 18.65 -0.03 18.1 0.47 17.44 0.95 16.68 1.39 15.8 1.83 14.81 2.23 13.7 -7.95 1.48 -2.29 -14.05 -1.86 -15.1 -1.42 -16.06 -0.95 -16.92 -0.48 -17.68 0.03 -18.33 0.55 -18.87 1.1 -19.31 1.67 -19.64 2.26 -19.87 2.86 -19.99 3.5 -20.01 4.16 -19.92 4.83 -19.72 5.53 -19.41 6.26 -19.01 7 -18.5 7.77 -17.88 8.57 -17.15 9.4 -16.31 10.24 -15.38 11.11 -14.32 12.02 -13.16 12.95 -11.89 13.9 -10.49 14.88 -8.98 15.85 -7.35 16.86 -5.6 17.86 -3.73 18.87 -1.76 19.88 0.32 20.91 2.49 0 0zm37.61 261.38l-7.09 -3.88 0 0 5.66 -10.63 5.36 -10.66 5.03 -10.67 4.69 -10.65 4.35 -10.62 3.98 -10.56 3.61 -10.48 3.22 -10.38 2.82 -10.26 2.42 -10.12 1.99 -9.94 1.55 -9.76 1.11 -9.55 0.66 -9.32 0.18 -9.05 -0.29 -8.79 -0.78 -8.48 -1.27 -8.16 -1.78 -7.83 -2.28 -7.46 -2.81 -7.09 -3.34 -6.69 -3.88 -6.3 -4.43 -5.87 -5 -5.45 -5.59 -5 -6.2 -4.55 -6.83 -4.07 -7.47 -3.58 -8.16 -3.07 -8.84 -2.52 -9.55 -1.97 1.35 -7.97 10.12 2.08 9.45 2.7 8.79 3.31 8.13 3.89 7.47 4.47 6.83 5 6.17 5.53 5.54 6.02 4.89 6.5 4.27 6.92 3.66 7.33 3.05 7.71 2.48 8.06 1.9 8.38 1.36 8.69 0.82 8.97 0.3 9.24 -0.19 9.47 -0.68 9.7 -1.15 9.9 -1.61 10.09 -2.05 10.25 -2.48 10.39 -2.89 10.52 -3.3 10.62 -3.69 10.71 -4.06 10.78 -4.43 10.82 -4.78 10.84 -5.11 10.86 -5.45 10.83 -5.75 10.8 0 0zm6.34 194.59l-5.11 -6.26 -0.97 5.1 -3.25 -6.01 -3.05 -6.06 -2.87 -6.12 -2.68 -6.17 -2.49 -6.21 -2.3 -6.26 -2.11 -6.29 -1.92 -6.32 -1.73 -6.34 -1.54 -6.37 -1.34 -6.38 -1.15 -6.39 -0.96 -6.4 -0.75 -6.4 -0.56 -6.4 -0.37 -6.38 -0.17 -6.37 0.04 -6.36 0.23 -6.32 0.43 -6.3 0.64 -6.27 0.84 -6.23 1.04 -6.18 1.24 -6.13 1.46 -6.07 1.65 -6.02 1.87 -5.95 2.07 -5.89 2.28 -5.8 2.49 -5.73 2.7 -5.64 2.91 -5.55 7.09 3.88 -2.78 5.29 -2.57 5.38 -2.37 5.46 -2.18 5.53 -1.97 5.62 -1.78 5.68 -1.59 5.75 -1.38 5.81 -1.2 5.86 -0.99 5.92 -0.8 5.96 -0.61 6 -0.42 6.04 -0.22 6.07 -0.03 6.1 0.16 6.12 0.35 6.14 0.54 6.15 0.73 6.15 0.92 6.16 1.1 6.16 1.3 6.15 1.48 6.14 1.66 6.11 1.86 6.1 2.03 6.07 2.23 6.04 2.4 6 2.59 5.96 2.77 5.91 2.95 5.86 3.13 5.8 -0.97 5.1zm0.97 -5.1l1.65 2.95 -2.62 2.15 0.97 -5.1zm-288.74 2.71l7.95 -1.48 0.01 0.09 2.21 10.29 3.08 9.26 3.9 8.28 4.64 7.34 5.37 6.47 6.04 5.64 6.7 4.86 7.31 4.1 7.9 3.37 8.44 2.67 8.94 1.99 9.39 1.33 9.79 0.69 10.13 0.09 10.42 -0.5 10.67 -1.06 10.84 -1.58 10.97 -2.08 11.06 -2.54 11.07 -2.98 11.05 -3.38 10.97 -3.76 10.83 -4.1 10.66 -4.4 10.41 -4.68 10.13 -4.93 9.78 -5.14 9.4 -5.32 8.94 -5.47 8.45 -5.58 7.9 -5.65 7.31 -5.71 5.11 6.26 -7.57 5.92 -8.17 5.84 -8.69 5.75 -9.19 5.61 -9.62 5.45 -10.01 5.25 -10.34 5.04 -10.64 4.78 -10.88 4.5 -11.07 4.19 -11.22 3.84 -11.3 3.46 -11.36 3.05 -11.35 2.61 -11.29 2.14 -11.2 1.63 -11.05 1.1 -10.85 0.52 -10.62 -0.09 -10.32 -0.73 -9.98 -1.42 -9.59 -2.13 -9.16 -2.9 -8.66 -3.7 -8.1 -4.55 -7.48 -5.42 -6.79 -6.34 -6.02 -7.26 -5.2 -8.21 -4.31 -9.17 -3.37 -10.13 -2.39 -11.11 0.02 0.09zm7.95 -1.48l0.01 0.09 0 0 -0.01 -0.09z"/>
    </g>
    <g>
     <path class="fil4" d="M567.69 161.28c41.55,84.14 100.81,87.6 160.54,88.9 -81.8,92.1 -214.91,59.39 -160.54,-88.9z"/>
     <path id="_1_1" class="fil2" d="M731.25 252.86l-6.04 -5.37 2.93 6.73 -5.61 -0.13 -5.62 -0.16 -5.62 -0.2 -5.61 -0.26 -5.61 -0.32 -5.61 -0.42 -5.59 -0.51 -5.58 -0.64 -5.56 -0.76 -5.55 -0.91 -5.51 -1.07 -5.49 -1.25 -5.46 -1.44 -5.42 -1.65 -5.38 -1.87 -5.34 -2.11 -5.29 -2.36 -5.24 -2.63 -5.17 -2.91 -5.11 -3.21 -5.04 -3.52 -4.97 -3.83 -4.89 -4.18 -4.8 -4.52 -4.72 -4.88 -4.63 -5.26 -4.53 -5.65 -4.43 -6.04 -4.33 -6.47 -4.23 -6.88 -4.12 -7.33 -4.01 -7.78 7.25 -3.58 3.88 7.53 3.97 7.06 4.07 6.62 4.14 6.19 4.23 5.76 4.31 5.37 4.38 4.98 4.45 4.61 4.52 4.26 4.59 3.91 4.65 3.6 4.72 3.29 4.78 3 4.84 2.72 4.9 2.46 4.96 2.22 5.02 1.98 5.07 1.77 5.13 1.55 5.18 1.37 5.23 1.19 5.27 1.02 5.32 0.88 5.36 0.73 5.4 0.61 5.44 0.51 5.47 0.4 5.5 0.32 5.52 0.25 5.55 0.2 5.57 0.16 5.58 0.13 2.93 6.72zm-2.93 -6.72l8.74 0.19 -5.81 6.53 -2.93 -6.72zm-157 -86.65l-7.25 3.58 7.42 -0.4 -4.49 13.35 -3.43 12.65 -2.44 11.94 -1.48 11.22 -0.58 10.52 0.27 9.8 1.07 9.09 1.83 8.38 2.52 7.68 3.18 6.98 3.78 6.3 4.35 5.62 4.88 4.96 5.38 4.31 5.84 3.66 6.27 3.01 6.68 2.36 7.04 1.69 7.35 1.03 7.65 0.36 7.89 -0.32 8.09 -1.01 8.24 -1.7 8.35 -2.4 8.42 -3.09 8.44 -3.8 8.42 -4.51 8.35 -5.22 8.24 -5.93 8.08 -6.65 7.89 -7.37 7.64 -8.09 6.04 5.37 -7.98 8.45 -8.25 7.71 -8.48 6.98 -8.67 6.24 -8.8 5.5 -8.9 4.77 -8.96 4.03 -8.96 3.3 -8.93 2.56 -8.86 1.82 -8.74 1.09 -8.58 0.35 -8.37 -0.39 -8.12 -1.14 -7.82 -1.88 -7.48 -2.64 -7.08 -3.4 -6.62 -4.15 -6.12 -4.9 -5.55 -5.65 -4.94 -6.38 -4.26 -7.1 -3.55 -7.8 -2.8 -8.49 -1.99 -9.17 -1.16 -9.84 -0.29 -10.5 0.61 -11.16 1.56 -11.81 2.55 -12.47 3.56 -13.12 4.63 -13.78 7.42 -0.4zm-7.42 0.4l3.25 -8.85 4.17 8.45 -7.42 0.4z"/>
    </g>
    <g>
     <path class="fil5" d="M638.78 117.4c20.82,0 36.06,17.21 34.03,38.44 -2.03,21.24 -20.56,38.45 -41.38,38.45 -20.82,0 -36.06,-17.21 -34.03,-38.45 2.03,-21.23 20.56,-38.44 41.38,-38.44z"/>
     <path id="_1_2" class="fil2" d="M676.83 156.23l-8.05 -0.77 0 0 0.13 -1.78 0.04 -1.75 -0.05 -1.72 -0.14 -1.69 -0.21 -1.66 -0.3 -1.62 -0.38 -1.59 -0.44 -1.54 -0.53 -1.51 -0.6 -1.46 -0.66 -1.42 -0.73 -1.38 -0.8 -1.32 -0.86 -1.28 -0.93 -1.23 -0.98 -1.17 -1.05 -1.12 -1.1 -1.06 -1.15 -1 -1.21 -0.94 -1.25 -0.88 -1.31 -0.81 -1.36 -0.75 -1.4 -0.67 -1.45 -0.61 -1.49 -0.53 -1.53 -0.46 -1.58 -0.38 -1.61 -0.3 -1.65 -0.21 -1.69 -0.13 -1.73 -0.05 0 -8.08 2.15 0.05 2.11 0.17 2.07 0.27 2.04 0.38 1.99 0.48 1.94 0.58 1.9 0.67 1.85 0.77 1.78 0.87 1.74 0.95 1.67 1.04 1.61 1.12 1.55 1.2 1.47 1.29 1.41 1.35 1.33 1.43 1.26 1.5 1.18 1.56 1.1 1.63 1.01 1.69 0.93 1.74 0.84 1.8 0.75 1.85 0.67 1.9 0.56 1.95 0.47 1.98 0.37 2.03 0.27 2.06 0.17 2.1 0.06 2.13 -0.04 2.15 -0.16 2.18 0 0zm-45.4 42.1l0 -8.08 0 0 1.74 -0.05 1.72 -0.13 1.71 -0.22 1.69 -0.3 1.67 -0.39 1.66 -0.46 1.62 -0.54 1.6 -0.62 1.58 -0.7 1.54 -0.76 1.51 -0.84 1.47 -0.91 1.43 -0.97 1.4 -1.04 1.34 -1.09 1.3 -1.16 1.25 -1.21 1.2 -1.27 1.14 -1.32 1.09 -1.37 1.03 -1.42 0.96 -1.46 0.9 -1.5 0.83 -1.55 0.77 -1.58 0.69 -1.61 0.61 -1.66 0.55 -1.68 0.46 -1.7 0.38 -1.74 0.3 -1.76 0.21 -1.78 8.05 0.77 -0.26 2.17 -0.37 2.15 -0.46 2.11 -0.56 2.08 -0.66 2.04 -0.75 2 -0.84 1.96 -0.92 1.91 -1 1.86 -1.08 1.81 -1.16 1.76 -1.24 1.7 -1.3 1.65 -1.37 1.58 -1.44 1.52 -1.5 1.46 -1.57 1.39 -1.62 1.32 -1.67 1.25 -1.73 1.17 -1.78 1.09 -1.83 1.02 -1.87 0.93 -1.91 0.84 -1.95 0.76 -2 0.67 -2.02 0.57 -2.06 0.47 -2.09 0.37 -2.11 0.27 -2.13 0.17 -2.15 0.05 0 0zm-38.05 -42.87l8.05 0.77 0 0 -0.13 1.78 -0.04 1.75 0.05 1.72 0.14 1.69 0.21 1.66 0.3 1.62 0.37 1.59 0.45 1.54 0.53 1.51 0.59 1.46 0.67 1.42 0.73 1.38 0.8 1.32 0.86 1.28 0.93 1.23 0.98 1.17 1.04 1.12 1.1 1.06 1.16 1 1.2 0.94 1.26 0.88 1.31 0.81 1.36 0.75 1.4 0.67 1.45 0.61 1.49 0.53 1.53 0.46 1.58 0.38 1.61 0.3 1.65 0.21 1.69 0.13 1.73 0.05 0 8.08 -2.15 -0.05 -2.11 -0.17 -2.07 -0.27 -2.04 -0.38 -1.99 -0.48 -1.95 -0.58 -1.89 -0.67 -1.85 -0.77 -1.79 -0.87 -1.73 -0.95 -1.68 -1.04 -1.6 -1.12 -1.55 -1.21 -1.47 -1.28 -1.41 -1.35 -1.33 -1.43 -1.26 -1.5 -1.18 -1.56 -1.1 -1.63 -1.01 -1.69 -0.93 -1.74 -0.84 -1.8 -0.76 -1.85 -0.66 -1.9 -0.56 -1.95 -0.47 -1.99 -0.37 -2.02 -0.27 -2.06 -0.17 -2.1 -0.06 -2.13 0.04 -2.15 0.16 -2.18 0 0zm45.4 -42.1l0 8.08 0 0 -1.74 0.05 -1.72 0.13 -1.71 0.22 -1.69 0.3 -1.68 0.39 -1.65 0.46 -1.62 0.54 -1.61 0.62 -1.57 0.7 -1.54 0.76 -1.51 0.84 -1.47 0.91 -1.43 0.97 -1.4 1.04 -1.34 1.09 -1.3 1.16 -1.25 1.21 -1.2 1.27 -1.15 1.32 -1.08 1.37 -1.03 1.42 -0.96 1.46 -0.9 1.5 -0.83 1.55 -0.77 1.58 -0.69 1.61 -0.61 1.65 -0.55 1.68 -0.46 1.71 -0.38 1.74 -0.3 1.76 -0.21 1.78 -8.05 -0.77 0.26 -2.17 0.37 -2.15 0.46 -2.11 0.56 -2.08 0.66 -2.04 0.75 -2 0.83 -1.96 0.93 -1.91 1 -1.86 1.08 -1.81 1.16 -1.76 1.24 -1.7 1.3 -1.65 1.37 -1.58 1.44 -1.52 1.5 -1.46 1.57 -1.39 1.62 -1.32 1.67 -1.25 1.73 -1.17 1.78 -1.09 1.82 -1.02 1.88 -0.93 1.91 -0.84 1.95 -0.76 2 -0.67 2.02 -0.57 2.06 -0.47 2.09 -0.37 2.11 -0.27 2.13 -0.17 2.15 -0.05 0 0z"/>
    </g>
    <g>
     <path class="fil6" d="M723.83 154.34c23.88,0 41.66,18.2 39.71,40.64 -1.96,22.45 -22.9,40.64 -46.78,40.64 -23.88,0 -41.66,-18.19 -39.7,-40.64 1.95,-22.44 22.89,-40.64 46.77,-40.64z"/>
     <path id="_1_3" class="fil2" d="M767.58 195.32l-8.09 -0.68 0 0 0.11 -1.88 0.02 -1.84 -0.09 -1.82 -0.19 -1.78 -0.27 -1.75 -0.37 -1.71 -0.46 -1.68 -0.54 -1.64 -0.63 -1.6 -0.71 -1.55 -0.8 -1.51 -0.87 -1.47 -0.95 -1.41 -1.02 -1.37 -1.1 -1.31 -1.16 -1.26 -1.23 -1.2 -1.31 -1.14 -1.36 -1.07 -1.43 -1.02 -1.49 -0.95 -1.55 -0.87 -1.6 -0.81 -1.66 -0.73 -1.71 -0.66 -1.77 -0.57 -1.8 -0.5 -1.86 -0.41 -1.91 -0.32 -1.94 -0.24 -1.99 -0.14 -2.02 -0.05 0.01 -8.08 2.42 0.06 2.37 0.17 2.34 0.28 2.29 0.39 2.25 0.5 2.2 0.6 2.15 0.7 2.08 0.8 2.03 0.89 1.97 0.99 1.91 1.08 1.83 1.17 1.77 1.25 1.69 1.34 1.61 1.41 1.54 1.49 1.45 1.57 1.36 1.64 1.28 1.7 1.19 1.77 1.09 1.83 0.99 1.9 0.89 1.95 0.8 2 0.68 2.06 0.57 2.1 0.46 2.14 0.35 2.18 0.23 2.22 0.1 2.26 -0.01 2.28 -0.14 2.3 0 0zm-50.83 44.35l0.02 -8.09 0 0 2.03 -0.05 2.02 -0.14 2 -0.24 1.98 -0.32 1.94 -0.42 1.93 -0.5 1.89 -0.58 1.85 -0.67 1.82 -0.75 1.78 -0.82 1.74 -0.9 1.69 -0.96 1.65 -1.04 1.59 -1.11 1.54 -1.17 1.48 -1.23 1.43 -1.3 1.36 -1.34 1.29 -1.41 1.23 -1.45 1.15 -1.5 1.09 -1.55 1 -1.6 0.93 -1.63 0.85 -1.67 0.76 -1.71 0.68 -1.74 0.59 -1.77 0.5 -1.81 0.4 -1.83 0.32 -1.85 0.21 -1.88 8.09 0.68 -0.26 2.31 -0.38 2.27 -0.5 2.24 -0.61 2.2 -0.72 2.16 -0.82 2.11 -0.92 2.07 -1.03 2.02 -1.12 1.97 -1.2 1.91 -1.3 1.86 -1.38 1.79 -1.46 1.73 -1.54 1.67 -1.62 1.6 -1.68 1.53 -1.76 1.46 -1.82 1.39 -1.88 1.3 -1.94 1.23 -2 1.15 -2.06 1.06 -2.1 0.97 -2.15 0.88 -2.2 0.79 -2.24 0.69 -2.28 0.6 -2.31 0.49 -2.35 0.39 -2.37 0.28 -2.4 0.17 -2.43 0.06 0 0zm-43.74 -45.03l8.09 0.68 0 0 -0.11 1.88 -0.01 1.85 0.09 1.81 0.18 1.79 0.28 1.75 0.37 1.71 0.45 1.67 0.55 1.64 0.63 1.6 0.71 1.55 0.79 1.52 0.87 1.46 0.95 1.42 1.02 1.36 1.1 1.31 1.16 1.26 1.24 1.2 1.3 1.14 1.37 1.08 1.43 1.01 1.48 0.95 1.55 0.88 1.61 0.8 1.66 0.73 1.71 0.66 1.76 0.58 1.81 0.49 1.85 0.41 1.91 0.33 1.95 0.23 1.98 0.14 2.03 0.05 -0.02 8.09 -2.41 -0.06 -2.38 -0.17 -2.34 -0.29 -2.29 -0.39 -2.25 -0.49 -2.2 -0.6 -2.14 -0.7 -2.09 -0.8 -2.03 -0.9 -1.97 -0.99 -1.9 -1.08 -1.84 -1.17 -1.76 -1.25 -1.69 -1.34 -1.62 -1.41 -1.53 -1.49 -1.45 -1.57 -1.37 -1.63 -1.28 -1.71 -1.18 -1.77 -1.09 -1.83 -1 -1.9 -0.89 -1.95 -0.79 -2 -0.68 -2.05 -0.58 -2.1 -0.46 -2.15 -0.34 -2.18 -0.23 -2.22 -0.11 -2.25 0.01 -2.28 0.14 -2.31 0 0zm50.83 -44.34l-0.01 8.08 0 0 -2.04 0.05 -2.02 0.14 -2 0.24 -1.97 0.33 -1.95 0.41 -1.92 0.5 -1.89 0.59 -1.86 0.67 -1.82 0.74 -1.78 0.82 -1.73 0.9 -1.7 0.97 -1.64 1.04 -1.6 1.1 -1.54 1.17 -1.48 1.23 -1.42 1.3 -1.36 1.35 -1.3 1.4 -1.23 1.45 -1.15 1.51 -1.08 1.55 -1.01 1.59 -0.93 1.63 -0.84 1.68 -0.77 1.7 -0.68 1.74 -0.58 1.78 -0.5 1.8 -0.41 1.83 -0.31 1.85 -0.22 1.88 -8.09 -0.68 0.26 -2.31 0.39 -2.27 0.49 -2.24 0.61 -2.19 0.72 -2.16 0.82 -2.12 0.93 -2.07 1.02 -2.02 1.12 -1.96 1.21 -1.92 1.29 -1.85 1.38 -1.8 1.47 -1.73 1.54 -1.67 1.61 -1.6 1.69 -1.53 1.75 -1.46 1.82 -1.38 1.88 -1.31 1.95 -1.23 2 -1.14 2.05 -1.06 2.11 -0.98 2.15 -0.88 2.19 -0.79 2.25 -0.69 2.27 -0.59 2.31 -0.5 2.35 -0.38 2.38 -0.28 2.4 -0.18 2.42 -0.05 0 0z"/>
    </g>
    <ellipse class="fil4" transform="matrix(0.347062 -0 -0.0292254 0.307559 657.794 161.696)" rx="21.78" ry="30.37"/>
    <ellipse class="fil4" transform="matrix(0.315597 -0 -0.0865866 0.307559 695.568 182.572)" rx="21.78" ry="30.37"/>
    <g>
     <path class="fil7" d="M555.18 217.57c-2.25,44.49 18.4,71.54 48.2,80.62 1.77,-6.38 2.74,-13.26 2.74,-20.44 0,-33.37 -20.92,-60.43 -46.72,-60.43 -1.42,0 -2.83,0.08 -4.22,0.25z"/>
     <path id="_1_4" class="fil2" d="M599.48 297.11l7.79 2.16 -5.07 2.79 -2.92 -0.96 -2.87 -1.06 -2.81 -1.18 -2.74 -1.3 -2.68 -1.4 -2.61 -1.52 -2.55 -1.63 -2.46 -1.74 -2.4 -1.86 -2.3 -1.96 -2.23 -2.08 -2.14 -2.19 -2.05 -2.3 -1.96 -2.4 -1.86 -2.52 -1.76 -2.62 -1.66 -2.73 -1.56 -2.84 -1.45 -2.94 -1.34 -3.05 -1.22 -3.14 -1.12 -3.26 -0.99 -3.35 -0.88 -3.45 -0.76 -3.56 -0.63 -3.65 -0.51 -3.76 -0.38 -3.85 -0.26 -3.95 -0.12 -4.05 0.02 -4.15 0.15 -4.25 8.07 0.41 -0.14 3.99 -0.01 3.89 0.11 3.78 0.23 3.68 0.36 3.56 0.47 3.47 0.58 3.35 0.69 3.25 0.8 3.14 0.9 3.04 1.01 2.94 1.1 2.83 1.2 2.73 1.29 2.62 1.39 2.52 1.47 2.42 1.56 2.32 1.64 2.22 1.72 2.12 1.8 2.03 1.89 1.92 1.95 1.83 2.03 1.72 2.11 1.63 2.17 1.54 2.24 1.43 2.3 1.34 2.38 1.25 2.43 1.14 2.5 1.05 2.55 0.95 2.61 0.86 -5.07 2.78zm7.79 2.16l-1.11 4 -3.96 -1.21 5.07 -2.79zm-5.2 -21.52l8.09 0 0 0 -0.01 0.71 0 0.7 -0.02 0.71 -0.02 0.69 -0.03 0.7 -0.03 0.7 -0.04 0.7 -0.04 0.69 -0.05 0.69 -0.06 0.68 -0.06 0.69 -0.06 0.69 -0.07 0.68 -0.08 0.68 -0.09 0.68 -0.08 0.67 -0.1 0.68 -0.1 0.67 -0.1 0.67 -0.11 0.66 -0.12 0.66 -0.12 0.66 -0.13 0.66 -0.13 0.66 -0.14 0.65 -0.14 0.65 -0.15 0.65 -0.15 0.64 -0.16 0.64 -0.16 0.65 -0.17 0.63 -0.17 0.63 -7.79 -2.16 0.16 -0.57 0.15 -0.57 0.14 -0.57 0.14 -0.57 0.14 -0.58 0.13 -0.58 0.13 -0.58 0.12 -0.59 0.12 -0.58 0.11 -0.6 0.11 -0.59 0.11 -0.6 0.1 -0.6 0.09 -0.6 0.09 -0.6 0.09 -0.6 0.08 -0.61 0.07 -0.62 0.07 -0.6 0.07 -0.62 0.06 -0.62 0.05 -0.61 0.05 -0.62 0.04 -0.63 0.04 -0.63 0.04 -0.62 0.03 -0.62 0.02 -0.63 0.02 -0.64 0.01 -0.63 0.01 -0.64 0 -0.64 0 0zm-42.67 -56.39l0 -8.08 0 0 2.67 0.09 2.63 0.26 2.6 0.42 2.55 0.59 2.5 0.75 2.45 0.9 2.39 1.04 2.33 1.2 2.27 1.32 2.2 1.46 2.13 1.58 2.06 1.71 1.98 1.82 1.91 1.94 1.82 2.04 1.74 2.15 1.66 2.25 1.57 2.34 1.47 2.43 1.39 2.53 1.29 2.6 1.19 2.68 1.1 2.76 0.99 2.84 0.88 2.89 0.78 2.97 0.66 3.02 0.55 3.08 0.43 3.14 0.31 3.18 0.19 3.23 0.07 3.26 -8.09 0 -0.05 -2.95 -0.17 -2.91 -0.29 -2.87 -0.38 -2.82 -0.5 -2.76 -0.59 -2.71 -0.7 -2.65 -0.79 -2.59 -0.88 -2.53 -0.97 -2.45 -1.06 -2.38 -1.13 -2.29 -1.23 -2.22 -1.29 -2.13 -1.37 -2.05 -1.43 -1.95 -1.51 -1.85 -1.56 -1.76 -1.63 -1.65 -1.68 -1.54 -1.73 -1.44 -1.78 -1.33 -1.83 -1.21 -1.87 -1.09 -1.92 -0.98 -1.95 -0.85 -1.98 -0.73 -2.02 -0.6 -2.05 -0.48 -2.08 -0.34 -2.11 -0.21 -2.14 -0.07 0 0zm-0.18 -3.59l-8.07 -0.41 3.56 -3.81 0.3 -0.03 0.29 -0.03 0.28 -0.03 0.3 -0.03 0.29 -0.02 0.29 -0.02 0.29 -0.02 0.29 -0.02 0.29 -0.02 0.3 -0.01 0.31 -0.01 0.27 -0.01 0.29 -0.01 0.32 -0.01 0.29 0 0.29 0 0 8.08 -0.24 0 -0.24 0.01 -0.22 0 -0.24 0.01 -0.25 0.01 -0.23 0 -0.23 0.02 -0.24 0.01 -0.23 0.01 -0.23 0.02 -0.24 0.02 -0.23 0.02 -0.23 0.02 -0.24 0.02 -0.23 0.02 -0.23 0.03 3.57 -3.81zm-8.07 -0.41l0.17 -3.41 3.39 -0.4 -3.56 3.81z"/>
    </g>
    <g>
     <path class="fil1" d="M785.2 249.7c6.74,71.11 -28.99,167.13 -93.06,181.27 -58.61,12.93 -66.39,-88.09 -4.72,-99.36 71.11,-13.01 78.98,-31.78 97.78,-81.91z"/>
     <path id="_1_5" class="fil2" d="M693.02 434.9l-1.75 -7.87 0 0 5.61 -1.47 5.45 -1.92 5.3 -2.34 5.15 -2.75 5 -3.13 4.84 -3.52 4.68 -3.87 4.52 -4.21 4.34 -4.54 4.18 -4.85 4 -5.13 3.82 -5.4 3.64 -5.65 3.45 -5.88 3.25 -6.09 3.06 -6.27 2.85 -6.45 2.66 -6.6 2.44 -6.73 2.24 -6.84 2.02 -6.93 1.81 -7 1.59 -7.05 1.36 -7.08 1.14 -7.08 0.92 -7.08 0.68 -7.05 0.46 -6.99 0.21 -6.92 -0.01 -6.83 -0.26 -6.72 -0.49 -6.58 8.04 -0.76 0.52 6.89 0.27 7.01 0.02 7.1 -0.23 7.2 -0.47 7.25 -0.71 7.3 -0.95 7.33 -1.18 7.33 -1.41 7.33 -1.64 7.29 -1.87 7.24 -2.1 7.17 -2.32 7.09 -2.53 6.98 -2.76 6.85 -2.97 6.71 -3.19 6.55 -3.4 6.36 -3.61 6.16 -3.82 5.94 -4.03 5.7 -4.24 5.43 -4.44 5.16 -4.66 4.85 -4.85 4.54 -5.07 4.18 -5.27 3.82 -5.47 3.44 -5.67 3.02 -5.86 2.59 -6.05 2.12 -6.24 1.65 0 0zm-6.33 -107.26l1.46 7.93 0 0 -5.18 1.22 -4.78 1.66 -4.38 2.07 -4.02 2.45 -3.65 2.79 -3.29 3.1 -2.95 3.39 -2.61 3.64 -2.26 3.87 -1.93 4.06 -1.58 4.21 -1.24 4.33 -0.9 4.42 -0.56 4.45 -0.22 4.46 0.11 4.42 0.43 4.35 0.77 4.24 1.08 4.08 1.38 3.89 1.69 3.66 1.98 3.4 2.26 3.1 2.53 2.78 2.8 2.42 3.06 2.06 3.33 1.65 3.62 1.24 3.91 0.8 4.24 0.3 4.56 -0.23 4.92 -0.82 1.75 7.87 -5.78 0.96 -5.52 0.27 -5.25 -0.37 -4.95 -1 -4.62 -1.59 -4.28 -2.12 -3.91 -2.63 -3.53 -3.06 -3.15 -3.45 -2.76 -3.79 -2.39 -4.09 -2 -4.33 -1.62 -4.55 -1.25 -4.72 -0.87 -4.86 -0.5 -4.96 -0.13 -5.02 0.26 -5.06 0.64 -5.06 1.02 -5.02 1.41 -4.94 1.82 -4.83 2.21 -4.67 2.63 -4.49 3.05 -4.26 3.46 -3.98 3.9 -3.66 4.31 -3.3 4.75 -2.89 5.16 -2.44 5.58 -1.94 5.98 -1.41 0 0zm102.53 -78.32l-8.04 0.76 7.81 1.03 -1.74 4.62 -1.69 4.44 -1.66 4.29 -1.63 4.12 -1.64 3.98 -1.64 3.82 -1.67 3.69 -1.71 3.54 -1.76 3.42 -1.84 3.28 -1.92 3.17 -2.02 3.03 -2.13 2.92 -2.26 2.81 -2.41 2.68 -2.55 2.57 -2.72 2.45 -2.89 2.34 -3.07 2.23 -3.27 2.12 -3.47 2.01 -3.69 1.92 -3.91 1.82 -4.15 1.74 -4.4 1.65 -4.67 1.58 -4.95 1.51 -5.23 1.45 -5.55 1.38 -5.86 1.34 -6.2 1.29 -6.54 1.25 -1.46 -7.93 6.42 -1.22 6.06 -1.26 5.7 -1.3 5.36 -1.34 5.04 -1.4 4.73 -1.44 4.42 -1.49 4.14 -1.56 3.87 -1.62 3.6 -1.68 3.37 -1.75 3.13 -1.82 2.93 -1.89 2.73 -1.98 2.55 -2.07 2.4 -2.15 2.25 -2.27 2.12 -2.37 2.01 -2.49 1.91 -2.62 1.83 -2.75 1.76 -2.9 1.7 -3.05 1.65 -3.2 1.62 -3.36 1.6 -3.52 1.59 -3.7 1.59 -3.86 1.6 -4.05 1.64 -4.23 1.67 -4.41 1.73 -4.6 7.81 1.03zm-7.81 -1.03l6.16 -16.42 1.65 17.45 -7.81 -1.03z"/>
    </g>
    <g>
     <path class="fil8" d="M61.6 550.85c0,5.57 -0.92,9.75 -4.18,13l-13.93 13.47c-0.93,1.39 -3.25,2.78 -3.25,4.18 0,1.39 0.93,2.78 2.79,2.78l72.91 0c1.85,0 2.78,-1.39 2.78,-2.78 0,-1.4 -2.32,-2.79 -3.25,-4.18l-13.93 -13.47c-3.25,-3.25 -4.18,-7.43 -4.18,-13l0 -281.41c0,-5.58 0.93,-9.75 4.18,-13.01l13.93 -13.46c0.93,-1.4 3.25,-2.79 3.25,-4.18 0,-1.39 -0.93,-2.79 -2.78,-2.79l-72.91 0c-1.86,0 -2.79,1.4 -2.79,2.79 0,1.39 2.32,2.78 3.25,4.18l13.93 13.46c3.26,3.26 4.18,7.43 4.18,13.01l0 281.41zm134.29 -168.18l-0.78 0c-6.58,-7.35 -14.32,-13.55 -25.54,-13.55 -15.87,0 -35.21,10.06 -35.21,96.36 0,109.13 17.8,118.8 34.82,118.8 12.39,0 19.35,-6.96 25.93,-14.7l0.78 0 0 13.16c0,0.77 1.16,1.54 2.7,1.54l35.99 0c1.55,0 2.71,-0.38 2.71,-1.54 0,-0.78 -0.77,-1.94 -1.93,-2.71l-12 -13.55c-0.39,-0.77 -0.39,-1.93 -0.39,-3.48l0 -266.63c0,-1.55 -0.77,-2.32 -2.32,-2.32l-36.76 0c-1.55,0 -2.71,0.39 -2.71,1.55 0,0.77 0.77,1.93 1.93,2.71l11.23 11.22c1.16,0.77 1.55,1.55 1.55,3.1l0 70.04zm0 154.01c0,18.97 -8.13,30.96 -17.42,30.96 -10.06,0 -13.93,-8.9 -13.93,-102.16 0,-71.59 4.64,-79.72 14.32,-79.72 5.42,0 17.03,10.06 17.03,29.03l0 121.89zm59.59 26.32c0,1.55 0,2.71 -0.78,3.48l-11.99 13.55c-0.77,0.77 -1.55,1.93 -1.55,2.71 0,1.16 1.16,1.54 2.32,1.54l51.08 0c1.55,0 2.32,-0.38 2.32,-1.54 0,-0.78 -0.77,-1.94 -1.54,-2.71l-12 -13.55c-0.77,-0.77 -0.77,-1.93 -0.77,-3.48l0 -191.55c0,-1.55 -0.78,-2.33 -1.94,-2.33l-37.15 0c-1.16,0 -2.32,0.39 -2.32,1.55 0,0.78 0.78,1.94 1.55,3.1l11.61 10.83c0.77,0.78 1.16,1.55 1.16,3.1l0 175.3zm13.16 -268.95c-8.13,0 -14.32,10.06 -14.32,20.51 0,10.06 6.19,20.51 14.32,20.51 7.74,0 13.93,-10.45 13.93,-20.51 0,-10.45 -6.19,-20.51 -13.93,-20.51zm85.9 75.07c-24.76,0 -45.66,22.06 -45.66,98.3 0,95.58 20.9,116.86 45.66,116.86 25.16,0 46.06,-21.28 46.06,-116.86 0,-76.24 -20.9,-98.3 -46.06,-98.3zm0 198.52c-10.06,0 -15.47,-13.15 -15.47,-100.22 0,-67.34 5.41,-81.66 15.47,-81.66 10.45,0 15.87,14.32 15.87,81.66 0,87.07 -5.42,100.22 -15.87,100.22zm99.46 -179.17c0,-2.71 1.93,-5.03 3.09,-6.96l8.9 -10.06c2.32,-1.94 1.94,-4.65 0,-4.65l-8.9 0c-2.71,0 -3.09,-1.55 -3.09,-3.48l0 -44.5c0,-1.94 -0.78,-2.71 -2.33,-2.71l-11.6 0c-1.94,0 -3.1,1.55 -3.1,3.48 0,15.48 -1.94,44.89 -18.96,47.99 -3.87,0.38 -5.42,1.54 -5.42,2.71 0,0.77 1.16,1.54 1.94,2.32l11.22 10.83c1.16,1.16 1.16,3.49 1.16,5.03l0 156.73c0,31.73 8.9,39.08 25.15,39.08 16.25,0 24,-13.15 26.7,-23.99 0.39,-1.16 -0.38,-2.32 -1.16,-2.32 -0.77,0 -1.54,0.77 -2.32,1.55 -2.32,3.87 -7.35,8.12 -12,8.12 -5.41,0 -9.28,-5.8 -9.28,-13.93l0 -165.24z"/>
     <path class="fil0" d="M495.02 563c0,1.55 0,2.71 -0.78,3.48l-11.99 13.55c-0.78,0.77 -1.55,1.93 -1.55,2.71 0,1.16 1.16,1.54 2.32,1.54l51.08 0c1.55,0 2.32,-0.38 2.32,-1.54 0,-0.78 -0.77,-1.94 -1.54,-2.71l-12 -13.55c-0.77,-0.77 -0.77,-1.93 -0.77,-3.48l0 -191.55c0,-1.55 -0.78,-2.33 -1.94,-2.33l-37.15 0c-1.16,0 -2.32,0.39 -2.32,1.55 0,0.78 0.77,1.94 1.55,3.1l11.6 10.83c0.78,0.78 1.17,1.55 1.17,3.1l0 175.3zm13.15 -268.95c-8.12,0 -14.32,10.06 -14.32,20.51 0,10.06 6.2,20.51 14.32,20.51 7.74,0 13.94,-10.45 13.94,-20.51 0,-10.45 -6.2,-20.51 -13.94,-20.51z"/>
    </g>
   </g>
   <g id="cross">
    <path class="fil9" d="M474.8 934.18c41.02,88.47 74.61,118.97 108.32,103.34 21.9,-10.16 22.05,-36.33 18.12,-58.06 -0.36,-1.88 -1.37,-2.95 -2.63,-2.36 -1.26,0.59 -1.94,2.44 -2.23,5.13 -1.27,14.92 -6.08,29.95 -17.45,35.22 -13.9,6.45 -31.03,-11.72 -71.27,-98.5 -33.4,-72.04 -37.4,-91.69 -22.65,-98.53 11.37,-5.27 22.86,-0.36 42.25,11.64 1.43,0.87 2.66,1.32 3.5,0.93 1.27,-0.59 0.91,-2.47 -0.3,-3.96 -13.98,-19.11 -34.47,-35.71 -55.96,-25.75 -31.17,14.46 -32.13,60.97 0.3,130.9z"/>
    <path class="fil10" d="M593.5 819.26c-9.97,-21.49 -10.39,-42.28 1.82,-47.94 8.85,-4.1 19.43,-3.38 29.34,5.85 1.81,1.71 3.44,3.01 5.12,2.23 1.69,-0.79 1.33,-2.67 0.35,-4.77 -6.25,-13.48 -25.45,-31.71 -39.35,-25.26 -9.69,4.49 -12.95,16.24 -15.78,27.79l-0.84 0.39 -6.64 -14.32c-0.79,-1.69 -2.02,-2.14 -3.28,-1.55l-40.45 18.75c-1.68,0.78 -2.33,1.59 -1.74,2.86 0.39,0.84 1.39,1.91 3.25,2.58l17.68 6.14c1.66,0.25 2.47,0.9 3.25,2.59l88.49 190.84c0.78,1.68 1.37,2.94 0.92,4.18l-6.23 20.8c-0.87,1.43 -0.7,2.89 -0.31,3.73 0.58,1.27 1.62,1.29 3.31,0.51l56.45 -26.17c1.68,-0.79 2.33,-1.6 1.75,-2.86 -0.39,-0.84 -1.4,-1.91 -3.06,-2.17l-21.16 -8.1c-0.81,-0.65 -1.4,-1.91 -2.18,-3.6l-70.71 -152.5z"/>
    <path class="fil11" d="M669.98 712.64c-26.96,12.5 -38.57,47.06 -0.09,130.06 48.25,104.05 81.75,116.68 108.71,104.18 27.38,-12.7 39.39,-46.42 -8.86,-150.48 -38.49,-82.99 -72.37,-96.46 -99.76,-83.76zm100.22 216.12c-10.96,5.08 -23.49,-6.51 -67.45,-101.3 -33.99,-73.3 -35.32,-91.63 -24.37,-96.7 11.38,-5.28 24.51,7.57 58.5,80.88 43.95,94.79 44.69,111.84 33.32,117.12z"/>
    <path class="fil12" d="M817.7 649.26c-0.97,-2.1 -2.79,-3.82 -3.64,-3.43 -1.26,0.59 -1.32,2.66 -1.77,3.9l-7.14 16.61c-11.07,-5.1 -21,-6.64 -31.11,-1.95 -15.16,7.03 -23.81,32.54 -11.11,59.92 11.91,25.7 32.87,47.72 59.76,65.96 23.64,15.66 50.01,37.21 62.12,63.33 5.08,10.96 4.19,20.07 -5.08,24.37 -15.59,7.23 -39.53,-19.04 -62.1,-50.03 -1.4,-1.91 -2.18,-3.6 -4.29,-2.62 -1.26,0.58 -0.9,2.46 -0.31,3.73l37.5 80.88c0.79,1.69 1.79,2.76 2.64,2.37 1.68,-0.78 2.36,-2.63 3.23,-4.06l5.68 -16.46c10.03,5.08 19.73,7.23 31.53,1.76 17.69,-8.2 28.81,-32.8 16.7,-58.93 -12.7,-27.38 -37.75,-51.59 -65.68,-69.87 -29.35,-19.15 -49.33,-39.06 -57.54,-56.75 -5.86,-12.64 -8.86,-23.53 -0.01,-27.63 8,-3.72 17.42,1.13 29.14,12.07 15.56,14.8 24.37,26.07 32.96,37.96 1.4,1.91 3.02,3.2 4.28,2.62 1.69,-0.78 1.75,-2.86 0.97,-4.55l-36.73 -79.2z"/>
    <path class="fil13" d="M918.81 602.38c-0.97,-2.11 -2.79,-3.83 -3.63,-3.44 -1.27,0.59 -1.33,2.67 -1.78,3.9l-7.14 16.62c-11.07,-5.11 -21,-6.64 -31.11,-1.96 -15.16,7.04 -23.81,32.54 -11.11,59.93 11.91,25.7 32.87,47.71 59.76,65.96 23.64,15.65 50.01,37.21 62.12,63.33 5.08,10.95 4.19,20.06 -5.08,24.36 -15.58,7.23 -39.53,-19.03 -62.1,-50.03 -1.4,-1.91 -2.18,-3.59 -4.28,-2.62 -1.27,0.59 -0.91,2.47 -0.32,3.73l37.51 80.89c0.78,1.68 1.78,2.75 2.63,2.36 1.68,-0.78 2.36,-2.63 3.23,-4.06l5.68 -16.45c10.03,5.07 19.74,7.23 31.53,1.76 17.69,-8.21 28.81,-32.81 16.7,-58.93 -12.7,-27.38 -37.75,-51.6 -65.68,-69.88 -29.35,-19.14 -49.33,-39.05 -57.54,-56.75 -5.86,-12.64 -8.86,-23.53 -0.01,-27.63 8,-3.71 17.42,1.14 29.14,12.08 15.57,14.79 24.38,26.06 32.96,37.95 1.4,1.91 3.02,3.21 4.28,2.62 1.69,-0.78 1.75,-2.86 0.97,-4.54l-36.73 -79.2z"/>
   </g>
   <g id="__x003f_">
    <path class="fil14" d="M1198.82 886.79c-28.44,13.18 -25.22,44.96 -13.01,71.29 11.72,25.28 33.9,48.27 62.34,35.08 27.38,-12.69 25.22,-44.96 13.49,-70.24 -12.2,-26.33 -35.44,-48.83 -62.82,-36.13z"/>
    <path class="fil15" d="M1121.54 704.87c-8.79,-18.96 -8.25,-37.12 -5.2,-52.62 28.77,-147.7 20.37,-215.48 -16.74,-295.52 -39.56,-85.31 -106.96,-142.36 -191.22,-103.29 -95.85,44.45 -68.69,180.3 -40.36,241.38 3.91,8.43 9.51,12.23 14.78,9.79 5.26,-2.44 5.49,-10.23 4.1,-15.98 -8.74,-38.18 -22.56,-150.78 35.36,-177.64 36.87,-17.1 80.81,25.23 103.76,74.74 32.24,69.51 53.94,143.91 22.93,261.94 -7.01,26.29 2.2,48.89 19.18,71.73l94.3 131.59c3.98,5.83 10.63,9.15 16.95,6.22 7.38,-3.42 8.58,-9.1 5.16,-16.47l-63 -135.87z"/>
   </g>
   <g id="uiz">
    <path class="fil16" d="M1170.67 144.62c-0.78,-1.69 -1.59,-2.33 -3.27,-1.55l-40.45 18.75c-1.26,0.59 -2.33,1.59 -1.74,2.86 0.39,0.84 1.82,1.71 3.67,2.39l17.68 6.13c1.24,0.45 2.05,1.1 2.83,2.79l75.21 162.19c9.57,20.64 6.78,37.81 -3.33,42.49 -10.95,5.08 -20.34,-0.8 -27.76,-16.81l-87.71 -189.16c-0.78,-1.68 -2.02,-2.14 -3.28,-1.55l-40.45 18.75c-1.26,0.59 -2.33,1.6 -1.74,2.86 0.39,0.84 1.82,1.72 3.25,2.59l18.11 5.93c1.23,0.46 2.04,1.1 2.82,2.79l79.31 171.04c13.29,28.65 31.3,37.7 55.74,26.37 13.48,-6.25 17.55,-17.35 20.8,-29.1l0.84 -0.39 6.64 14.32c0.4,0.85 2.05,1.1 3.74,0.32l39.17 -18.17c1.69,-0.78 2.76,-1.79 2.17,-3.05 -0.39,-0.84 -1.82,-1.71 -3.47,-1.97l-19.9 -8.69c-0.81,-0.65 -1.4,-1.91 -2.18,-3.6l-96.7 -208.53z"/>
    <path class="fil17" d="M1302.76 336.74c0.79,1.69 1.37,2.95 0.92,4.19l-6.22 20.8c-0.45,1.23 -0.71,2.89 -0.32,3.73 0.59,1.26 2.05,1.1 3.31,0.51l55.61 -25.79c1.68,-0.78 2.33,-1.59 1.75,-2.85 -0.39,-0.84 -1.82,-1.72 -3.06,-2.17l-19.89 -8.69c-1.24,-0.45 -1.82,-1.72 -2.6,-3.4l-96.7 -208.54c-0.78,-1.68 -2.02,-2.13 -3.28,-1.55l-40.44 18.76c-1.27,0.58 -2.34,1.59 -1.75,2.85 0.39,0.85 1.82,1.72 3.25,2.59l18.11 5.94c1.23,0.45 2.04,1.1 2.82,2.78l88.49 190.84zm-121.44 -299.43c-8.84,4.1 -10.51,18.18 -5.23,29.56 5.08,10.95 17.09,19.2 25.94,15.1 8.43,-3.91 9.89,-18.41 4.81,-29.36 -5.27,-11.38 -17.09,-19.21 -25.52,-15.3z"/>
    <path class="fil18" d="M1301.02 177.34c0.98,2.1 2.41,2.98 3.67,2.39 1.27,-0.59 1.95,-2.43 1.23,-6.19l-7.39 -66.71c-0.27,-4.99 1.48,-7.85 5.27,-9.61l20.22 -9.37 45.48 240.47 1.37 2.95c0.39,0.84 0.78,1.69 2.04,1.1l84.26 -39.07c2.53,-1.17 2.59,-3.25 2,-4.51l-35.36 -76.25c-0.97,-2.11 -2.37,-4.02 -3.63,-3.44 -1.69,0.79 -1.55,3.28 -1,5.59l7.74 68.58c0.5,4.38 -1.67,7.43 -5.88,9.38l-22.33 10.36 -49.07 -238.3c-0.17,-1.46 -0.75,-2.72 -0.95,-3.15 -0.58,-1.26 -1.4,-1.91 -3.08,-1.13l-77.52 35.95c-2.11,0.97 -3.01,3.44 -2.23,5.13l35.16 75.83z"/>
   </g>
  </g>
 </g>
</svg>
