<?xml version="1.0" encoding="UTF-8"?>
<!DOCTYPE svg PUBLIC "-//W3C//DTD SVG 1.1//EN" "http://www.w3.org/Graphics/SVG/1.1/DTD/svg11.dtd">
<!-- Creator: CorelDRAW -->
<svg xmlns="http://www.w3.org/2000/svg" xml:space="preserve" width="1096px" height="794px" version="1.1" style="shape-rendering:geometricPrecision; text-rendering:geometricPrecision; image-rendering:optimizeQuality; fill-rule:evenodd; clip-rule:evenodd"
viewBox="0 0 1096 793.91"
 xmlns:xlink="http://www.w3.org/1999/xlink"
 xmlns:xodm="http://www.corel.com/coreldraw/odm/2003">
 <defs>
  <style type="text/css">
   <![CDATA[
    .fil4 {fill:#2B2A29}
    .fil7 {fill:#E31E24}
    .fil1 {fill:#008DD2}
    .fil0 {fill:#FEFEFE;fill-rule:nonzero}
    .fil2 {fill:#2B2A29;fill-rule:nonzero}
    .fil3 {fill:url(#id0)}
    .fil5 {fill:url(#id1)}
    .fil15 {fill:url(#id2)}
    .fil6 {fill:url(#id3)}
    .fil14 {fill:url(#id4)}
    .fil12 {fill:url(#id5);fill-rule:nonzero}
    .fil10 {fill:url(#id6);fill-rule:nonzero}
    .fil16 {fill:url(#id7);fill-rule:nonzero}
    .fil9 {fill:url(#id8);fill-rule:nonzero}
    .fil18 {fill:url(#id9);fill-rule:nonzero}
    .fil11 {fill:url(#id10);fill-rule:nonzero}
    .fil13 {fill:url(#id11);fill-rule:nonzero}
    .fil8 {fill:url(#id12);fill-rule:nonzero}
    .fil17 {fill:url(#id13);fill-rule:nonzero}
   ]]>
  </style>
  <linearGradient id="id0" gradientUnits="userSpaceOnUse" x1="454.91" y1="199.3" x2="393.19" y2="357.44">
   <stop offset="0" style="stop-opacity:1; stop-color:#0096DB"/>
   <stop offset="1" style="stop-opacity:1; stop-color:#0075AC"/>
  </linearGradient>
  <linearGradient id="id1" gradientUnits="userSpaceOnUse" x1="458.41" y1="134.11" x2="462.91" y2="117.32">
   <stop offset="0" style="stop-opacity:1; stop-color:#D9DADA"/>
   <stop offset="1" style="stop-opacity:1; stop-color:#FEFEFE"/>
  </linearGradient>
  <linearGradient id="id2" gradientUnits="userSpaceOnUse" x1="806.97" y1="621.58" x2="697.04" y2="204.69">
   <stop offset="0" style="stop-opacity:1; stop-color:#434242"/>
   <stop offset="1" style="stop-opacity:1; stop-color:#727271"/>
  </linearGradient>
  <linearGradient id="id3" gradientUnits="userSpaceOnUse" xlink:href="#id1" x1="502.19" y1="135.41" x2="522.43" y2="144.94">
  </linearGradient>
  <linearGradient id="id4" gradientUnits="userSpaceOnUse" xlink:href="#id0" x1="889.46" y1="677.12" x2="883.01" y2="715.48">
  </linearGradient>
  <linearGradient id="id5" gradientUnits="userSpaceOnUse" xlink:href="#id2" x1="648.64" y1="646.72" x2="577.56" y2="492.5">
  </linearGradient>
  <linearGradient id="id6" gradientUnits="userSpaceOnUse" xlink:href="#id2" x1="423.89" y1="748.09" x2="328.32" y2="539.92">
  </linearGradient>
  <linearGradient id="id7" gradientUnits="userSpaceOnUse" xlink:href="#id2" x1="967.02" y1="248.6" x2="871.49" y2="40.41">
  </linearGradient>
  <linearGradient id="id8" gradientUnits="userSpaceOnUse" xlink:href="#id2" x1="355.2" y1="779.93" x2="259.69" y2="571.74">
  </linearGradient>
  <linearGradient id="id9" gradientUnits="userSpaceOnUse" xlink:href="#id2" x1="967.02" y1="248.6" x2="871.49" y2="40.41">
  </linearGradient>
  <linearGradient id="id10" gradientUnits="userSpaceOnUse" xlink:href="#id2" x1="493.65" y1="715.74" x2="398.03" y2="507.6">
  </linearGradient>
  <linearGradient id="id11" gradientUnits="userSpaceOnUse" xlink:href="#id2" x1="722.52" y1="612.46" x2="651.43" y2="458.24">
  </linearGradient>
  <linearGradient id="id12" gradientUnits="objectBoundingBox" xlink:href="#id0" x1="47.0367%" y1="37.6576%" x2="21.2877%" y2="79.1559%">
  </linearGradient>
  <linearGradient id="id13" gradientUnits="userSpaceOnUse" xlink:href="#id2" x1="967.02" y1="248.6" x2="871.49" y2="40.41">
  </linearGradient>
 </defs>
 <g id="Livello_x0020_1">
  <metadata id="CorelCorpID_0Corel-Layer"/>
  <path class="fil0" d="M527 31.85c5.14,0.87 10.07,2.01 14.79,3.4 30.37,8.97 49.97,27.6 60.68,52.58 9.6,22.36 11.13,49.11 6.32,77.65 -1.28,7.61 -3.03,15.4 -5.2,23.31 0.27,4.84 0.33,9.77 0.19,14.77 10.04,-16.71 24.79,-31 45.63,-41.13 1.3,-0.72 2.64,-1.35 4.01,-1.86 35.02,-15.66 67.34,-14.01 95.98,-0.36 -0.44,-0.79 -0.87,-1.64 -1.29,-2.54 -4.92,-10.6 -3.52,-20.28 1.68,-28.81 3.6,-5.88 8.8,-9.97 14.02,-12.39l29.55 -13.7c3.13,-1.45 6.32,-2.38 9.54,-2.78 2.59,-2.34 5.45,-4.17 8.31,-5.5l29.55 -13.7c0.96,-0.44 1.91,-0.84 2.85,-1.19 -4.47,-4.41 -8.28,-9.7 -10.92,-15.38 -4.5,-9.71 -5.92,-20.88 -4.21,-30.53 2.31,-13.02 9.72,-24.27 22.46,-30.17l0.07 -0.03c12.77,-5.89 26.38,-3.98 37.91,3.16 8.12,5.02 15.42,13.09 19.77,22.46l0.01 0.03c2.59,5.61 4.15,11.83 4.65,17.96l0.87 -0.42c0.52,-0.25 1.05,-0.47 1.59,-0.69l55.07 -25.53 -0.02 -0.05c9.27,-4.31 17.81,-3.94 26.11,-0.14 7.84,3.59 12.37,8.93 15.36,15.39 0.22,0.48 0.66,1.4 1.39,3.52 0.67,1.89 1.32,4.2 1.7,6.77l16.62 80.73c11.32,-2.86 20.85,1.22 28.62,9.45 1.19,1.27 2.25,2.61 3.17,4.01 1.38,1.95 2.51,3.94 3.39,5.82l25.84 55.72c3.26,7.04 4.43,16.74 0.26,26.14 -2.9,6.55 -7.98,12.48 -16.15,16.27l-61.46 28.5 0.02 0.04c-2.32,1.08 -4.55,1.88 -6.7,2.42 -1.77,1.26 -3.68,2.34 -5.73,3.29l-40.64 18.84c-1.13,0.53 -2.31,1 -3.55,1.41 -1.14,0.7 -2.33,1.32 -3.53,1.88l-28.63 13.27c-3.6,1.67 -7.36,2.62 -10.95,2.96 -3.52,2.99 -7.61,5.65 -12.44,7.89 -17.3,8.02 -33.35,8.34 -48.45,1.09l-0.99 -0.49c1.39,8.32 2.41,16.92 3.03,25.94 2.47,35.8 -1.39,77.49 -12.4,134.01l-0.02 0.11 0.02 0c-0.69,3.54 -1.12,7.23 -0.88,10.78 0.2,3.06 0.93,6.31 2.49,9.67l46.03 99.28c2.24,4.82 3.6,9.64 3.99,14.47 6.72,1.17 13.14,3.63 19.21,7.13 14.6,8.39 25.98,23 33.14,38.44 7,15.11 10.74,33.2 7.57,49.71 -3.3,17.16 -12.98,31.97 -31.85,40.72 -19.1,8.86 -36.53,6.74 -51.61,-1.75 -14.86,-8.36 -26.01,-23.13 -33.04,-38.3 -7.14,-15.39 -11.23,-33.33 -8.19,-50.01 0.84,-4.61 2.14,-9.04 3.95,-13.24 -3.87,-2.79 -7.28,-6.25 -10.05,-10.18l-0.03 0.03 -68.9 -96.15c-0.34,-0.49 -0.67,-0.98 -0.98,-1.47 -7.51,-10.38 -13.4,-21.03 -16.87,-32.56 -4.1,-13.64 -4.73,-27.8 -0.66,-43.07 10.26,-39.08 11.86,-70.52 8.26,-97.68 -3.58,-26.95 -12.54,-50.69 -23.28,-73.87l-0.01 -0.02c-6.55,-14.12 -15.77,-26.96 -25.67,-34.81 -4.98,-3.94 -9.14,-6.24 -11.03,-5.36l-0.02 0.01c-6.25,2.91 -10.03,12.09 -12.25,23.22 -5.21,26.16 -0.58,58.43 2.81,73.23 0.15,0.67 0.28,1.34 0.39,2.01 1.08,5.87 1.21,12.83 -0.46,19.3 -2.25,8.78 -7.1,16.55 -15.58,21.71 -2.17,1.42 -4.5,2.52 -6.9,3.3 -10.88,3.97 -21.59,2.39 -31.32,-4.1 -1.26,-0.84 -2.44,-1.76 -3.52,-2.74 -4.8,-4.09 -8.87,-9.52 -11.89,-16.03l-0.01 -0.02c-10.83,-23.36 -21.45,-59.96 -22.01,-96.42 -6.42,13.63 -14.48,26.15 -24.05,36.6 0.43,7.73 1.62,15.56 3.55,23.35 2.89,11.67 7.42,23.19 13.54,34.15 7.03,12.65 3.75,28.25 -7.09,37.09l0.05 0.05c-26.56,21.73 -69.07,42.7 -110.35,52.15 -33.82,7.74 -67.9,7.99 -94.73,-4.4l-13.45 0c-3.18,0 -6.58,-0.49 -9.97,-1.6 -3.9,1.03 -8.11,1.6 -12.65,1.6 -13.68,0 -25.07,-3.46 -34.4,-13.97 -10.59,10.33 -23.26,13.97 -36.85,13.97 -9.01,0 -17.62,-1.62 -25.49,-5.77l-1.51 0.99 0.02 0.03c-5.43,3.38 -10.89,4.75 -16.85,4.75l-37.32 0c-1.03,0 -2.09,-0.05 -3.16,-0.16 -1.12,0.11 -2.24,0.16 -3.34,0.16l-26.3 0c-3.25,0 -6.43,-0.54 -9.4,-1.45 -3.73,0.93 -7.74,1.45 -12.09,1.45 -7.63,0 -15.29,-0.89 -22.45,-4.55 -4.63,2.85 -10.14,4.55 -16.45,4.55l-53.27 0c-9.13,0 -16.61,-3.63 -22.22,-9.21l-0.68 -0.71c-5.79,-6.13 -8.67,-14.02 -8.67,-21.65 0,-12.73 4.92,-17.83 9.99,-22.7 0.49,-0.55 0.99,-1.07 1.51,-1.57l-0.01 -0.01 4.12 -3.98 0 -193.88 -4.12 -3.99c-0.58,-0.55 -1.13,-1.13 -1.66,-1.72 -5.01,-4.83 -9.83,-9.94 -9.83,-22.56 0,-7.98 3.07,-16.19 9.23,-22.35 5.58,-5.58 13.09,-9.21 22.34,-9.21l53.27 0c9.24,0 16.75,3.63 22.33,9.21 6.15,6.15 9.23,14.36 9.23,22.35 0,12.47 -4.72,17.63 -9.68,22.41 -0.81,0.93 -1.66,1.8 -2.56,2.61l-3.36 3.25 0 42.77c4.22,-2.34 8.58,-3.72 12.92,-4.49l0 -1.5 -1.29 -1.31c-1.32,-1.32 -2.5,-2.72 -3.51,-4.14 -3.78,-5.28 -5.94,-11.75 -5.94,-18.09 0,-13.19 6.33,-21.87 16.94,-27.18l0.05 -0.02 -0.05 -0.1c4.81,-2.39 9.74,-3.36 14.57,-3.36l26.86 0c6.28,0 11.88,1.61 16.81,4.82 5.35,-3.07 11.48,-4.82 18.25,-4.82 13.29,0 24.24,6.91 31.43,17.49 5.12,7.53 8.28,17.36 8.28,27.03 0,5.53 -1.08,11.21 -3.01,16.49 8.04,-4.31 16.85,-6.15 26.07,-6.15 8.98,0 17.56,1.72 25.4,5.73 1.46,-1.03 3.05,-1.99 4.79,-2.86 0.41,-3.2 0.51,-6.76 0.51,-9.54 0,-7.86 2.87,-15.41 8.13,-21.33l0.06 -0.07 -0.06 -0.05c5.86,-6.6 13.93,-10.62 23.66,-10.62l5.25 0c3.58,-14.71 7.9,-29.19 13.04,-43.12 -2.19,-1.73 -4.6,-3.28 -7.13,-4.32 -4.91,-2.02 -10.8,-3.57 -16.13,-4.97 -21.13,-5.57 -37.78,-9.96 -45.76,-34.52 -2.87,-8.85 -3.13,-17.88 -1.15,-26.76 2.92,-13.03 10.72,-25.1 22.01,-34.9 9.5,-8.24 21.75,-15.16 35.59,-19.65 18.74,-6.09 41,-7.97 63.77,-2.87 10.43,2.33 19.83,6.47 28.03,11.33 2.09,1.23 4.1,2.52 6.05,3.83 11.32,-6.57 23.58,-11.63 36.83,-14.9 19.69,-4.86 41.3,-5.74 64.93,-1.76zm-192.51 531.34c7.63,-3.54 15.12,-5.08 22.38,-5.02l0.08 -0.12 -0.05 -0.04c3.48,-5.32 7.98,-8.91 13.6,-11.52l29.55 -13.7c3.14,-1.46 6.35,-2.39 9.58,-2.78 2.83,-2.39 6.07,-4.48 9.81,-6.22 10.34,-4.79 20.69,-4.76 30.29,-1.63 6.24,-11.69 15.9,-19.78 27.59,-25.2 15.16,-7.03 31.45,-8.6 48.56,-1.15 4.29,-15.68 14.4,-28.04 27.47,-34.11 5.77,-2.67 11.48,-4.16 17.22,-4.64 2.46,-3.15 6.14,-6.17 11.93,-8.87l-0.02 -0.05c8.07,-3.75 16.16,-3.8 23.38,-0.95 5.24,-8.82 12.65,-15.7 21.37,-19.74 5.77,-2.68 11.48,-4.17 17.22,-4.65 2.47,-3.17 6.18,-6.2 12.02,-8.91 12.35,-5.73 24.63,-2.8 33.82,5.87 3.01,2.84 5.99,6.84 7.94,11.05l26.84 57.87c2.56,5.53 3.65,12.24 2.63,18.75 -0.46,2.99 -1.28,5.87 -2.49,8.57 5.91,4.86 11.54,10.08 16.74,15.62 9.84,10.47 18.13,22.09 23.95,34.62l0.02 0.05c7.79,16.85 7.94,33.73 3.2,47.96 -5.16,15.5 -16.17,27.82 -29.84,34.16 -6.12,2.84 -12.05,4.36 -17.89,4.85 -2.37,3.08 -5.75,6.1 -11.57,8.8l0.02 0.05c-8,3.72 -15.45,4.07 -22.21,1.65 -5.75,8.28 -13.44,14.83 -22.23,18.9l-0.04 0.02c-6.09,2.82 -11.98,4.34 -17.78,4.83 -2.38,3.07 -5.79,6.1 -11.73,8.86l-0.09 0.04c-9.74,4.47 -18.68,3.95 -26.53,-0.49 -6.11,12.21 -15.98,20.2 -27.87,25.71 -14.49,6.72 -29.96,8.7 -46.73,1.31 0.26,6 -1.52,11.75 -5.23,17.46 -3.56,5.46 -8.05,9.07 -13.6,11.64l-41.25 19.12c-5.58,2.59 -11.16,3.69 -17.43,2.91l-0.11 -0.01c-4.66,5.5 -10.71,10.2 -18.48,13.8 -24.23,11.24 -47.22,7.04 -70.09,-14.53 -15.77,-14.87 -31.56,-39.59 -48.16,-75.39 -13.52,-29.16 -20.14,-54.5 -20.18,-74.96 -0.07,-28.8 11.59,-49.22 34.39,-59.79z"/>
  <g id="_2009794853136">
   <g id="idioti">
    <g>
     <path class="fil1" d="M376.28 155.84c0,0 -11.47,-20.46 -32.39,-29.06 -20.92,-8.61 -40.53,-7.51 -45.04,-21.39 -8.43,-25.96 37.14,-57.25 85.84,-46.34 27,6.04 48.5,33.24 48.5,33.24l-56.91 63.55z"/>
     <path id="_1" class="fil2" d="M342.77 129.51l2.24 -5.46 0 0 2.04 0.88 1.98 0.96 1.92 1.01 1.85 1.06 1.79 1.11 1.73 1.15 1.67 1.19 1.6 1.21 1.54 1.23 1.48 1.25 1.41 1.26 1.36 1.26 1.28 1.26 1.23 1.25 1.16 1.23 1.09 1.22 1.04 1.19 0.97 1.15 0.9 1.12 0.84 1.07 0.78 1.03 0.71 0.96 0.64 0.91 0.58 0.83 0.52 0.77 0.45 0.69 0.38 0.59 0.31 0.51 0.25 0.41 0.18 0.3 0.12 0.2 0.05 0.09 -5.15 2.89 -0.02 -0.03 -0.08 -0.14 -0.16 -0.26 -0.21 -0.36 -0.29 -0.45 -0.34 -0.55 -0.41 -0.62 -0.47 -0.7 -0.54 -0.77 -0.6 -0.84 -0.66 -0.9 -0.72 -0.95 -0.78 -1 -0.84 -1.04 -0.91 -1.08 -0.96 -1.1 -1.02 -1.13 -1.08 -1.15 -1.13 -1.16 -1.19 -1.17 -1.25 -1.17 -1.31 -1.16 -1.36 -1.15 -1.41 -1.13 -1.47 -1.11 -1.52 -1.08 -1.58 -1.05 -1.62 -1.01 -1.68 -0.96 -1.73 -0.91 -1.77 -0.86 -1.83 -0.79 0 0zm-46.73 -23.2l5.62 -1.83 0 0 0.38 1.03 0.44 0.95 0.51 0.87 0.58 0.82 0.63 0.76 0.71 0.73 0.79 0.68 0.86 0.65 0.93 0.62 1.01 0.59 1.09 0.57 1.16 0.54 1.24 0.52 1.31 0.49 1.37 0.48 1.43 0.47 1.49 0.45 1.55 0.45 1.6 0.44 1.65 0.45 1.7 0.45 1.75 0.46 1.78 0.47 1.82 0.49 1.85 0.51 1.89 0.55 1.92 0.57 1.94 0.61 1.96 0.65 1.99 0.69 2.01 0.75 2.01 0.81 -2.24 5.46 -1.9 -0.76 -1.89 -0.7 -1.88 -0.66 -1.87 -0.62 -1.86 -0.59 -1.85 -0.55 -1.83 -0.52 -1.81 -0.5 -1.79 -0.49 -1.76 -0.46 -1.74 -0.46 -1.72 -0.46 -1.68 -0.45 -1.66 -0.46 -1.62 -0.47 -1.58 -0.48 -1.55 -0.5 -1.51 -0.53 -1.47 -0.56 -1.43 -0.6 -1.38 -0.64 -1.34 -0.69 -1.28 -0.75 -1.23 -0.82 -1.17 -0.89 -1.11 -0.97 -1.03 -1.05 -0.95 -1.14 -0.86 -1.23 -0.77 -1.31 -0.66 -1.41 -0.55 -1.48 0 0zm89.3 -50.14l-1.29 5.76 0 0 -4.41 -0.87 -4.39 -0.64 -4.35 -0.42 -4.3 -0.2 -4.25 0 -4.18 0.2 -4.12 0.39 -4.03 0.56 -3.94 0.74 -3.84 0.91 -3.73 1.05 -3.61 1.2 -3.48 1.34 -3.35 1.47 -3.19 1.58 -3.04 1.7 -2.86 1.79 -2.69 1.88 -2.51 1.96 -2.3 2.03 -2.1 2.09 -1.89 2.13 -1.67 2.17 -1.43 2.19 -1.2 2.21 -0.96 2.2 -0.72 2.2 -0.48 2.18 -0.22 2.16 0.02 2.13 0.28 2.12 0.55 2.1 -5.62 1.83 -0.72 -2.8 -0.38 -2.82 -0.03 -2.84 0.29 -2.82 0.61 -2.79 0.9 -2.75 1.17 -2.7 1.44 -2.64 1.69 -2.58 1.92 -2.51 2.15 -2.43 2.37 -2.34 2.56 -2.26 2.76 -2.17 2.95 -2.06 3.12 -1.95 3.29 -1.83 3.45 -1.71 3.59 -1.58 3.74 -1.43 3.86 -1.29 3.99 -1.13 4.1 -0.97 4.21 -0.78 4.3 -0.61 4.38 -0.41 4.46 -0.21 4.53 -0.01 4.59 0.22 4.63 0.45 4.68 0.68 4.7 0.93 0 0zm50.05 38.09l-4.4 -3.94 -0.12 3.8 -0.04 -0.05 -0.17 -0.21 -0.29 -0.35 -0.41 -0.49 -0.52 -0.6 -0.63 -0.72 -0.73 -0.83 -0.84 -0.92 -0.95 -1.01 -1.03 -1.09 -1.14 -1.15 -1.22 -1.22 -1.32 -1.27 -1.4 -1.32 -1.48 -1.34 -1.57 -1.38 -1.63 -1.39 -1.72 -1.39 -1.78 -1.4 -1.84 -1.38 -1.92 -1.37 -1.96 -1.34 -2.03 -1.3 -2.08 -1.26 -2.13 -1.2 -2.17 -1.14 -2.22 -1.07 -2.26 -0.99 -2.29 -0.9 -2.32 -0.81 -2.35 -0.7 -2.38 -0.6 1.29 -5.76 2.65 0.66 2.6 0.78 2.56 0.89 2.51 0.99 2.46 1.08 2.4 1.15 2.35 1.23 2.28 1.3 2.22 1.34 2.16 1.38 2.09 1.43 2.03 1.44 1.95 1.46 1.87 1.47 1.8 1.47 1.72 1.46 1.64 1.44 1.56 1.41 1.46 1.38 1.38 1.33 1.28 1.27 1.19 1.22 1.09 1.14 0.99 1.06 0.88 0.97 0.78 0.87 0.67 0.76 0.55 0.65 0.44 0.52 0.32 0.39 0.2 0.25 0.08 0.1 -0.11 3.8zm0.11 -3.8l1.55 1.95 -1.66 1.85 0.11 -3.8zm-61.42 63.41l56.91 -63.55 4.4 3.94 -56.91 63.56 -4.77 -0.53 0.37 -3.42zm4.4 3.95l-2.75 3.07 -2.02 -3.6 4.77 0.53z"/>
    </g>
    <g>
     <path class="fil3" d="M347.27 385.86c-19.16,-103.62 10.77,-355.62 174.76,-327.96 79.4,13.39 71.07,103.31 25.38,186.66 -22.95,41.86 -20.19,95.54 5.36,141.3 -55.54,45.45 -191.3,87.41 -205.5,0z"/>
     <path id="_1_6" class="fil2" d="M522.52 54.99l-0.98 5.82 0 0 -14.7 -1.75 -13.9 -0.22 -13.13 1.23 -12.39 2.58 -11.68 3.88 -10.99 5.1 -10.33 6.23 -9.69 7.31 -9.05 8.32 -8.45 9.25 -7.85 10.11 -7.26 10.9 -6.67 11.6 -6.12 12.24 -5.56 12.78 -5.02 13.27 -4.49 13.65 -3.98 13.97 -3.48 14.2 -2.99 14.36 -2.53 14.43 -2.07 14.44 -1.63 14.34 -1.2 14.19 -0.8 13.95 -0.4 13.62 -0.02 13.23 0.34 12.74 0.69 12.19 1.02 11.54 1.34 10.82 1.63 10.02 -5.81 1.07 -1.67 -10.26 -1.36 -11.03 -1.04 -11.74 -0.7 -12.36 -0.34 -12.92 0.02 -13.39 0.4 -13.79 0.81 -14.11 1.21 -14.35 1.65 -14.52 2.1 -14.6 2.56 -14.62 3.03 -14.56 3.53 -14.4 4.04 -14.19 4.57 -13.89 5.12 -13.52 5.68 -13.06 6.26 -12.53 6.86 -11.92 7.49 -11.24 8.12 -10.46 8.78 -9.62 9.46 -8.68 10.16 -7.67 10.87 -6.56 11.58 -5.37 12.32 -4.09 13.05 -2.73 13.79 -1.28 14.53 0.23 15.27 1.82 0 0zm27.48 190.98l-5.18 -2.83 0 0 4.14 -7.77 3.91 -7.79 3.68 -7.79 3.43 -7.79 3.17 -7.76 2.91 -7.71 2.64 -7.66 2.35 -7.59 2.07 -7.49 1.76 -7.39 1.45 -7.27 1.14 -7.13 0.81 -6.98 0.48 -6.8 0.13 -6.62 -0.21 -6.42 -0.57 -6.2 -0.93 -5.96 -1.29 -5.72 -1.68 -5.45 -2.05 -5.18 -2.44 -4.89 -2.83 -4.6 -3.24 -4.29 -3.66 -3.98 -4.08 -3.66 -4.53 -3.32 -4.98 -2.98 -5.47 -2.61 -5.95 -2.24 -6.46 -1.85 -6.98 -1.44 0.98 -5.82 7.4 1.52 6.9 1.97 6.42 2.42 5.94 2.85 5.46 3.26 4.99 3.65 4.51 4.05 4.04 4.4 3.58 4.74 3.12 5.06 2.67 5.35 2.24 5.63 1.8 5.89 1.4 6.13 0.99 6.35 0.6 6.56 0.22 6.74 -0.14 6.93 -0.5 7.08 -0.84 7.24 -1.18 7.37 -1.49 7.48 -1.82 7.6 -2.11 7.68 -2.41 7.77 -2.69 7.82 -2.97 7.87 -3.24 7.91 -3.49 7.93 -3.74 7.93 -3.98 7.91 -4.2 7.89 0 0zm4.64 142.18l-3.74 -4.57 -0.71 3.72 -2.37 -4.38 -2.23 -4.43 -2.1 -4.47 -1.95 -4.51 -1.82 -4.54 -1.69 -4.57 -1.54 -4.6 -1.4 -4.62 -1.26 -4.63 -1.13 -4.66 -0.98 -4.66 -0.84 -4.67 -0.7 -4.68 -0.55 -4.67 -0.41 -4.67 -0.27 -4.67 -0.12 -4.65 0.02 -4.65 0.17 -4.62 0.32 -4.6 0.46 -4.58 0.62 -4.55 0.76 -4.52 0.91 -4.47 1.06 -4.44 1.21 -4.4 1.36 -4.35 1.52 -4.3 1.66 -4.24 1.82 -4.19 1.97 -4.12 2.13 -4.05 5.18 2.83 -2.03 3.87 -1.88 3.93 -1.73 3.98 -1.59 4.05 -1.44 4.1 -1.3 4.15 -1.16 4.2 -1.01 4.25 -0.87 4.28 -0.73 4.33 -0.59 4.35 -0.44 4.39 -0.31 4.41 -0.16 4.44 -0.02 4.45 0.11 4.47 0.26 4.49 0.39 4.49 0.54 4.5 0.67 4.5 0.81 4.5 0.94 4.49 1.08 4.49 1.22 4.47 1.36 4.45 1.48 4.44 1.63 4.41 1.76 4.38 1.89 4.36 2.02 4.31 2.16 4.29 2.29 4.24 -0.71 3.72zm0.71 -3.72l1.2 2.15 -1.91 1.57 0.71 -3.72zm-210.98 1.97l5.81 -1.07 0.01 0.06 1.61 7.52 2.25 6.77 2.85 6.04 3.39 5.37 3.92 4.73 4.42 4.12 4.89 3.54 5.35 3 5.77 2.46 6.17 1.96 6.53 1.45 6.86 0.97 7.15 0.51 7.41 0.06 7.61 -0.37 7.79 -0.77 7.92 -1.15 8.02 -1.52 8.08 -1.86 8.09 -2.18 8.07 -2.47 8.02 -2.74 7.91 -3 7.79 -3.21 7.61 -3.42 7.39 -3.61 7.15 -3.75 6.87 -3.89 6.54 -3.99 6.17 -4.08 5.77 -4.13 5.34 -4.17 3.74 4.57 -5.54 4.33 -5.96 4.27 -6.36 4.19 -6.71 4.1 -7.03 3.98 -7.31 3.85 -7.56 3.67 -7.77 3.5 -7.95 3.29 -8.09 3.05 -8.2 2.81 -8.26 2.53 -8.29 2.23 -8.3 1.91 -8.25 1.56 -8.18 1.19 -8.08 0.8 -7.93 0.38 -7.75 -0.06 -7.54 -0.54 -7.3 -1.03 -7 -1.56 -6.69 -2.12 -6.33 -2.7 -5.92 -3.32 -5.47 -3.96 -4.96 -4.63 -4.4 -5.31 -3.8 -6 -3.14 -6.7 -2.47 -7.4 -1.74 -8.12 0.01 0.06zm5.81 -1.07l0.01 0.06 0 0 -0.01 -0.06z"/>
    </g>
    <g>
     <path class="fil4" d="M414.8 117.84c30.35,61.48 73.65,64.01 117.29,64.96 -59.76,67.29 -157.02,43.39 -117.29,-64.96z"/>
     <path id="_1_7" class="fil2" d="M534.3 184.76l-4.41 -3.92 2.14 4.91 -4.1 -0.1 -4.11 -0.11 -4.1 -0.15 -4.11 -0.18 -4.1 -0.24 -4.09 -0.31 -4.09 -0.37 -4.07 -0.47 -4.07 -0.55 -4.05 -0.67 -4.03 -0.78 -4.01 -0.91 -3.99 -1.06 -3.96 -1.2 -3.93 -1.37 -3.9 -1.54 -3.87 -1.73 -3.82 -1.92 -3.78 -2.12 -3.74 -2.35 -3.68 -2.57 -3.63 -2.8 -3.57 -3.05 -3.51 -3.31 -3.45 -3.56 -3.38 -3.85 -3.31 -4.12 -3.24 -4.42 -3.16 -4.72 -3.09 -5.03 -3.01 -5.35 -2.93 -5.69 5.29 -2.61 2.84 5.5 2.9 5.16 2.97 4.83 3.03 4.52 3.09 4.22 3.15 3.91 3.2 3.64 3.25 3.37 3.3 3.11 3.36 2.87 3.4 2.63 3.44 2.4 3.5 2.19 3.53 1.99 3.58 1.8 3.63 1.62 3.66 1.44 3.71 1.29 3.75 1.14 3.78 1 3.82 0.87 3.85 0.75 3.89 0.64 3.92 0.53 3.95 0.45 3.97 0.37 3.99 0.29 4.02 0.24 4.04 0.18 4.05 0.14 4.07 0.12 4.08 0.1 2.14 4.91zm-2.14 -4.91l6.38 0.13 -4.24 4.78 -2.14 -4.91zm-114.72 -63.31l-5.29 2.61 5.42 -0.29 -3.28 9.76 -2.51 9.23 -1.78 8.73 -1.08 8.2 -0.43 7.69 0.2 7.16 0.79 6.64 1.33 6.12 1.84 5.61 2.32 5.1 2.77 4.6 3.18 4.11 3.56 3.63 3.93 3.15 4.27 2.67 4.58 2.2 4.88 1.72 5.14 1.24 5.38 0.75 5.59 0.26 5.76 -0.23 5.91 -0.74 6.02 -1.24 6.11 -1.75 6.15 -2.27 6.17 -2.77 6.15 -3.3 6.1 -3.81 6.02 -4.34 5.9 -4.85 5.76 -5.38 5.59 -5.91 4.41 3.92 -5.83 6.17 -6.03 5.64 -6.2 5.09 -6.33 4.56 -6.43 4.02 -6.5 3.48 -6.55 2.95 -6.55 2.41 -6.52 1.87 -6.47 1.34 -6.39 0.79 -6.27 0.26 -6.11 -0.29 -5.94 -0.83 -5.72 -1.38 -5.46 -1.93 -5.17 -2.48 -4.84 -3.03 -4.47 -3.58 -4.05 -4.13 -3.61 -4.66 -3.12 -5.19 -2.59 -5.7 -2.04 -6.2 -1.46 -6.7 -0.85 -7.19 -0.21 -7.67 0.45 -8.16 1.14 -8.63 1.86 -9.11 2.6 -9.59 3.38 -10.06 5.42 -0.29zm-5.42 0.29l2.37 -6.47 3.05 6.18 -5.42 0.29z"/>
    </g>
    <g>
     <path class="fil5" d="M466.74 85.78c15.21,0 26.34,12.58 24.86,28.09 -1.49,15.51 -15.02,28.09 -30.24,28.09 -15.21,0 -26.34,-12.58 -24.86,-28.09 1.49,-15.51 15.02,-28.09 30.24,-28.09z"/>
     <path id="_1_8" class="fil2" d="M494.54 114.15l-5.88 -0.56 0 0 0.09 -1.3 0.03 -1.28 -0.04 -1.26 -0.1 -1.23 -0.16 -1.21 -0.21 -1.19 -0.28 -1.16 -0.32 -1.13 -0.39 -1.1 -0.43 -1.07 -0.49 -1.03 -0.53 -1.01 -0.59 -0.97 -0.63 -0.93 -0.67 -0.9 -0.72 -0.86 -0.77 -0.81 -0.8 -0.78 -0.84 -0.73 -0.88 -0.69 -0.92 -0.64 -0.96 -0.59 -0.99 -0.55 -1.02 -0.49 -1.06 -0.44 -1.09 -0.39 -1.12 -0.33 -1.15 -0.28 -1.18 -0.22 -1.21 -0.16 -1.23 -0.09 -1.26 -0.04 0 -5.9 1.56 0.04 1.55 0.12 1.51 0.2 1.49 0.27 1.45 0.35 1.43 0.43 1.38 0.49 1.35 0.56 1.31 0.63 1.26 0.7 1.23 0.76 1.17 0.82 1.13 0.88 1.08 0.94 1.03 0.99 0.97 1.04 0.92 1.09 0.86 1.15 0.8 1.18 0.75 1.24 0.67 1.27 0.62 1.32 0.55 1.35 0.48 1.39 0.42 1.42 0.34 1.45 0.27 1.48 0.2 1.51 0.12 1.53 0.04 1.56 -0.03 1.57 -0.11 1.59 0 0zm-33.18 30.77l0 -5.91 0 0 1.27 -0.03 1.26 -0.1 1.25 -0.16 1.24 -0.22 1.22 -0.28 1.21 -0.34 1.19 -0.4 1.17 -0.45 1.15 -0.51 1.12 -0.56 1.1 -0.61 1.08 -0.67 1.05 -0.71 1.02 -0.75 0.98 -0.8 0.95 -0.85 0.91 -0.89 0.88 -0.92 0.83 -0.97 0.8 -1 0.75 -1.03 0.7 -1.07 0.66 -1.1 0.61 -1.13 0.55 -1.15 0.51 -1.18 0.45 -1.21 0.4 -1.23 0.33 -1.24 0.28 -1.27 0.22 -1.29 0.16 -1.3 5.88 0.56 -0.19 1.59 -0.27 1.57 -0.34 1.54 -0.41 1.52 -0.48 1.49 -0.55 1.46 -0.61 1.43 -0.67 1.4 -0.74 1.36 -0.79 1.32 -0.84 1.29 -0.91 1.24 -0.95 1.2 -1 1.16 -1.05 1.11 -1.1 1.07 -1.14 1.01 -1.19 0.97 -1.22 0.91 -1.26 0.85 -1.3 0.8 -1.34 0.74 -1.37 0.69 -1.39 0.61 -1.43 0.56 -1.46 0.48 -1.48 0.42 -1.5 0.34 -1.52 0.28 -1.55 0.19 -1.55 0.12 -1.58 0.05 0 0zm-27.8 -31.33l5.88 0.56 0 0 -0.09 1.3 -0.03 1.28 0.04 1.26 0.1 1.23 0.16 1.21 0.21 1.19 0.28 1.16 0.32 1.13 0.39 1.1 0.43 1.07 0.49 1.04 0.53 1 0.59 0.97 0.63 0.93 0.67 0.9 0.72 0.86 0.76 0.81 0.81 0.78 0.84 0.73 0.88 0.69 0.92 0.64 0.96 0.59 0.99 0.55 1.02 0.49 1.06 0.44 1.09 0.39 1.12 0.34 1.15 0.27 1.18 0.22 1.21 0.16 1.23 0.1 1.26 0.03 0 5.91 -1.56 -0.05 -1.55 -0.12 -1.51 -0.19 -1.49 -0.28 -1.46 -0.35 -1.42 -0.42 -1.38 -0.5 -1.35 -0.56 -1.31 -0.63 -1.26 -0.7 -1.23 -0.76 -1.17 -0.82 -1.13 -0.88 -1.08 -0.94 -1.03 -0.98 -0.97 -1.05 -0.92 -1.09 -0.86 -1.15 -0.8 -1.18 -0.75 -1.24 -0.68 -1.27 -0.61 -1.32 -0.55 -1.35 -0.48 -1.39 -0.42 -1.42 -0.34 -1.45 -0.27 -1.48 -0.2 -1.51 -0.12 -1.53 -0.04 -1.56 0.03 -1.57 0.11 -1.59 0 0zm33.18 -30.76l0 5.9 0 0 -1.27 0.04 -1.26 0.09 -1.25 0.16 -1.24 0.22 -1.22 0.29 -1.21 0.34 -1.19 0.39 -1.17 0.46 -1.15 0.5 -1.12 0.56 -1.11 0.62 -1.07 0.66 -1.05 0.71 -1.02 0.75 -0.98 0.8 -0.95 0.85 -0.91 0.89 -0.88 0.92 -0.83 0.97 -0.8 1 -0.75 1.03 -0.7 1.07 -0.66 1.1 -0.61 1.13 -0.55 1.15 -0.51 1.18 -0.45 1.21 -0.4 1.23 -0.33 1.24 -0.28 1.27 -0.22 1.29 -0.16 1.3 -5.88 -0.56 0.19 -1.59 0.27 -1.57 0.34 -1.54 0.41 -1.52 0.48 -1.49 0.55 -1.46 0.61 -1.43 0.67 -1.4 0.74 -1.36 0.79 -1.32 0.84 -1.29 0.9 -1.24 0.96 -1.2 1 -1.16 1.05 -1.11 1.1 -1.07 1.14 -1.01 1.19 -0.97 1.22 -0.91 1.26 -0.85 1.3 -0.8 1.34 -0.74 1.36 -0.68 1.4 -0.62 1.43 -0.55 1.46 -0.49 1.48 -0.42 1.5 -0.34 1.52 -0.28 1.55 -0.19 1.55 -0.12 1.58 -0.04 0 0z"/>
    </g>
    <g>
     <path class="fil6" d="M528.88 112.77c17.45,0 30.44,13.3 29.01,29.7 -1.43,16.4 -16.73,29.69 -34.18,29.69 -17.45,0 -30.43,-13.29 -29.01,-29.69 1.43,-16.4 16.73,-29.7 34.18,-29.7z"/>
     <path id="_1_9" class="fil2" d="M560.85 142.72l-5.92 -0.5 0 0 0.09 -1.38 0.01 -1.34 -0.07 -1.33 -0.13 -1.3 -0.21 -1.28 -0.27 -1.25 -0.33 -1.23 -0.4 -1.19 -0.46 -1.17 -0.52 -1.14 -0.58 -1.1 -0.63 -1.07 -0.7 -1.04 -0.74 -0.99 -0.8 -0.96 -0.86 -0.92 -0.9 -0.88 -0.95 -0.83 -1 -0.79 -1.04 -0.74 -1.09 -0.69 -1.13 -0.64 -1.17 -0.59 -1.21 -0.54 -1.25 -0.48 -1.29 -0.42 -1.32 -0.36 -1.36 -0.3 -1.39 -0.23 -1.42 -0.18 -1.45 -0.1 -1.48 -0.04 0.01 -5.9 1.76 0.04 1.74 0.12 1.71 0.21 1.67 0.29 1.64 0.36 1.61 0.44 1.57 0.51 1.52 0.58 1.49 0.66 1.44 0.72 1.39 0.79 1.34 0.85 1.29 0.92 1.23 0.97 1.18 1.04 1.12 1.09 1.06 1.14 1 1.2 0.94 1.25 0.86 1.29 0.8 1.34 0.73 1.38 0.65 1.43 0.58 1.46 0.49 1.5 0.42 1.53 0.34 1.57 0.25 1.6 0.17 1.62 0.08 1.64 -0.01 1.67 -0.1 1.69 0 0zm-37.14 32.4l0.01 -5.91 0 0 1.49 -0.04 1.47 -0.1 1.46 -0.17 1.44 -0.24 1.43 -0.31 1.4 -0.36 1.38 -0.43 1.36 -0.49 1.33 -0.54 1.3 -0.6 1.27 -0.66 1.24 -0.71 1.2 -0.75 1.16 -0.81 1.13 -0.86 1.08 -0.9 1.04 -0.94 0.99 -0.99 0.95 -1.02 0.9 -1.07 0.84 -1.09 0.79 -1.14 0.74 -1.16 0.68 -1.19 0.61 -1.22 0.56 -1.25 0.5 -1.28 0.43 -1.29 0.36 -1.32 0.3 -1.33 0.23 -1.36 0.15 -1.37 5.92 0.5 -0.19 1.68 -0.28 1.66 -0.37 1.64 -0.44 1.6 -0.53 1.58 -0.6 1.55 -0.67 1.51 -0.75 1.48 -0.82 1.43 -0.88 1.4 -0.95 1.35 -1.01 1.31 -1.06 1.27 -1.13 1.22 -1.18 1.17 -1.23 1.12 -1.28 1.06 -1.33 1.01 -1.38 0.96 -1.42 0.9 -1.46 0.84 -1.5 0.77 -1.54 0.71 -1.57 0.64 -1.61 0.58 -1.63 0.51 -1.67 0.43 -1.69 0.36 -1.71 0.28 -1.74 0.21 -1.75 0.12 -1.77 0.05 0 0zm-31.96 -32.9l5.91 0.5 0 0 -0.08 1.37 -0.01 1.35 0.06 1.32 0.14 1.31 0.2 1.27 0.27 1.26 0.33 1.22 0.4 1.2 0.46 1.16 0.52 1.14 0.58 1.1 0.64 1.08 0.69 1.03 0.75 1 0.8 0.96 0.85 0.91 0.9 0.88 0.95 0.83 1 0.79 1.04 0.74 1.09 0.69 1.13 0.65 1.17 0.58 1.22 0.54 1.25 0.48 1.28 0.42 1.33 0.36 1.35 0.3 1.39 0.24 1.43 0.17 1.45 0.1 1.48 0.04 -0.01 5.91 -1.77 -0.05 -1.73 -0.12 -1.71 -0.21 -1.68 -0.28 -1.64 -0.37 -1.61 -0.43 -1.56 -0.52 -1.53 -0.58 -1.48 -0.66 -1.44 -0.72 -1.39 -0.79 -1.34 -0.85 -1.29 -0.92 -1.24 -0.97 -1.18 -1.03 -1.12 -1.09 -1.06 -1.15 -1 -1.19 -0.93 -1.25 -0.87 -1.3 -0.8 -1.34 -0.72 -1.38 -0.65 -1.42 -0.58 -1.47 -0.5 -1.5 -0.42 -1.53 -0.34 -1.57 -0.25 -1.59 -0.17 -1.62 -0.07 -1.65 0 -1.67 0.11 -1.68 0 0zm37.14 -32.4l-0.01 5.9 0 0 -1.49 0.04 -1.48 0.1 -1.46 0.18 -1.44 0.24 -1.42 0.3 -1.41 0.36 -1.38 0.43 -1.36 0.49 -1.33 0.54 -1.3 0.6 -1.26 0.66 -1.24 0.71 -1.2 0.76 -1.17 0.81 -1.12 0.85 -1.09 0.9 -1.04 0.95 -0.99 0.98 -0.95 1.03 -0.89 1.06 -0.85 1.1 -0.79 1.13 -0.73 1.16 -0.68 1.2 -0.62 1.22 -0.56 1.25 -0.49 1.27 -0.43 1.29 -0.37 1.32 -0.3 1.34 -0.22 1.35 -0.16 1.38 -5.91 -0.5 0.19 -1.69 0.28 -1.66 0.36 -1.63 0.45 -1.61 0.52 -1.58 0.6 -1.54 0.68 -1.52 0.75 -1.47 0.81 -1.44 0.88 -1.39 0.95 -1.36 1.01 -1.31 1.07 -1.27 1.12 -1.22 1.18 -1.17 1.24 -1.12 1.28 -1.06 1.33 -1.01 1.37 -0.96 1.42 -0.89 1.46 -0.84 1.5 -0.78 1.54 -0.71 1.58 -0.64 1.6 -0.58 1.64 -0.5 1.66 -0.44 1.69 -0.36 1.72 -0.28 1.73 -0.21 1.76 -0.12 1.77 -0.04 0 0z"/>
    </g>
    <ellipse class="fil4" transform="matrix(0.347062 -0 -0.0292254 0.307559 480.628 118.146)" rx="15.91" ry="22.19"/>
    <ellipse class="fil4" transform="matrix(0.315597 -0 -0.0865866 0.307559 508.228 133.4)" rx="15.91" ry="22.19"/>
    <g>
     <path class="fil7" d="M405.65 158.97c-1.64,32.51 13.45,52.28 35.22,58.91 1.29,-4.67 2,-9.69 2,-14.93 0,-24.39 -15.28,-44.16 -34.13,-44.16 -1.04,0 -2.07,0.06 -3.09,0.18z"/>
     <path id="_1_10" class="fil2" d="M438.02 217.09l5.69 1.58 -3.7 2.03 -2.14 -0.69 -2.09 -0.78 -2.05 -0.86 -2.01 -0.95 -1.96 -1.03 -1.91 -1.1 -1.85 -1.2 -1.81 -1.27 -1.74 -1.35 -1.69 -1.44 -1.63 -1.52 -1.56 -1.6 -1.5 -1.68 -1.43 -1.76 -1.36 -1.83 -1.29 -1.92 -1.21 -2 -1.14 -2.07 -1.06 -2.15 -0.98 -2.22 -0.89 -2.3 -0.81 -2.38 -0.73 -2.45 -0.65 -2.52 -0.55 -2.6 -0.46 -2.67 -0.37 -2.74 -0.28 -2.82 -0.19 -2.89 -0.08 -2.96 0 -3.03 0.11 -3.1 5.9 0.3 -0.1 2.92 -0.01 2.84 0.08 2.76 0.17 2.68 0.26 2.61 0.35 2.53 0.42 2.45 0.51 2.37 0.58 2.3 0.66 2.22 0.73 2.15 0.81 2.06 0.88 2 0.94 1.91 1.01 1.85 1.08 1.77 1.14 1.69 1.2 1.62 1.26 1.55 1.31 1.48 1.38 1.41 1.43 1.33 1.48 1.26 1.54 1.2 1.58 1.12 1.64 1.05 1.69 0.97 1.73 0.91 1.78 0.84 1.82 0.77 1.87 0.69 1.91 0.63 -3.71 2.03zm5.69 1.58l-0.81 2.92 -2.89 -0.89 3.7 -2.03zm-3.79 -15.72l5.9 0 0 0 0 0.51 -0.01 0.52 -0.01 0.51 -0.01 0.51 -0.02 0.51 -0.03 0.51 -0.02 0.51 -0.04 0.5 -0.03 0.51 -0.04 0.5 -0.05 0.5 -0.05 0.5 -0.05 0.5 -0.06 0.5 -0.06 0.49 -0.06 0.49 -0.07 0.5 -0.07 0.49 -0.08 0.49 -0.08 0.48 -0.08 0.49 -0.09 0.48 -0.1 0.48 -0.09 0.48 -0.1 0.48 -0.11 0.47 -0.1 0.47 -0.11 0.48 -0.12 0.46 -0.12 0.47 -0.12 0.47 -0.13 0.46 -5.69 -1.58 0.11 -0.42 0.11 -0.41 0.11 -0.42 0.1 -0.42 0.1 -0.42 0.1 -0.43 0.09 -0.42 0.09 -0.43 0.09 -0.43 0.08 -0.43 0.08 -0.43 0.08 -0.44 0.07 -0.44 0.07 -0.44 0.07 -0.44 0.06 -0.44 0.06 -0.44 0.05 -0.45 0.05 -0.45 0.05 -0.44 0.04 -0.46 0.04 -0.45 0.04 -0.45 0.03 -0.46 0.03 -0.45 0.03 -0.46 0.02 -0.46 0.01 -0.46 0.02 -0.46 0.01 -0.46 0 -0.47 0.01 -0.46 0 0zm-31.18 -41.21l0 -5.9 0 0 1.94 0.06 1.93 0.19 1.9 0.31 1.86 0.43 1.83 0.55 1.79 0.66 1.75 0.76 1.7 0.87 1.66 0.97 1.6 1.06 1.56 1.16 1.5 1.25 1.45 1.33 1.39 1.41 1.33 1.5 1.28 1.57 1.21 1.64 1.14 1.71 1.08 1.78 1.02 1.84 0.94 1.91 0.87 1.95 0.8 2.02 0.72 2.07 0.65 2.12 0.57 2.16 0.48 2.21 0.4 2.26 0.32 2.28 0.23 2.33 0.13 2.36 0.05 2.39 -5.9 0 -0.05 -2.16 -0.12 -2.13 -0.21 -2.09 -0.28 -2.06 -0.36 -2.02 -0.44 -1.99 -0.5 -1.93 -0.58 -1.89 -0.64 -1.85 -0.71 -1.79 -0.78 -1.74 -0.83 -1.68 -0.89 -1.62 -0.95 -1.55 -0.99 -1.5 -1.05 -1.42 -1.1 -1.36 -1.15 -1.28 -1.18 -1.21 -1.23 -1.13 -1.27 -1.05 -1.3 -0.96 -1.34 -0.89 -1.36 -0.8 -1.4 -0.71 -1.43 -0.63 -1.45 -0.53 -1.47 -0.44 -1.5 -0.34 -1.52 -0.25 -1.54 -0.16 -1.56 -0.05 0 0zm-0.14 -2.62l-5.9 -0.3 2.61 -2.78 0.22 -0.03 0.21 -0.02 0.2 -0.02 0.22 -0.02 0.21 -0.02 0.21 -0.02 0.22 -0.01 0.21 -0.01 0.22 -0.02 0.21 -0.01 0.23 0 0.2 -0.01 0.21 -0.01 0.23 0 0.21 0 0.22 0 0 5.9 -0.18 0 -0.18 0.01 -0.16 0 -0.17 0 -0.19 0.01 -0.16 0.01 -0.17 0 -0.17 0.01 -0.18 0.01 -0.16 0.01 -0.18 0.02 -0.17 0.01 -0.16 0.02 -0.18 0.01 -0.17 0.02 -0.17 0.02 2.61 -2.78zm-5.9 -0.3l0.13 -2.5 2.48 -0.28 -2.61 2.78z"/>
    </g>
    <g>
     <path class="fil1" d="M573.72 182.45c4.92,51.96 -21.18,122.11 -67.99,132.44 -42.83,9.45 -48.52,-64.36 -3.46,-72.6 51.97,-9.5 57.71,-23.21 71.45,-59.84z"/>
     <path id="_1_11" class="fil2" d="M506.36 317.77l-1.27 -5.75 0 0 4.09 -1.08 3.99 -1.4 3.87 -1.71 3.76 -2.01 3.66 -2.29 3.53 -2.57 3.42 -2.82 3.3 -3.08 3.18 -3.32 3.05 -3.54 2.93 -3.75 2.79 -3.95 2.66 -4.12 2.51 -4.3 2.38 -4.45 2.23 -4.59 2.09 -4.71 1.94 -4.82 1.79 -4.92 1.63 -4.99 1.48 -5.07 1.32 -5.11 1.16 -5.15 1 -5.17 0.83 -5.18 0.67 -5.17 0.5 -5.15 0.33 -5.11 0.16 -5.06 -0.01 -4.99 -0.19 -4.91 -0.36 -4.81 5.88 -0.55 0.38 5.03 0.19 5.12 0.02 5.2 -0.17 5.25 -0.34 5.31 -0.52 5.33 -0.69 5.35 -0.87 5.36 -1.03 5.35 -1.2 5.33 -1.37 5.29 -1.53 5.24 -1.69 5.18 -1.85 5.1 -2.02 5 -2.17 4.91 -2.33 4.78 -2.48 4.65 -2.64 4.5 -2.79 4.34 -2.94 4.16 -3.1 3.98 -3.25 3.76 -3.4 3.55 -3.55 3.31 -3.7 3.06 -3.85 2.79 -4 2.51 -4.14 2.21 -4.28 1.89 -4.43 1.55 -4.56 1.21 0 0zm-4.62 -78.37l1.07 5.79 0 0 -3.79 0.89 -3.49 1.21 -3.2 1.52 -2.93 1.78 -2.67 2.04 -2.41 2.27 -2.16 2.48 -1.9 2.66 -1.65 2.83 -1.41 2.96 -1.15 3.08 -0.91 3.16 -0.66 3.23 -0.41 3.25 -0.16 3.26 0.08 3.23 0.32 3.18 0.55 3.09 0.79 2.99 1.02 2.84 1.23 2.67 1.45 2.49 1.65 2.26 1.85 2.03 2.04 1.77 2.24 1.5 2.43 1.22 2.64 0.9 2.87 0.58 3.09 0.22 3.34 -0.17 3.59 -0.59 1.27 5.75 -4.22 0.7 -4.03 0.2 -3.83 -0.28 -3.62 -0.73 -3.38 -1.15 -3.12 -1.56 -2.86 -1.92 -2.58 -2.23 -2.3 -2.52 -2.02 -2.77 -1.74 -2.99 -1.46 -3.17 -1.19 -3.32 -0.91 -3.45 -0.64 -3.55 -0.37 -3.62 -0.09 -3.67 0.19 -3.7 0.46 -3.7 0.75 -3.66 1.03 -3.61 1.33 -3.53 1.62 -3.42 1.92 -3.28 2.22 -3.11 2.54 -2.91 2.84 -2.67 3.16 -2.41 3.46 -2.11 3.78 -1.78 4.07 -1.42 4.37 -1.03 0 0zm74.92 -57.23l-5.88 0.55 5.71 0.76 -1.27 3.37 -1.24 3.25 -1.21 3.13 -1.19 3.01 -1.2 2.91 -1.2 2.79 -1.22 2.69 -1.25 2.6 -1.29 2.49 -1.34 2.4 -1.4 2.31 -1.48 2.22 -1.56 2.14 -1.65 2.04 -1.75 1.97 -1.87 1.87 -1.98 1.79 -2.12 1.71 -2.24 1.63 -2.39 1.55 -2.54 1.47 -2.69 1.4 -2.86 1.33 -3.03 1.27 -3.22 1.21 -3.41 1.15 -3.61 1.11 -3.83 1.05 -4.05 1.02 -4.28 0.97 -4.53 0.95 -4.78 0.91 -1.07 -5.79 4.69 -0.9 4.43 -0.92 4.16 -0.95 3.92 -0.98 3.69 -1.01 3.45 -1.06 3.23 -1.09 3.02 -1.14 2.83 -1.18 2.64 -1.23 2.45 -1.28 2.3 -1.33 2.13 -1.38 2 -1.45 1.86 -1.51 1.75 -1.57 1.64 -1.66 1.56 -1.73 1.47 -1.82 1.39 -1.91 1.34 -2.02 1.28 -2.11 1.25 -2.23 1.2 -2.34 1.19 -2.45 1.16 -2.58 1.17 -2.7 1.16 -2.82 1.17 -2.96 1.19 -3.09 1.23 -3.22 1.26 -3.36 5.71 0.75zm-5.71 -0.75l4.5 -12 1.21 12.75 -5.71 -0.75z"/>
    </g>
    <path class="fil8" d="M45.01 402.49c0,4.07 -0.68,7.12 -3.05,9.5l-10.18 9.84c-0.68,1.01 -2.38,2.03 -2.38,3.05 0,1.02 0.68,2.04 2.04,2.04l53.27 0c1.36,0 2.04,-1.02 2.04,-2.04 0,-1.02 -1.7,-2.04 -2.38,-3.05l-10.18 -9.84c-2.37,-2.38 -3.05,-5.43 -3.05,-9.5l0 -205.62c0,-4.07 0.68,-7.13 3.05,-9.5l10.18 -9.84c0.68,-1.02 2.38,-2.04 2.38,-3.05 0,-1.02 -0.68,-2.04 -2.04,-2.04l-53.27 0c-1.36,0 -2.04,1.02 -2.04,2.04 0,1.01 1.7,2.03 2.38,3.05l10.18 9.84c2.37,2.37 3.05,5.43 3.05,9.5l0 205.62z"/>
    <path id="_1_12" class="fil8" d="M143.13 279.6l-0.57 0c-4.81,-5.37 -10.46,-9.89 -18.66,-9.89 -11.59,0 -25.73,7.35 -25.73,70.4 0,79.74 13.01,86.81 25.45,86.81 9.04,0 14.13,-5.09 18.94,-10.75l0.57 0 0 9.62c0,0.56 0.84,1.13 1.98,1.13l26.29 0c1.13,0 1.98,-0.29 1.98,-1.13 0,-0.57 -0.56,-1.42 -1.41,-1.98l-8.77 -9.9c-0.28,-0.57 -0.28,-1.41 -0.28,-2.54l0 -194.82c0,-1.13 -0.57,-1.7 -1.7,-1.7l-26.86 0c-1.13,0 -1.98,0.29 -1.98,1.13 0,0.57 0.57,1.42 1.42,1.98l8.2 8.2c0.84,0.57 1.13,1.13 1.13,2.27l0 51.17zm0 112.54c0,13.85 -5.94,22.62 -12.73,22.62 -7.35,0 -10.18,-6.5 -10.18,-74.65 0,-52.31 3.4,-58.24 10.46,-58.24 3.96,0 12.45,7.35 12.45,21.2l0 89.07z"/>
    <path id="_2" class="fil8" d="M186.67 411.37c0,1.13 0,1.97 -0.57,2.54l-8.76 9.9c-0.57,0.56 -1.13,1.41 -1.13,1.98 0,0.84 0.85,1.13 1.69,1.13l37.33 0c1.13,0 1.69,-0.29 1.69,-1.13 0,-0.57 -0.56,-1.42 -1.13,-1.98l-8.76 -9.9c-0.57,-0.57 -0.57,-1.41 -0.57,-2.54l0 -139.97c0,-1.13 -0.56,-1.69 -1.41,-1.69l-27.15 0c-0.84,0 -1.69,0.28 -1.69,1.13 0,0.56 0.56,1.41 1.13,2.26l8.48 7.92c0.57,0.56 0.85,1.13 0.85,2.26l0 128.09zm9.61 -196.52c-5.93,0 -10.46,7.35 -10.46,14.99 0,7.35 4.53,14.98 10.46,14.98 5.66,0 10.18,-7.63 10.18,-14.98 0,-7.64 -4.52,-14.99 -10.18,-14.99z"/>
    <path id="_3" class="fil8" d="M259.05 269.71c-18.09,0 -33.36,16.11 -33.36,71.82 0,69.84 15.27,85.39 33.36,85.39 18.38,0 33.65,-15.55 33.65,-85.39 0,-55.71 -15.27,-71.82 -33.65,-71.82zm0 145.05c-7.35,0 -11.31,-9.62 -11.31,-73.23 0,-49.2 3.96,-59.66 11.31,-59.66 7.64,0 11.6,10.46 11.6,59.66 0,63.61 -3.96,73.23 -11.6,73.23z"/>
    <path id="_4" class="fil8" d="M331.72 283.84c0,-1.97 1.41,-3.67 2.26,-5.08l6.51 -7.36c1.69,-1.41 1.41,-3.39 0,-3.39l-6.51 0c-1.98,0 -2.26,-1.13 -2.26,-2.54l0 -32.52c0,-1.41 -0.56,-1.98 -1.7,-1.98l-8.48 0c-1.41,0 -2.26,1.13 -2.26,2.54 0,11.31 -1.41,32.8 -13.86,35.07 -2.82,0.28 -3.95,1.13 -3.95,1.97 0,0.57 0.84,1.14 1.41,1.7l8.2 7.92c0.85,0.85 0.85,2.54 0.85,3.67l0 114.52c0,23.18 6.5,28.56 18.38,28.56 11.87,0 17.53,-9.62 19.51,-17.53 0.28,-0.85 -0.29,-1.7 -0.85,-1.7 -0.57,0 -1.13,0.57 -1.7,1.13 -1.69,2.83 -5.37,5.94 -8.76,5.94 -3.96,0 -6.79,-4.24 -6.79,-10.18l0 -120.74z"/>
    <path id="_5" class="fil0" d="M361.69 411.37c0,1.13 0,1.97 -0.56,2.54l-8.77 9.9c-0.56,0.56 -1.13,1.41 -1.13,1.98 0,0.84 0.85,1.13 1.7,1.13l37.32 0c1.13,0 1.7,-0.29 1.7,-1.13 0,-0.57 -0.57,-1.42 -1.13,-1.98l-8.77 -9.9c-0.56,-0.57 -0.56,-1.41 -0.56,-2.54l0 -139.97c0,-1.13 -0.57,-1.69 -1.42,-1.69l-27.14 0c-0.85,0 -1.7,0.28 -1.7,1.13 0,0.56 0.57,1.41 1.13,2.26l8.48 7.92c0.57,0.56 0.85,1.13 0.85,2.26l0 128.09zm9.62 -196.52c-5.94,0 -10.47,7.35 -10.47,14.99 0,7.35 4.53,14.98 10.47,14.98 5.65,0 10.18,-7.63 10.18,-14.98 0,-7.64 -4.53,-14.99 -10.18,-14.99z"/>
   </g>
   <g id="cross">
    <path class="fil9" d="M346.92 682.58c29.97,64.64 54.52,86.92 79.14,75.5 16.01,-7.42 16.12,-26.55 13.25,-42.42 -0.27,-1.37 -1,-2.15 -1.93,-1.72 -0.92,0.42 -1.41,1.77 -1.62,3.74 -0.93,10.9 -4.44,21.88 -12.76,25.74 -10.15,4.71 -22.67,-8.57 -52.07,-71.98 -24.41,-52.63 -27.32,-66.99 -16.55,-71.98 8.31,-3.86 16.71,-0.27 30.87,8.5 1.04,0.63 1.94,0.96 2.56,0.68 0.92,-0.43 0.66,-1.8 -0.22,-2.89 -10.21,-13.97 -25.19,-26.1 -40.89,-18.82 -22.78,10.56 -23.47,44.55 0.22,95.65z"/>
    <path class="fil10" d="M433.65 598.6c-7.28,-15.69 -7.59,-30.88 1.33,-35.02 6.47,-3 14.19,-2.47 21.43,4.27 1.33,1.25 2.52,2.2 3.75,1.63 1.23,-0.57 0.97,-1.95 0.26,-3.49 -4.57,-9.85 -18.6,-23.16 -28.76,-18.45 -7.08,3.28 -9.46,11.86 -11.53,20.3l-0.61 0.29 -4.85 -10.47c-0.58,-1.23 -1.48,-1.56 -2.4,-1.13l-29.55 13.7c-1.23,0.57 -1.71,1.17 -1.28,2.09 0.29,0.62 1.02,1.4 2.38,1.89l12.92 4.48c1.21,0.19 1.8,0.66 2.37,1.89l64.66 139.45c0.57,1.23 1,2.15 0.67,3.05l-4.55 15.2c-0.64,1.04 -0.51,2.11 -0.23,2.73 0.43,0.92 1.19,0.94 2.42,0.37l41.25 -19.13c1.23,-0.57 1.7,-1.16 1.27,-2.08 -0.28,-0.62 -1.02,-1.4 -2.23,-1.59l-15.46 -5.92c-0.59,-0.47 -1.02,-1.39 -1.59,-2.63l-51.67 -111.43z"/>
    <path class="fil11" d="M489.54 520.7c-19.71,9.14 -28.19,34.39 -0.07,95.03 35.25,76.03 59.73,85.26 79.42,76.12 20.01,-9.28 28.79,-33.92 -6.47,-109.95 -28.12,-60.64 -52.88,-70.48 -72.88,-61.2zm73.22 157.91c-8.01,3.71 -17.17,-4.75 -49.28,-74.01 -24.84,-53.56 -25.81,-66.95 -17.81,-70.66 8.31,-3.85 17.91,5.54 42.74,59.1 32.12,69.26 32.66,81.72 24.35,85.57z"/>
    <path class="fil12" d="M597.47 474.39c-0.72,-1.53 -2.04,-2.79 -2.66,-2.5 -0.92,0.42 -0.97,1.94 -1.3,2.84l-5.21 12.15c-8.09,-3.73 -15.35,-4.86 -22.73,-1.43 -11.09,5.14 -17.4,23.77 -8.12,43.78 8.7,18.78 24.02,34.87 43.66,48.2 17.27,11.43 36.55,27.18 45.39,46.27 3.71,8 3.06,14.66 -3.71,17.8 -11.39,5.28 -28.89,-13.91 -45.37,-36.55 -1.03,-1.4 -1.6,-2.63 -3.14,-1.92 -0.92,0.43 -0.66,1.8 -0.23,2.73l27.41 59.1c0.57,1.23 1.3,2.01 1.92,1.73 1.23,-0.57 1.73,-1.93 2.36,-2.97l4.15 -12.02c7.33,3.7 14.42,5.28 23.04,1.28 12.93,-5.99 21.05,-23.97 12.2,-43.05 -9.28,-20.01 -27.58,-37.71 -47.98,-51.06 -21.45,-13.99 -36.05,-28.54 -42.05,-41.47 -4.28,-9.23 -6.47,-17.19 -0.01,-20.19 5.85,-2.71 12.73,0.83 21.3,8.83 11.37,10.81 17.8,19.04 24.08,27.73 1.02,1.4 2.2,2.34 3.13,1.91 1.23,-0.57 1.27,-2.08 0.7,-3.32l-26.83 -57.87z"/>
    <path class="fil13" d="M671.35 440.14c-0.72,-1.54 -2.05,-2.8 -2.66,-2.51 -0.93,0.43 -0.97,1.94 -1.3,2.85l-5.22 12.14c-8.08,-3.73 -15.34,-4.86 -22.72,-1.43 -11.09,5.14 -17.4,23.78 -8.13,43.78 8.71,18.78 24.03,34.87 43.67,48.2 17.27,11.44 36.54,27.19 45.39,46.27 3.71,8 3.06,14.66 -3.71,17.8 -11.39,5.29 -28.89,-13.9 -45.37,-36.55 -1.03,-1.4 -1.6,-2.63 -3.14,-1.92 -0.92,0.43 -0.66,1.81 -0.23,2.73l27.41 59.1c0.57,1.23 1.3,2.01 1.92,1.73 1.23,-0.57 1.73,-1.93 2.36,-2.97l4.15 -12.02c7.33,3.71 14.42,5.28 23.04,1.29 12.93,-6 21.05,-23.98 12.2,-43.06 -9.28,-20.01 -27.58,-37.7 -47.99,-51.06 -21.44,-13.99 -36.04,-28.54 -42.04,-41.46 -4.28,-9.24 -6.47,-17.2 -0.01,-20.2 5.85,-2.71 12.73,0.84 21.3,8.83 11.37,10.81 17.8,19.05 24.07,27.73 1.03,1.4 2.21,2.34 3.14,1.92 1.23,-0.58 1.27,-2.09 0.7,-3.32l-26.83 -57.87z"/>
   </g>
   <g id="__x003f_">
    <path class="fil14" d="M875.94 647.94c-20.78,9.64 -18.43,32.86 -9.51,52.1 8.57,18.47 24.77,35.27 45.55,25.63 20.01,-9.28 18.43,-32.85 9.86,-51.32 -8.92,-19.24 -25.89,-35.68 -45.9,-26.41z"/>
    <path class="fil15" d="M819.47 515.02c-6.42,-13.85 -6.03,-27.12 -3.8,-38.44 21.02,-107.92 14.89,-157.44 -12.23,-215.93 -28.9,-62.33 -78.15,-104.01 -139.72,-75.47 -70.03,32.47 -50.18,131.74 -29.49,176.37 2.86,6.16 6.95,8.94 10.8,7.15 3.85,-1.78 4.02,-7.47 3,-11.68 -6.39,-27.89 -16.49,-110.17 25.84,-129.79 26.93,-12.49 59.04,18.44 75.81,54.61 23.55,50.79 39.41,105.15 16.75,191.39 -5.12,19.21 1.61,35.72 14.02,52.41l68.9 96.15c2.91,4.26 7.77,6.68 12.38,4.54 5.39,-2.5 6.27,-6.64 3.78,-12.03l-46.04 -99.28z"/>
   </g>
   <g id="uiz">
    <path class="fil16" d="M855.37 105.67c-0.57,-1.23 -1.16,-1.71 -2.39,-1.14l-29.55 13.71c-0.93,0.42 -1.71,1.16 -1.28,2.08 0.29,0.62 1.33,1.26 2.68,1.75l12.92 4.48c0.91,0.33 1.5,0.81 2.07,2.04l54.95 118.51c7,15.08 4.96,27.62 -2.43,31.05 -8,3.71 -14.86,-0.59 -20.28,-12.29l-64.09 -138.21c-0.57,-1.23 -1.47,-1.56 -2.4,-1.13l-29.55 13.7c-0.92,0.42 -1.7,1.16 -1.27,2.08 0.28,0.62 1.33,1.26 2.37,1.9l13.23 4.33c0.9,0.33 1.5,0.81 2.07,2.04l57.95 124.97c9.7,20.93 22.87,27.55 40.72,19.27 9.85,-4.57 12.82,-12.68 15.2,-21.26l0.62 -0.29 4.85 10.47c0.28,0.61 1.49,0.8 2.72,0.23l28.63 -13.27c1.23,-0.58 2.01,-1.31 1.59,-2.24 -0.29,-0.61 -1.33,-1.25 -2.54,-1.44l-14.54 -6.34c-0.59,-0.48 -1.02,-1.4 -1.59,-2.63l-70.66 -152.37z"/>
    <path class="fil17" d="M951.89 246.05c0.57,1.23 1,2.15 0.67,3.05l-4.55 15.2c-0.33,0.9 -0.52,2.11 -0.23,2.73 0.43,0.92 1.49,0.8 2.42,0.37l40.63 -18.84c1.23,-0.57 1.7,-1.16 1.27,-2.09 -0.28,-0.61 -1.33,-1.25 -2.23,-1.58l-14.53 -6.35c-0.91,-0.33 -1.33,-1.25 -1.91,-2.48l-70.65 -152.37c-0.57,-1.24 -1.47,-1.57 -2.39,-1.14l-29.56 13.7c-0.92,0.43 -1.7,1.17 -1.27,2.09 0.28,0.62 1.33,1.26 2.37,1.89l13.23 4.34c0.9,0.33 1.5,0.8 2.07,2.04l64.66 139.44zm-88.74 -218.79c-6.46,3 -7.67,13.28 -3.82,21.6 3.71,8 12.49,14.03 18.95,11.03 6.16,-2.86 7.23,-13.45 3.52,-21.45 -3.85,-8.32 -12.49,-14.03 -18.65,-11.18z"/>
    <path class="fil18" d="M950.61 129.57c0.72,1.54 1.76,2.18 2.69,1.75 0.92,-0.42 1.42,-1.78 0.89,-4.52l-5.4 -48.74c-0.19,-3.65 1.08,-5.74 3.85,-7.02l14.78 -6.85 33.23 175.7 1 2.16c0.28,0.62 0.57,1.23 1.49,0.8l61.57 -28.54c1.84,-0.86 1.89,-2.38 1.46,-3.3l-25.84 -55.72c-0.71,-1.54 -1.73,-2.93 -2.66,-2.5 -1.23,0.57 -1.13,2.39 -0.72,4.07l5.66 50.11c0.36,3.2 -1.23,5.43 -4.3,6.86l-16.32 7.57 -35.85 -174.12c-0.13,-1.07 -0.55,-1.99 -0.7,-2.3 -0.42,-0.92 -1.02,-1.4 -2.25,-0.82l-56.64 26.26c-1.54,0.71 -2.2,2.52 -1.63,3.75l25.69 55.4z"/>
   </g>
  </g>
 </g>
</svg>
