<?xml version="1.0" encoding="UTF-8"?>
<!DOCTYPE svg PUBLIC "-//W3C//DTD SVG 1.1//EN" "http://www.w3.org/Graphics/SVG/1.1/DTD/svg11.dtd">
<!-- Creator: CorelDRAW -->
<svg xmlns="http://www.w3.org/2000/svg" xml:space="preserve" width="500px" height="500px" version="1.1" style="shape-rendering:geometricPrecision; text-rendering:geometricPrecision; image-rendering:optimizeQuality; fill-rule:evenodd; clip-rule:evenodd"
viewBox="0 0 241.29 241.29"
 xmlns:xlink="http://www.w3.org/1999/xlink"
 xmlns:xodm="http://www.corel.com/coreldraw/odm/2003">
 <defs>
  <style type="text/css">
   <![CDATA[
    .fil0 {fill:none}
    .fil2 {fill:#FEFEFE}
    .fil1 {fill:#FEFEFE;fill-rule:nonzero}
   ]]>
  </style>
 </defs>
 <g id="Livello_x0020_1">
  <metadata id="CorelCorpID_0Corel-Layer"/>
  <rect class="fil0" width="241.29" height="241.29"/>
  <g>
   <path class="fil1" d="M195.52 165.45l-4.01 -3.56 1.95 4.46 -5.93 -0.14 -5.94 -0.17 -5.93 -0.21 -5.92 -0.27 -5.92 -0.34 -5.9 -0.44 -5.88 -0.54 -5.87 -0.67 -5.85 -0.8 -5.81 -0.95 -5.79 -1.13 -5.76 -1.31 -5.72 -1.51 -5.68 -1.72 -5.63 -1.96 -5.58 -2.21 -5.53 -2.47 -5.48 -2.74 -5.4 -3.05 -5.35 -3.35 -5.27 -3.67 -5.19 -4.02 -5.11 -4.36 -5.03 -4.74 -4.93 -5.11 -4.85 -5.51 -4.75 -5.91 -4.65 -6.35 -4.54 -6.77 -4.44 -7.24 -4.33 -7.7 -4.22 -8.18 4.81 -2.37 4.13 8.01 4.23 7.53 4.33 7.05 4.43 6.6 4.51 6.15 4.6 5.74 4.68 5.32 4.76 4.93 4.84 4.56 4.91 4.19 4.99 3.86 5.05 3.52 5.13 3.21 5.18 2.92 5.25 2.64 5.32 2.37 5.37 2.12 5.42 1.89 5.49 1.67 5.53 1.46 5.58 1.27 5.63 1.09 5.67 0.93 5.72 0.78 5.74 0.65 5.79 0.54 5.81 0.43 5.84 0.34 5.86 0.27 5.88 0.21 5.9 0.16 5.91 0.14 1.95 4.46zm-1.95 -4.46l5.8 0.12 -3.85 4.34 -1.95 -4.46zm-167.48 -92.55l-4.81 2.37 4.92 -0.26 -4.77 14.21 -3.66 13.47 -2.6 12.73 -1.58 12 -0.63 11.25 0.3 10.51 1.15 9.76 1.96 9.02 2.72 8.28 3.44 7.55 4.1 6.82 4.72 6.1 5.29 5.38 5.83 4.68 6.34 3.96 6.79 3.26 7.22 2.55 7.6 1.83 7.94 1.12 8.23 0.38 8.48 -0.35 8.69 -1.08 8.84 -1.82 8.95 -2.57 9.01 -3.32 9.03 -4.06 9.01 -4.82 8.92 -5.58 8.8 -6.34 8.63 -7.09 8.41 -7.86 8.15 -8.63 4.01 3.56 -8.38 8.87 -8.66 8.09 -8.89 7.31 -9.08 6.54 -9.22 5.77 -9.32 4.99 -9.38 4.22 -9.37 3.45 -9.34 2.67 -9.25 1.91 -9.11 1.14 -8.94 0.36 -8.72 -0.41 -8.44 -1.18 -8.12 -1.96 -7.75 -2.73 -7.33 -3.52 -6.85 -4.29 -6.33 -5.07 -5.74 -5.84 -5.1 -6.6 -4.42 -7.35 -3.68 -8.09 -2.9 -8.83 -2.08 -9.54 -1.21 -10.26 -0.31 -10.97 0.65 -11.68 1.63 -12.38 2.67 -13.09 3.75 -13.79 4.87 -14.49 4.92 -0.26zm-4.92 0.26l2.15 -5.87 2.77 5.61 -4.92 0.26z"/>
  </g>
  <g>
   <path class="fil1" d="M137.55 64.13l-5.34 -0.51 0 0 0.14 -1.96 0.04 -1.93 -0.05 -1.91 -0.15 -1.86 -0.24 -1.84 -0.33 -1.79 -0.41 -1.76 -0.5 -1.71 -0.58 -1.67 -0.66 -1.63 -0.74 -1.58 -0.82 -1.53 -0.88 -1.47 -0.96 -1.42 -1.03 -1.36 -1.1 -1.31 -1.16 -1.24 -1.22 -1.18 -1.28 -1.12 -1.35 -1.05 -1.4 -0.97 -1.45 -0.91 -1.51 -0.83 -1.56 -0.75 -1.61 -0.67 -1.66 -0.59 -1.7 -0.51 -1.75 -0.42 -1.79 -0.33 -1.83 -0.24 -1.87 -0.15 -1.91 -0.05 0 -5.36 2.18 0.06 2.15 0.16 2.12 0.28 2.07 0.38 2.02 0.49 1.98 0.59 1.92 0.69 1.88 0.78 1.81 0.88 1.76 0.97 1.7 1.05 1.64 1.14 1.56 1.22 1.5 1.3 1.43 1.38 1.35 1.45 1.28 1.52 1.19 1.58 1.12 1.66 1.03 1.71 0.94 1.77 0.86 1.83 0.77 1.88 0.67 1.94 0.57 1.98 0.48 2.02 0.38 2.06 0.27 2.11 0.17 2.13 0.07 2.17 -0.05 2.2 -0.16 2.23 0 0zm-46.44 43.1l0 -5.37 0 0 1.92 -0.04 1.9 -0.15 1.89 -0.24 1.87 -0.34 1.84 -0.42 1.82 -0.52 1.8 -0.59 1.76 -0.69 1.73 -0.76 1.7 -0.85 1.66 -0.92 1.62 -0.99 1.57 -1.07 1.53 -1.14 1.48 -1.2 1.43 -1.27 1.37 -1.33 1.31 -1.39 1.26 -1.45 1.19 -1.51 1.13 -1.55 1.05 -1.61 0.99 -1.65 0.92 -1.69 0.83 -1.74 0.76 -1.78 0.68 -1.81 0.6 -1.85 0.51 -1.88 0.42 -1.91 0.33 -1.94 0.23 -1.96 5.34 0.51 -0.27 2.22 -0.37 2.19 -0.47 2.17 -0.58 2.12 -0.67 2.09 -0.77 2.04 -0.85 2.01 -0.95 1.95 -1.02 1.91 -1.11 1.86 -1.19 1.8 -1.27 1.74 -1.33 1.69 -1.41 1.62 -1.48 1.56 -1.53 1.5 -1.61 1.42 -1.66 1.35 -1.71 1.28 -1.77 1.2 -1.82 1.12 -1.87 1.04 -1.92 0.95 -1.96 0.87 -1.99 0.77 -2.04 0.68 -2.07 0.58 -2.1 0.49 -2.13 0.38 -2.15 0.27 -2.18 0.17 -2.19 0.06 0 0zm-38.67 -43.61l5.34 0.51 0 0 -0.14 1.96 -0.04 1.93 0.06 1.9 0.14 1.87 0.24 1.83 0.33 1.8 0.42 1.75 0.5 1.72 0.58 1.67 0.66 1.63 0.74 1.57 0.81 1.53 0.89 1.48 0.96 1.42 1.03 1.36 1.09 1.31 1.16 1.24 1.22 1.18 1.29 1.11 1.34 1.05 1.4 0.98 1.46 0.9 1.51 0.83 1.56 0.75 1.61 0.68 1.65 0.59 1.71 0.51 1.75 0.42 1.79 0.33 1.83 0.24 1.87 0.15 1.91 0.04 0 5.37 -2.19 -0.06 -2.15 -0.17 -2.11 -0.27 -2.07 -0.39 -2.02 -0.49 -1.98 -0.58 -1.93 -0.69 -1.87 -0.79 -1.82 -0.87 -1.76 -0.97 -1.7 -1.05 -1.63 -1.14 -1.57 -1.22 -1.5 -1.3 -1.42 -1.38 -1.35 -1.45 -1.28 -1.52 -1.2 -1.59 -1.11 -1.65 -1.03 -1.71 -0.95 -1.78 -0.86 -1.83 -0.76 -1.88 -0.67 -1.93 -0.58 -1.98 -0.48 -2.02 -0.37 -2.07 -0.28 -2.1 -0.17 -2.14 -0.06 -2.17 0.04 -2.2 0.16 -2.22 0 0zm46.45 -43.1l0 5.36 0 0 -1.92 0.05 -1.91 0.15 -1.89 0.24 -1.86 0.33 -1.85 0.43 -1.82 0.51 -1.79 0.6 -1.77 0.68 -1.73 0.77 -1.7 0.84 -1.65 0.92 -1.62 1 -1.58 1.07 -1.52 1.13 -1.48 1.21 -1.43 1.27 -1.37 1.33 -1.32 1.39 -1.25 1.45 -1.19 1.5 -1.13 1.56 -1.06 1.6 -0.99 1.65 -0.91 1.7 -0.84 1.74 -0.76 1.78 -0.68 1.81 -0.59 1.85 -0.51 1.88 -0.42 1.91 -0.33 1.94 -0.24 1.96 -5.34 -0.51 0.27 -2.22 0.37 -2.2 0.48 -2.16 0.58 -2.12 0.67 -2.09 0.76 -2.05 0.86 -2 0.94 -1.96 1.03 -1.9 1.11 -1.86 1.19 -1.8 1.26 -1.75 1.34 -1.68 1.41 -1.63 1.47 -1.56 1.54 -1.49 1.6 -1.42 1.66 -1.36 1.72 -1.27 1.77 -1.2 1.82 -1.13 1.87 -1.03 1.91 -0.96 1.96 -0.86 2 -0.77 2.03 -0.68 2.07 -0.59 2.1 -0.48 2.13 -0.38 2.16 -0.28 2.17 -0.16 2.2 -0.06 0 0z"/>
  </g>
  <g>
   <path class="fil1" d="M233.55 105.5l-5.37 -0.45 0 0 0.13 -2.07 0.01 -2.04 -0.1 -2.01 -0.2 -1.97 -0.31 -1.94 -0.41 -1.89 -0.5 -1.86 -0.61 -1.81 -0.69 -1.77 -0.79 -1.73 -0.88 -1.67 -0.97 -1.62 -1.05 -1.57 -1.13 -1.51 -1.21 -1.45 -1.29 -1.4 -1.36 -1.32 -1.44 -1.26 -1.51 -1.19 -1.58 -1.12 -1.64 -1.05 -1.71 -0.97 -1.77 -0.89 -1.83 -0.8 -1.88 -0.72 -1.94 -0.64 -1.99 -0.54 -2.05 -0.46 -2.09 -0.35 -2.13 -0.26 -2.18 -0.16 -2.22 -0.05 0.01 -5.36 2.48 0.06 2.44 0.17 2.39 0.29 2.35 0.4 2.3 0.51 2.25 0.62 2.19 0.71 2.14 0.82 2.07 0.92 2.01 1.01 1.95 1.1 1.87 1.19 1.8 1.28 1.73 1.36 1.64 1.44 1.57 1.52 1.48 1.6 1.39 1.67 1.3 1.73 1.21 1.81 1.11 1.86 1.01 1.93 0.91 1.99 0.8 2.04 0.7 2.09 0.58 2.13 0.47 2.19 0.35 2.22 0.24 2.26 0.11 2.3 -0.02 2.33 -0.14 2.35 0 0zm-52.17 45.45l0.01 -5.36 0 0 2.23 -0.05 2.21 -0.16 2.19 -0.26 2.16 -0.36 2.13 -0.45 2.11 -0.55 2.06 -0.64 2.04 -0.73 1.99 -0.81 1.94 -0.9 1.9 -0.99 1.86 -1.05 1.79 -1.14 1.75 -1.21 1.68 -1.28 1.62 -1.35 1.56 -1.41 1.49 -1.48 1.42 -1.54 1.34 -1.59 1.27 -1.65 1.19 -1.7 1.1 -1.74 1.02 -1.8 0.93 -1.84 0.84 -1.87 0.75 -1.92 0.65 -1.95 0.55 -1.99 0.44 -2.01 0.35 -2.05 0.23 -2.07 5.37 0.45 -0.27 2.36 -0.39 2.32 -0.51 2.29 -0.62 2.25 -0.73 2.2 -0.85 2.17 -0.94 2.12 -1.05 2.06 -1.14 2.02 -1.24 1.96 -1.33 1.9 -1.42 1.84 -1.5 1.78 -1.58 1.71 -1.66 1.65 -1.73 1.57 -1.8 1.5 -1.87 1.42 -1.94 1.34 -1.99 1.26 -2.06 1.18 -2.11 1.09 -2.16 1 -2.21 0.9 -2.26 0.82 -2.3 0.71 -2.34 0.61 -2.37 0.5 -2.41 0.4 -2.44 0.29 -2.47 0.17 -2.48 0.06 0 0zm-44.68 -45.9l5.36 0.45 0 0 -0.12 2.07 -0.01 2.04 0.09 2.01 0.21 1.97 0.3 1.94 0.41 1.9 0.51 1.85 0.6 1.82 0.7 1.77 0.79 1.72 0.88 1.67 0.96 1.63 1.05 1.56 1.13 1.51 1.22 1.46 1.29 1.39 1.36 1.33 1.44 1.26 1.51 1.19 1.58 1.12 1.64 1.04 1.71 0.97 1.77 0.89 1.82 0.81 1.89 0.72 1.94 0.63 1.99 0.55 2.04 0.45 2.09 0.35 2.14 0.26 2.18 0.16 2.22 0.05 -0.01 5.36 -2.48 -0.06 -2.44 -0.17 -2.39 -0.29 -2.35 -0.4 -2.3 -0.51 -2.25 -0.61 -2.2 -0.72 -2.13 -0.82 -2.08 -0.91 -2.01 -1.01 -1.94 -1.11 -1.87 -1.19 -1.81 -1.28 -1.72 -1.36 -1.65 -1.44 -1.56 -1.52 -1.48 -1.6 -1.39 -1.66 -1.3 -1.74 -1.21 -1.8 -1.11 -1.87 -1.01 -1.93 -0.91 -1.98 -0.81 -2.04 -0.69 -2.09 -0.58 -2.14 -0.47 -2.18 -0.36 -2.23 -0.23 -2.26 -0.11 -2.3 0.01 -2.33 0.15 -2.35 0 0zm52.17 -45.45l-0.01 5.36 0 0 -2.23 0.05 -2.21 0.16 -2.19 0.26 -2.16 0.36 -2.14 0.45 -2.1 0.55 -2.07 0.64 -2.03 0.73 -1.99 0.82 -1.95 0.9 -1.9 0.98 -1.85 1.06 -1.8 1.13 -1.74 1.21 -1.68 1.28 -1.63 1.35 -1.55 1.42 -1.49 1.47 -1.42 1.54 -1.35 1.59 -1.26 1.65 -1.19 1.7 -1.1 1.75 -1.02 1.79 -0.93 1.84 -0.84 1.88 -0.75 1.91 -0.65 1.95 -0.55 1.99 -0.45 2.02 -0.34 2.04 -0.24 2.07 -5.36 -0.45 0.26 -2.35 0.39 -2.33 0.51 -2.28 0.63 -2.25 0.73 -2.21 0.84 -2.17 0.95 -2.11 1.05 -2.07 1.14 -2.02 1.24 -1.96 1.33 -1.9 1.41 -1.84 1.5 -1.78 1.58 -1.71 1.66 -1.64 1.73 -1.58 1.81 -1.49 1.87 -1.43 1.93 -1.34 2 -1.26 2.05 -1.18 2.11 -1.09 2.17 -1 2.21 -0.9 2.26 -0.81 2.3 -0.71 2.34 -0.61 2.37 -0.51 2.41 -0.4 2.44 -0.29 2.46 -0.17 2.49 -0.06 0 0z"/>
  </g>
  <ellipse class="fil2" transform="matrix(2.21396 -0 -0.186432 1.96196 119.001 70.0626)" rx="3.61" ry="5.04"/>
  <ellipse class="fil2" transform="matrix(2.01323 -0 -0.552347 1.96196 158.962 92.1485)" rx="3.61" ry="5.04"/>
  <g>
   <path class="fil2" d="M10.45 129.17c-2.38,47.07 19.46,75.69 50.98,85.29 1.88,-6.75 2.9,-14.03 2.9,-21.62 0,-35.31 -22.13,-63.93 -49.42,-63.93 -1.5,0 -2.99,0.09 -4.46,0.26z"/>
   <path id="_1" class="fil1" d="M60.16 214.11l2.54 0.71 -1.65 0.9 -2.98 -0.97 -2.92 -1.09 -2.85 -1.2 -2.79 -1.31 -2.72 -1.43 -2.66 -1.54 -2.58 -1.65 -2.5 -1.77 -2.42 -1.88 -2.34 -1.99 -2.26 -2.11 -2.17 -2.22 -2.08 -2.33 -1.98 -2.44 -1.89 -2.55 -1.79 -2.67 -1.69 -2.77 -1.58 -2.89 -1.48 -2.99 -1.36 -3.11 -1.26 -3.21 -1.13 -3.32 -1.02 -3.44 -0.9 -3.54 -0.78 -3.65 -0.65 -3.75 -0.53 -3.87 -0.39 -3.97 -0.26 -4.08 -0.12 -4.19 0.01 -4.29 0.15 -4.4 2.63 0.13 -0.15 4.32 -0.01 4.21 0.12 4.1 0.25 3.99 0.39 3.88 0.51 3.77 0.63 3.66 0.76 3.54 0.87 3.44 0.99 3.33 1.1 3.23 1.22 3.11 1.32 3 1.42 2.89 1.53 2.78 1.63 2.68 1.72 2.56 1.82 2.46 1.9 2.35 2 2.24 2.09 2.13 2.17 2.02 2.25 1.92 2.33 1.81 2.4 1.7 2.48 1.59 2.56 1.48 2.62 1.37 2.69 1.27 2.75 1.16 2.82 1.05 2.88 0.94 -1.66 0.9zm2.54 0.71l-0.36 1.29 -1.29 -0.39 1.65 -0.9zm0.31 -21.98l2.63 0 0 0 0 0.72 -0.01 0.72 -0.01 0.72 -0.02 0.72 -0.03 0.71 -0.03 0.71 -0.04 0.71 -0.05 0.71 -0.05 0.71 -0.05 0.7 -0.07 0.7 -0.06 0.7 -0.08 0.7 -0.08 0.69 -0.08 0.69 -0.09 0.69 -0.1 0.69 -0.1 0.68 -0.11 0.69 -0.11 0.68 -0.12 0.67 -0.12 0.68 -0.13 0.67 -0.14 0.67 -0.14 0.66 -0.14 0.67 -0.15 0.66 -0.16 0.66 -0.16 0.65 -0.16 0.65 -0.17 0.65 -0.18 0.65 -2.54 -0.71 0.18 -0.62 0.16 -0.63 0.16 -0.63 0.16 -0.63 0.15 -0.64 0.14 -0.64 0.14 -0.64 0.14 -0.64 0.13 -0.65 0.12 -0.65 0.12 -0.65 0.12 -0.66 0.11 -0.65 0.1 -0.66 0.1 -0.67 0.09 -0.66 0.09 -0.67 0.08 -0.67 0.08 -0.67 0.07 -0.68 0.06 -0.67 0.06 -0.68 0.06 -0.68 0.05 -0.69 0.04 -0.68 0.04 -0.69 0.03 -0.69 0.03 -0.69 0.02 -0.7 0.01 -0.69 0.01 -0.7 0 -0.7 0 0zm-48.1 -62.61l0 -2.63 0 0 2.63 0.08 2.59 0.26 2.56 0.42 2.52 0.58 2.47 0.74 2.42 0.88 2.36 1.04 2.32 1.18 2.25 1.32 2.19 1.45 2.13 1.58 2.06 1.71 1.98 1.83 1.92 1.94 1.83 2.06 1.76 2.16 1.67 2.27 1.58 2.37 1.5 2.46 1.41 2.56 1.31 2.64 1.21 2.73 1.11 2.81 1.01 2.88 0.9 2.95 0.79 3.02 0.67 3.09 0.56 3.14 0.45 3.2 0.32 3.25 0.19 3.3 0.06 3.34 -2.63 0 -0.06 -3.24 -0.19 -3.19 -0.31 -3.15 -0.42 -3.1 -0.55 -3.04 -0.65 -2.98 -0.76 -2.92 -0.87 -2.86 -0.98 -2.78 -1.07 -2.7 -1.17 -2.63 -1.26 -2.54 -1.35 -2.46 -1.43 -2.37 -1.52 -2.27 -1.61 -2.17 -1.67 -2.07 -1.75 -1.96 -1.83 -1.85 -1.88 -1.74 -1.96 -1.62 -2.01 -1.5 -2.07 -1.37 -2.12 -1.24 -2.18 -1.11 -2.22 -0.98 -2.27 -0.83 -2.32 -0.69 -2.35 -0.54 -2.39 -0.4 -2.42 -0.23 -2.46 -0.08 0 0zm-3.15 -1l-2.63 -0.13 1.17 -1.24 0.14 -0.01 0.14 -0.02 0.14 -0.02 0.15 -0.01 0.14 -0.01 0.14 -0.02 0.15 -0.01 0.14 -0.01 0.14 -0.02 0.15 -0.01 0.14 -0.01 0.15 -0.01 0.14 -0.01 0.14 -0.01 0.15 -0.01 0.14 -0.01 0.14 -0.01 0.15 0 0.14 -0.01 0.15 -0.01 0.14 0 0.15 -0.01 0.14 0 0.15 -0.01 0.14 0 0.15 -0.01 0.14 0 0.15 0 0.14 0 0.15 0 0.14 0 0.15 0 0 2.63 -0.14 0 -0.13 0 -0.14 0 -0.13 0 -0.14 0 -0.14 0 -0.13 0.01 -0.14 0 -0.13 0.01 -0.14 0 -0.13 0.01 -0.14 0 -0.13 0.01 -0.14 0 -0.13 0.01 -0.14 0.01 -0.13 0.01 -0.14 0 -0.13 0.01 -0.14 0.01 -0.13 0.01 -0.13 0.01 -0.14 0.01 -0.13 0.02 -0.14 0.01 -0.13 0.01 -0.13 0.01 -0.14 0.02 -0.13 0.01 -0.13 0.01 -0.14 0.02 -0.13 0.01 1.16 -1.24zm-2.63 -0.13l0.06 -1.11 1.11 -0.13 -1.17 1.24z"/>
  </g>
 </g>
</svg>
